
<svg width="1597px" height="1200px" viewBox="0 0 1597 1200" version="1.1" xmlns="http://www.w3.org/2000/svg" xmlns:xlink="http://www.w3.org/1999/xlink">
    <g id="Patterns" stroke="none" stroke-width="1" fill="none" fill-rule="evenodd">
        <g id="Aare">
            <g transform="translate(-0.410781, -2.821218)">
                <path d="M1544.70108,481.111984 C1544.70108,462.099309 1529.29658,446.686194 1510.28532,446.686194 C1491.27405,446.686194 1475.86955,462.099309 1475.86955,481.111984 C1475.86955,500.12466 1491.27405,515.537775 1510.28532,515.537775 C1529.29658,515.537775 1544.70108,500.12466 1544.70108,481.111984 Z M1510.28532,405.375246 C1552.10735,405.375246 1586,439.283272 1586,481.111984 C1586,522.940697 1552.10735,556.848723 1510.28532,556.848723 C1468.46328,556.848723 1434.57063,522.940697 1434.57063,481.111984 C1434.57063,439.283272 1468.46328,405.375246 1510.28532,405.375246 Z" id="Shape" fill="#FD6234"></path>
                <path d="M1508.81227,501.445972 C1497.42855,501.445972 1488.18959,492.209823 1488.18959,480.817289 C1488.18959,469.424754 1497.42855,460.188605 1508.81227,460.188605 C1520.19599,460.188605 1529.43494,469.424754 1529.43494,480.817289 C1529.43494,492.209823 1520.19599,501.445972 1508.81227,501.445972 Z" id="Shape" fill="#463C74"></path>
                <path d="M244.347584,1182.78193 C244.347584,1171.38939 253.581043,1162.15324 264.97026,1162.15324 L388.70632,1162.15324 C400.095537,1162.15324 409.328996,1171.38939 409.328996,1182.78193 C409.328996,1194.17446 400.095537,1203.41061 388.70632,1203.41061 L264.97026,1203.41061 C253.581043,1203.41061 244.347584,1194.17446 244.347584,1182.78193 Z" id="Shape" fill="#FFC735"></path>
                <path d="M450.574349,667.948919 C450.574349,709.777632 416.720164,743.685658 374.957869,743.685658 L237.473358,743.685658 C195.711063,743.685658 161.856877,709.777632 161.856877,667.948919 C161.856877,626.120207 195.711063,592.212181 237.473358,592.212181 L374.957869,592.212181 C416.720164,592.212181 450.574349,626.120207 450.574349,667.948919 Z M374.957869,702.37471 C393.940355,702.37471 409.328996,686.961595 409.328996,667.948919 C409.328996,648.936244 393.940355,633.523129 374.957869,633.523129 L237.473358,633.523129 C218.490872,633.523129 203.10223,648.936244 203.10223,667.948919 C203.10223,686.961595 218.490872,702.37471 237.473358,702.37471 L374.957869,702.37471 Z" id="Shape" fill="#B4D51E"></path>
                <path d="M84.0799257,1094.37328 C84.0799257,1105.76582 93.3156925,1115.00196 104.708677,1115.00196 L168.657805,1115.00196 C190.331746,1115.00196 209.8768,1105.88546 223.667807,1091.2776 C237.458815,1105.88546 257.003869,1115.00196 278.67781,1115.00196 L341.939313,1115.00196 C383.713909,1115.00196 417.578067,1081.13792 417.578067,1039.36346 C417.578067,1027.97092 408.341887,1018.73477 396.949316,1018.73477 C385.556744,1018.73477 376.320565,1027.97092 376.320565,1039.36346 C376.320565,1058.35147 360.927391,1073.7446 341.939313,1073.7446 L278.67781,1073.7446 C259.689732,1073.7446 244.296558,1058.35147 244.296558,1039.36346 L244.296558,900.463654 C244.296558,859.449705 211.047138,826.200393 170.033055,826.200393 L170.033055,867.45776 C188.261994,867.45776 203.039056,882.234774 203.039056,900.463654 L203.039056,1039.36346 C203.039056,1058.35147 187.645882,1073.7446 168.657805,1073.7446 L104.708677,1073.7446 C93.3156925,1073.7446 84.0799257,1082.98075 84.0799257,1094.37328 Z" id="Shape" fill="#B4D51E"></path>
                <path d="M351.880112,928.111448 C370.88725,928.111448 386.295877,912.698334 386.295877,893.685658 C386.295877,874.672983 370.88725,859.259868 351.880112,859.259868 C332.872973,859.259868 317.464346,874.672983 317.464346,893.685658 C317.464346,905.092988 308.218895,914.341132 296.814887,914.341132 C285.410879,914.341132 276.165428,905.092988 276.165428,893.685658 C276.165428,851.856946 310.06358,817.948919 351.880112,817.948919 C393.696643,817.948919 427.594796,851.856946 427.594796,893.685658 C427.594796,935.51437 393.696643,969.422397 351.880112,969.422397 C340.476103,969.422397 331.230652,960.174253 331.230652,948.766923 C331.230652,937.359593 340.476103,928.111448 351.880112,928.111448 Z" id="Shape" fill="#E5E0D5" fill-rule="nonzero"></path>
                <path d="M303.33106,647.614931 C328.715757,647.614931 349.126333,627.204912 349.126333,602.231827 C349.126333,577.258743 328.715757,556.848723 303.33106,556.848723 C289.307317,556.848723 276.794142,563.067583 268.374383,572.911591 C260.962129,581.578389 247.912812,582.608448 239.228428,575.212377 C230.542667,567.816306 229.510354,554.795481 236.922608,546.130059 C252.888312,527.462475 276.736255,515.591356 303.33106,515.591356 C351.367375,515.591356 390.473978,554.289391 390.473978,602.231827 C390.473978,650.174263 351.367375,688.872299 303.33106,688.872299 C291.913597,688.872299 282.657238,679.636149 282.657238,668.243615 C282.657238,656.851081 291.913597,647.614931 303.33106,647.614931 Z" id="Shape" fill="#E5E0D5" fill-rule="nonzero"></path>
                <path d="M631.34758,116.772855 C644.787686,103.365463 644.787686,81.6276665 631.34758,68.2202749 C617.907474,54.8128833 596.116689,54.8128833 582.676583,68.2202749 C569.236478,81.6276665 569.236478,103.365463 582.676583,116.772855 C590.740922,124.817207 590.740922,137.860407 582.676583,145.903661 C574.612245,153.948288 561.536948,153.948288 553.473985,145.903661 C523.905202,116.407976 523.905202,68.5851533 553.473985,39.0887819 C583.041392,9.59254781 630.981395,9.59253408 660.550178,39.0887819 C690.118962,68.5851533 690.118962,116.407976 660.550178,145.903661 C652.485839,153.948288 639.411919,153.948288 631.34758,145.903661 C623.283241,137.860407 623.283241,124.817207 631.34758,116.772855 Z" id="Shape" fill="#463C74"></path>
                <path d="M554.42514,117.311148 C562.478983,109.255158 575.535887,109.255158 583.58973,117.311148 C591.643572,125.367139 591.643572,138.428298 583.58973,146.484426 C575.535887,154.540555 562.478983,154.540555 554.42514,146.484426 C546.371298,138.428298 546.371298,125.367139 554.42514,117.311148 Z" id="Shape" fill="#FD6234"></path>
                <path d="M170.105948,867.45776 C158.716731,867.45776 149.483271,858.221611 149.483271,846.829077 C149.483271,835.436542 158.716731,826.200393 170.105948,826.200393 C181.495165,826.200393 190.728625,835.436542 190.728625,846.829077 C190.728625,858.221611 181.495165,867.45776 170.105948,867.45776 Z" id="Shape" fill="#FD6234"></path>
                <path d="M111.130453,933.764244 C111.130453,914.751568 95.7219639,899.338453 76.7146873,899.338453 C57.7074107,899.338453 42.2989219,914.751568 42.2989219,933.764244 C42.2989219,952.776919 57.7074107,968.190034 76.7146873,968.190034 C95.7219639,968.190034 111.130453,952.776919 111.130453,933.764244 Z M76.7146873,858.027505 C118.530806,858.027505 152.429371,891.935531 152.429371,933.764244 C152.429371,975.592956 118.530806,1009.50098 76.7146873,1009.50098 C34.8985686,1009.50098 1,975.592956 1,933.764244 C1,891.935531 34.8985686,858.027505 76.7146873,858.027505 Z" id="Shape" fill="#FFC735"></path>
                <path d="M140.055762,756.106853 C116.572439,756.106853 97.5353769,775.214235 97.5353769,798.784916 L97.5353769,878.634196 C97.5353769,890.038876 88.3239527,899.284872 76.960997,899.284872 C65.5980413,899.284872 56.3866171,890.038876 56.3866171,878.634196 L56.3866171,798.784916 C56.3866171,752.404875 93.8465278,714.805501 140.055762,714.805501 L140.055762,756.106853 Z" id="Shape" fill="#E5E0D5" fill-rule="nonzero"></path>
                <path d="M77.0092937,899.284872 C65.6196644,899.284872 56.3866171,890.048723 56.3866171,878.656189 C56.3866171,867.263654 65.6196644,858.027505 77.0092937,858.027505 C88.398923,858.027505 97.6319703,867.263654 97.6319703,878.656189 C97.6319703,890.048723 88.398923,899.284872 77.0092937,899.284872 Z" id="Shape" fill="#FD6234"></path>
                <path d="M76.4200743,954.098232 C65.030445,954.098232 55.7973978,944.862083 55.7973978,933.469548 C55.7973978,922.077014 65.030445,912.840864 76.4200743,912.840864 C87.8097037,912.840864 97.0427509,922.077014 97.0427509,933.469548 C97.0427509,944.862083 87.8097037,954.098232 76.4200743,954.098232 Z" id="Shape" fill="#FD6234"></path>
                <path d="M80.5883583,542.061599 C99.6217786,541.813727 114.850583,526.2019 114.603118,507.190092 C114.355515,488.178283 98.7252529,472.965807 79.6919705,473.213679 C68.2719183,473.362403 58.8937608,464.235192 58.7452819,452.827556 C58.5966652,441.421298 67.7339753,432.0531 79.1540275,431.904377 C121.027414,431.360435 155.413578,464.825955 155.958139,506.653035 C156.502699,548.478738 122.99955,582.825582 81.1263012,583.369524 C69.706249,583.518248 60.3280916,574.391037 60.1794748,562.983401 C60.030996,551.577143 69.1683061,542.208945 80.5883583,542.061599 Z" id="Shape" fill="#FFC735"></path>
                <path d="M181.048593,690.081462 C162.030888,690.081462 146.613697,705.48592 146.613697,724.487918 C146.613697,743.489917 162.030888,758.894375 181.048593,758.894375 C256.359088,758.894375 317.410781,819.895647 317.410781,895.143945 C317.410781,906.544869 308.16019,915.787819 296.749843,915.787819 C285.339496,915.787819 276.088906,906.544869 276.088906,895.143945 C276.088906,842.697495 233.538393,800.182124 181.048593,800.182124 C139.208817,800.182124 105.291822,766.29314 105.291822,724.487918 C105.291822,682.682697 139.208817,648.793713 181.048593,648.793713 C192.45894,648.793713 201.70953,658.036664 201.70953,669.437587 C201.70953,680.838511 192.45894,690.081462 181.048593,690.081462 Z" id="Shape" fill="#FFC735"></path>
                <path d="M486.463163,1039.60202 C486.463163,1020.65276 471.054537,1005.29105 452.047398,1005.29105 C433.040259,1005.29105 417.631632,1020.65276 417.631632,1039.60202 C417.631632,1050.97131 408.386181,1060.18861 396.982173,1060.18861 C385.578165,1060.18861 376.332714,1050.97131 376.332714,1039.60202 C376.332714,997.912815 410.230866,964.117878 452.047398,964.117878 C493.863929,964.117878 527.762082,997.912815 527.762082,1039.60202 C527.762082,1050.97131 518.516631,1060.18861 507.112623,1060.18861 C495.708614,1060.18861 486.463163,1050.97131 486.463163,1039.60202 Z" id="Shape" fill="#463C74"></path>
                <path d="M450.574349,672.369352 C450.574349,724.77721 493.046064,767.261297 545.438662,767.261297 C556.827879,767.261297 566.061338,776.497446 566.061338,787.88998 C566.061338,799.282515 556.827879,808.518664 545.438662,808.518664 C470.267631,808.518664 409.328996,747.562279 409.328996,672.369352 C409.328996,660.976817 418.562456,651.740668 429.951673,651.740668 C441.34089,651.740668 450.574349,660.976817 450.574349,672.369352 Z" id="Shape" fill="#E5E0D5" fill-rule="nonzero"></path>
                <path d="M870.647097,55.3583091 C794.567535,55.3583091 732.891681,117.05144 732.891681,193.153851 C732.891681,204.568834 723.640027,213.823183 712.228368,213.823183 C700.816709,213.823183 691.565056,204.568834 691.565056,193.153851 C691.565056,94.2207859 771.742841,14.0196464 870.647097,14.0196464 C882.058755,14.0196464 891.310409,23.2735816 891.310409,34.6889777 C891.310409,46.1043738 882.058755,55.3583091 870.647097,55.3583091 Z" id="Shape" fill="#FFC735"></path>
                <path d="M1067.44398,182.563951 C1067.44398,112.614584 1010.75506,55.909426 940.826337,55.909426 C929.425244,55.909426 920.182156,46.6640586 920.182156,35.2592316 C920.182156,23.8544047 929.425244,14.6090373 940.826337,14.6090373 C1033.55862,14.6090373 1108.73234,89.8050679 1108.73234,182.563951 C1108.73234,193.968365 1099.48925,203.214145 1088.08816,203.214145 C1076.68707,203.214145 1067.44398,193.968365 1067.44398,182.563951 Z" id="Shape" fill="#B4D51E"></path>
                <path d="M423.47026,574.530452 C423.47026,519.843811 379.152128,475.51277 324.481413,475.51277 C313.092196,475.51277 303.858736,466.276621 303.858736,454.884086 C303.858736,443.491552 313.092196,434.255403 324.481413,434.255403 C401.930562,434.255403 464.715613,497.058743 464.715613,574.530452 C464.715613,585.922986 455.482154,595.159136 444.092937,595.159136 C432.70372,595.159136 423.47026,585.922986 423.47026,574.530452 Z" id="Shape" fill="#FFC735"></path>
                <path d="M59.9237124,563.011497 C59.775642,551.618811 68.8878136,542.262892 80.2764469,542.115739 C91.6650803,541.96721 101.017437,551.082459 101.165507,562.473769 C101.313577,573.866454 92.2014058,583.220998 80.8127724,583.369527 C69.4242765,583.518055 60.0719203,574.402807 59.9237124,563.011497 Z" id="Shape" fill="#FD6234"></path>
                <path d="M296.788104,915.787819 C285.398887,915.787819 276.165428,906.55167 276.165428,895.159136 C276.165428,883.766601 285.398887,874.530452 296.788104,874.530452 C308.177321,874.530452 317.410781,883.766601 317.410781,895.159136 C317.410781,906.55167 308.177321,915.787819 296.788104,915.787819 Z" id="Shape" fill="#FD6234"></path>
                <path d="M396.95539,1060.18861 C385.566173,1060.18861 376.332714,1050.95246 376.332714,1039.55992 C376.332714,1028.16739 385.566173,1018.93124 396.95539,1018.93124 C408.344607,1018.93124 417.578067,1028.16739 417.578067,1039.55992 C417.578067,1050.95246 408.344607,1060.18861 396.95539,1060.18861 Z" id="Shape" fill="#FD6234"></path>
                <path d="M104.113383,1115.00196 C92.7237536,1115.00196 83.4907063,1105.76582 83.4907063,1094.37328 C83.4907063,1082.98075 92.7237536,1073.7446 104.113383,1073.7446 C115.503012,1073.7446 124.736059,1082.98075 124.736059,1094.37328 C124.736059,1105.76582 115.503012,1115.00196 104.113383,1115.00196 Z" id="Shape" fill="#FD6234"></path>
                <path d="M296.788104,970.601179 C285.398887,970.601179 276.165428,961.365029 276.165428,949.972495 C276.165428,938.579961 285.398887,929.343811 296.788104,929.343811 C308.177321,929.343811 317.410781,938.579961 317.410781,949.972495 C317.410781,961.365029 308.177321,970.601179 296.788104,970.601179 Z" id="Shape" fill="#463C74"></path>
                <path d="M296.788104,1026.00393 C285.398887,1026.00393 276.165428,1016.76778 276.165428,1005.37525 C276.165428,993.982711 285.398887,984.746562 296.788104,984.746562 C308.177321,984.746562 317.410781,993.982711 317.410781,1005.37525 C317.410781,1016.76778 308.177321,1026.00393 296.788104,1026.00393 Z" id="Shape" fill="#463C74"></path>
                <path d="M452.342007,1067.2613 C440.952791,1067.2613 431.719331,1058.02515 431.719331,1046.63261 C431.719331,1035.24008 440.952791,1026.00393 452.342007,1026.00393 C463.731224,1026.00393 472.964684,1035.24008 472.964684,1046.63261 C472.964684,1058.02515 463.731224,1067.2613 452.342007,1067.2613 Z" id="Shape" fill="#FD6234"></path>
                <path d="M452.342007,1122.07466 C440.952791,1122.07466 431.719331,1112.83851 431.719331,1101.44597 C431.719331,1090.05344 440.952791,1080.81729 452.342007,1080.81729 C463.731224,1080.81729 472.964684,1090.05344 472.964684,1101.44597 C472.964684,1112.83851 463.731224,1122.07466 452.342007,1122.07466 Z" id="Shape" fill="#FD6234"></path>
                <path d="M429.951673,692.998035 C418.562456,692.998035 409.328996,683.761886 409.328996,672.369352 C409.328996,660.976817 418.562456,651.740668 429.951673,651.740668 C441.34089,651.740668 450.574349,660.976817 450.574349,672.369352 C450.574349,683.761886 441.34089,692.998035 429.951673,692.998035 Z" id="Shape" fill="#FD6234"></path>
                <path d="M182.479554,690.051081 C171.090337,690.051081 161.856877,680.814931 161.856877,669.422397 C161.856877,658.029862 171.090337,648.793713 182.479554,648.793713 C193.868771,648.793713 203.10223,658.029862 203.10223,669.422397 C203.10223,680.814931 193.868771,690.051081 182.479554,690.051081 Z" id="Shape" fill="#FD6234"></path>
                <path d="M578.970598,665.591356 C578.970598,646.57868 563.561972,631.165565 544.554833,631.165565 C525.546317,631.165565 510.139067,646.57868 510.139067,665.591356 C510.139067,684.604031 525.546317,700.017146 544.554833,700.017146 C563.561972,700.017146 578.970598,684.604031 578.970598,665.591356 Z M544.554833,589.854617 C586.369988,589.854617 620.269517,623.762643 620.269517,665.591356 C620.269517,707.420068 586.369988,741.328094 544.554833,741.328094 C502.738301,741.328094 468.840149,707.420068 468.840149,665.591356 C468.840149,623.762643 502.738301,589.854617 544.554833,589.854617 Z" id="Shape" fill="#FFC735"></path>
                <path d="M636.767658,252.722986 C636.767658,264.115521 646.013201,273.35167 657.420397,273.35167 C676.430554,273.35167 691.841628,288.744794 691.841628,307.732809 L691.841628,445.257367 C691.841628,464.245383 676.430554,479.638507 657.420397,479.638507 C646.013201,479.638507 636.767658,488.874656 636.767658,500.267191 C636.767658,511.659725 646.013201,520.895874 657.420397,520.895874 C679.119541,520.895874 698.687323,511.779371 712.494367,497.171513 C726.300034,511.779371 745.869193,520.895874 767.568337,520.895874 L830.903403,520.895874 C872.726576,520.895874 906.630112,487.031827 906.630112,445.257367 C906.630112,433.864833 897.383192,424.628684 885.977373,424.628684 C874.571554,424.628684 865.324634,433.864833 865.324634,445.257367 C865.324634,464.245383 849.91356,479.638507 830.903403,479.638507 L767.568337,479.638507 C748.558179,479.638507 733.147106,464.245383 733.147106,445.257367 L733.147106,307.732809 C733.147106,265.95835 699.242193,232.094303 657.420397,232.094303 C646.013201,232.094303 636.767658,241.330452 636.767658,252.722986 Z" id="Shape" fill="#B4D51E"></path>
                <path d="M678.013011,500.399295 C678.013011,489.001149 668.767878,479.76045 657.364263,479.76045 C638.357778,479.76045 622.949683,464.359743 622.949683,445.362374 L622.949683,307.77007 C622.949683,288.7727 638.357778,273.371994 657.364263,273.371994 C668.767878,273.371994 678.013011,264.131295 678.013011,252.733148 C678.013011,241.335002 668.767878,232.094303 657.364263,232.094303 C615.549171,232.094303 581.652186,265.975032 581.652186,307.77007 L581.652186,445.362374 C581.652186,447.056135 581.707249,448.736137 581.817376,450.401004 C547.450976,460.917184 522.459108,492.875748 522.459108,530.669602 L522.459108,610.473139 C522.459108,621.871285 531.704241,631.111984 543.107856,631.111984 C554.511471,631.111984 563.756604,621.871285 563.756604,610.473139 L563.756604,530.669602 C563.756604,510.797146 577.354493,494.097568 595.756658,489.361641 C609.492205,508.539256 631.967679,521.038141 657.364263,521.038141 C668.767878,521.038141 678.013011,511.797442 678.013011,500.399295 Z" id="Shape" fill="#E5E0D5" fill-rule="nonzero"></path>
                <path d="M657.095725,520.949455 C638.087209,520.949455 622.679959,536.36257 622.679959,555.375246 C622.679959,574.387921 638.087209,589.801036 657.095725,589.801036 C676.102864,589.801036 691.51149,574.387921 691.51149,555.375246 C691.51149,543.967916 700.755565,534.719771 712.16095,534.719771 C723.564958,534.719771 732.810409,543.967916 732.810409,555.375246 C732.810409,597.203958 698.91088,631.111984 657.095725,631.111984 C615.279193,631.111984 581.381041,597.203958 581.381041,555.375246 C581.381041,513.546533 615.279193,479.638507 657.095725,479.638507 C668.499733,479.638507 677.745184,488.886651 677.745184,500.293981 C677.745184,511.701311 668.499733,520.949455 657.095725,520.949455 Z" id="Shape" fill="#463C74"></path>
                <path d="M1154.1558,659.697446 C1154.1558,640.68477 1169.56442,625.271656 1188.57156,625.271656 C1207.5787,625.271656 1222.98733,640.68477 1222.98733,659.697446 C1222.98733,678.710121 1207.5787,694.123236 1188.57156,694.123236 C1177.16755,694.123236 1167.9221,703.371381 1167.9221,714.77871 C1167.9221,726.18604 1177.16755,735.434185 1188.57156,735.434185 C1230.38809,735.434185 1264.28625,701.526158 1264.28625,659.697446 C1264.28625,617.868734 1230.38809,583.960707 1188.57156,583.960707 C1146.75503,583.960707 1112.85688,617.868734 1112.85688,659.697446 C1112.85688,671.104776 1122.10233,680.35292 1133.50634,680.35292 C1144.91034,680.35292 1154.1558,671.104776 1154.1558,659.697446 Z" id="Shape" fill="#E5E0D5" fill-rule="nonzero"></path>
                <path d="M657.390335,520.895874 C645.999743,520.895874 636.767658,511.659725 636.767658,500.267191 C636.767658,488.874656 645.999743,479.638507 657.390335,479.638507 C668.779551,479.638507 678.013011,488.874656 678.013011,500.267191 C678.013011,511.659725 668.779551,520.895874 657.390335,520.895874 Z" id="Shape" fill="#FD6234"></path>
                <path d="M657.390335,273.35167 C645.999743,273.35167 636.767658,264.115521 636.767658,252.722986 C636.767658,241.330452 645.999743,232.094303 657.390335,232.094303 C668.779551,232.094303 678.013011,241.330452 678.013011,252.722986 C678.013011,264.115521 668.779551,273.35167 657.390335,273.35167 Z" id="Shape" fill="#FD6234"></path>
                <path d="M543.081784,631.111984 C531.692568,631.111984 522.459108,621.875835 522.459108,610.483301 C522.459108,599.090766 531.692568,589.854617 543.081784,589.854617 C554.471001,589.854617 563.704461,599.090766 563.704461,610.483301 C563.704461,621.875835 554.471001,631.111984 543.081784,631.111984 Z" id="Shape" fill="#FD6234"></path>
                <path d="M544.260223,685.925344 C532.871006,685.925344 523.637546,676.689194 523.637546,665.29666 C523.637546,653.904126 532.871006,644.667976 544.260223,644.667976 C555.64944,644.667976 564.8829,653.904126 564.8829,665.29666 C564.8829,676.689194 555.64944,685.925344 544.260223,685.925344 Z" id="Shape" fill="#463C74"></path>
                <path d="M1410.24004,482.33874 C1410.24004,524.140957 1376.337,558.027505 1334.51444,558.027505 L1196.83154,558.027505 C1155.00899,558.027505 1121.10595,524.140957 1121.10595,482.33874 C1121.10595,440.536523 1155.00899,406.649975 1196.83154,406.649975 L1240.89007,406.649975 L1240.89007,363.300955 C1240.89007,321.500114 1274.79311,287.61219 1316.61567,287.61219 L1454.29857,287.61219 C1473.31258,287.61219 1488.71929,272.208838 1488.71929,253.208206 L1488.71929,189.904875 C1488.71929,170.904243 1473.31258,155.500891 1454.29857,155.500891 C1442.89842,155.500891 1433.64613,146.258605 1433.64613,134.8585 C1433.64613,123.457983 1442.89842,114.21611 1454.29857,114.21611 C1496.12663,114.21611 1530.02416,148.102658 1530.02416,189.904875 L1530.02416,253.208206 C1530.02416,274.896477 1520.89579,294.45583 1506.27386,308.25458 C1520.89579,322.054706 1530.02416,341.612683 1530.02416,363.300955 L1530.02416,425.228126 C1530.02416,436.62823 1520.77187,445.870517 1509.37173,445.870517 C1497.97158,445.870517 1488.71929,436.62823 1488.71929,425.228126 L1488.71929,363.300955 C1488.71929,344.300323 1473.31258,328.896971 1454.29857,328.896971 L1316.61567,328.896971 C1297.60579,328.896971 1282.19494,344.300323 1282.19494,363.300955 L1282.19494,406.649975 L1334.51444,406.649975 C1376.337,406.649975 1410.24004,440.536523 1410.24004,482.33874 Z M1196.83154,447.934756 C1177.82167,447.934756 1162.41082,463.338108 1162.41082,482.33874 C1162.41082,501.339372 1177.82167,516.742724 1196.83154,516.742724 L1334.51444,516.742724 C1353.52432,516.742724 1368.93517,501.339372 1368.93517,482.33874 C1368.93517,463.338108 1353.52432,447.934756 1334.51444,447.934756 L1196.83154,447.934756 Z" id="Shape" fill="#B4D51E"></path>
                <path d="M1101.16244,284.108858 C1124.64884,293.661191 1151.24748,282.455649 1160.68611,259.346453 C1170.12335,236.237256 1158.95096,209.6691 1135.46456,200.116768 C1122.48817,194.839691 1108.55883,195.885487 1097.04905,201.826321 C1086.91499,207.056673 1074.45225,203.098866 1069.21102,192.987218 C1063.96979,182.87557 1067.93583,170.43871 1078.06851,165.208358 C1099.89551,153.94235 1126.4487,151.930464 1151.05606,161.939044 C1195.50189,180.014405 1217.06173,230.542411 1198.94325,274.905582 C1180.82478,319.270128 1130.01539,340.363317 1085.56956,322.287956 C1075.00585,317.990712 1069.93124,305.960627 1074.23743,295.418842 C1078.54223,284.875684 1090.59735,279.812989 1101.16244,284.108858 Z" id="Shape" fill="#FFC735"></path>
                <path d="M1409.82342,486.711198 C1409.82342,539.119057 1452.29239,581.603143 1504.68773,581.603143 C1516.07145,581.603143 1525.31041,590.839293 1525.31041,602.231827 C1525.31041,613.624361 1516.07145,622.860511 1504.68773,622.860511 C1429.5112,622.860511 1368.57807,561.904126 1368.57807,486.711198 C1368.57807,475.318664 1377.81703,466.082515 1389.20074,466.082515 C1400.58446,466.082515 1409.82342,475.318664 1409.82342,486.711198 Z" id="Shape" fill="#FFC735"></path>
                <path d="M1389.20074,506.1611 C1377.81703,506.1611 1368.57807,496.924951 1368.57807,485.532417 C1368.57807,474.139882 1377.81703,464.903733 1389.20074,464.903733 C1400.58446,464.903733 1409.82342,474.139882 1409.82342,485.532417 C1409.82342,496.924951 1400.58446,506.1611 1389.20074,506.1611 Z" id="Shape" fill="#FD6234"></path>
                <path d="M636.714093,403.649172 C636.714093,384.699907 621.305466,369.338198 602.298327,369.338198 C583.289812,369.338198 567.882562,384.699907 567.882562,403.649172 C567.882562,415.018456 558.63711,424.235756 547.233102,424.235756 C535.827718,424.235756 526.583643,415.018456 526.583643,403.649172 C526.583643,361.959966 560.481795,328.165029 602.298327,328.165029 C644.113482,328.165029 678.013011,361.959966 678.013011,403.649172 C678.013011,415.018456 668.76756,424.235756 657.363552,424.235756 C645.958167,424.235756 636.714093,415.018456 636.714093,403.649172 Z" id="Shape" fill="#FFC735"></path>
                <path d="M975.515208,446.674712 C975.515208,427.725448 960.106581,412.363738 941.099442,412.363738 C922.092303,412.363738 906.683677,427.725448 906.683677,446.674712 C906.683677,458.043997 897.438226,467.261297 886.034218,467.261297 C874.63021,467.261297 865.384758,458.043997 865.384758,446.674712 C865.384758,404.985507 899.282911,371.19057 941.099442,371.19057 C982.915974,371.19057 1016.81413,404.985507 1016.81413,446.674712 C1016.81413,458.043997 1007.56868,467.261297 996.164667,467.261297 C984.760659,467.261297 975.515208,458.043997 975.515208,446.674712 Z" id="Shape" fill="#463C74"></path>
                <path d="M456.466543,1160.97446 C508.85914,1160.97446 551.330855,1118.49037 551.330855,1066.08251 C551.330855,1054.68998 560.564315,1045.45383 571.953532,1045.45383 C583.342748,1045.45383 592.576208,1054.68998 592.576208,1066.08251 C592.576208,1141.27544 531.637574,1202.23183 456.466543,1202.23183 C445.077326,1202.23183 435.843866,1192.99568 435.843866,1181.60314 C435.843866,1170.21061 445.077326,1160.97446 456.466543,1160.97446 Z" id="Shape" fill="#E5E0D5" fill-rule="nonzero"></path>
                <path d="M665.662974,673.500982 C726.477178,673.500982 775.776283,624.187517 775.776283,563.355599 C775.776283,551.950045 785.020295,542.70334 796.422528,542.70334 C807.824761,542.70334 817.068773,551.950045 817.068773,563.355599 C817.068773,646.998626 749.281644,714.805501 665.662974,714.805501 C654.260741,714.805501 645.016729,705.558796 645.016729,694.153242 C645.016729,682.747687 654.260741,673.500982 665.662974,673.500982 Z" id="Shape" fill="#B4D51E"></path>
                <path d="M657.390335,424.235756 C645.999743,424.235756 636.767658,414.999607 636.767658,403.607073 C636.767658,392.214538 645.999743,382.978389 657.390335,382.978389 C668.779551,382.978389 678.013011,392.214538 678.013011,403.607073 C678.013011,414.999607 668.779551,424.235756 657.390335,424.235756 Z" id="Shape" fill="#FD6234"></path>
                <path d="M801.749071,293.980354 C790.359854,293.980354 781.126394,284.744204 781.126394,273.35167 C781.126394,261.959136 790.359854,252.722986 801.749071,252.722986 C813.138287,252.722986 822.371747,261.959136 822.371747,273.35167 C822.371747,284.744204 813.138287,293.980354 801.749071,293.980354 Z" id="Shape" fill="#FD6234"></path>
                <path d="M1115.21375,715.984283 C1115.21375,727.376817 1124.44721,736.612967 1135.83643,736.612967 C1147.22565,736.612967 1156.45911,727.376817 1156.45911,715.984283 C1156.45911,704.591749 1147.22565,695.355599 1135.83643,695.355599 C1124.44721,695.355599 1115.21375,704.591749 1115.21375,715.984283 Z" id="Shape" fill="#FD6234"></path>
                <path d="M1060.41636,715.984283 C1060.41636,727.376817 1069.64982,736.612967 1081.03903,736.612967 C1092.42825,736.612967 1101.66171,727.376817 1101.66171,715.984283 C1101.66171,704.591749 1092.42825,695.355599 1081.03903,695.355599 C1069.64982,695.355599 1060.41636,704.591749 1060.41636,715.984283 Z" id="Shape" fill="#FD6234"></path>
                <path d="M1464.91543,1202.23183 C1423.09339,1202.23183 1389.20074,1168.36778 1389.20074,1126.59332 L1389.20074,989.068762 C1389.20074,947.294303 1423.09339,913.430255 1464.91543,913.430255 C1506.73747,913.430255 1540.63011,947.294303 1540.63011,989.068762 L1540.63011,1126.59332 C1540.63011,1168.36778 1506.73747,1202.23183 1464.91543,1202.23183 Z M1499.33119,1126.59332 L1499.33119,989.068762 C1499.33119,970.080747 1483.9267,954.687623 1464.91543,954.687623 C1445.90416,954.687623 1430.49966,970.080747 1430.49966,989.068762 L1430.49966,1126.59332 C1430.49966,1145.58134 1445.90416,1160.97446 1464.91543,1160.97446 C1483.9267,1160.97446 1499.33119,1145.58134 1499.33119,1126.59332 Z" id="Shape" fill="#B4D51E" style="mix-blend-mode: multiply;"></path>
                <path d="M1485.95056,934.088409 C1485.95056,892.373627 1519.89595,858.557957 1561.78309,858.557957 C1573.19933,858.557957 1582.46468,849.335002 1582.46468,837.958743 C1582.46468,826.582483 1573.19933,817.359528 1561.78309,817.359528 C1497.06347,817.359528 1444.58736,869.621108 1444.58736,934.088409 C1444.58736,945.464668 1453.85272,954.687623 1465.26896,954.687623 C1476.6852,954.687623 1485.95056,945.464668 1485.95056,934.088409 Z" id="Shape" fill="#E5E0D5" fill-rule="nonzero"></path>
                <path d="M1485.83271,934.058939 C1485.83271,922.665029 1476.59375,913.430255 1465.21004,913.430255 C1453.82632,913.430255 1444.58736,922.665029 1444.58736,934.058939 C1444.58736,945.451473 1453.82632,954.687623 1465.21004,954.687623 C1476.59375,954.687623 1485.83271,945.451473 1485.83271,934.058939 Z" id="Shape" fill="#FD6234"></path>
                <path d="M1280.48978,1092.0693 C1261.48264,1092.0693 1246.07401,1107.48241 1246.07401,1126.49509 C1246.07401,1145.50776 1261.48264,1160.92088 1280.48978,1160.92088 C1299.49692,1160.92088 1314.90554,1145.50776 1314.90554,1126.49509 C1314.90554,1107.48241 1299.49692,1092.0693 1280.48978,1092.0693 Z M1204.77509,1126.49509 C1204.77509,1084.66638 1238.67325,1050.75835 1280.48978,1050.75835 C1322.30631,1050.75835 1356.20446,1084.66638 1356.20446,1126.49509 C1356.20446,1168.3238 1322.30631,1202.23183 1280.48978,1202.23183 C1238.67325,1202.23183 1204.77509,1168.3238 1204.77509,1126.49509 Z" id="Shape" fill="#FFC735"></path>
                <path d="M867.751795,992.998035 C879.146622,992.998035 888.38463,1002.25775 888.38463,1013.67934 C888.38463,1032.7158 903.780852,1048.14819 922.772689,1048.14819 L1060.32493,1048.14819 C1079.31676,1048.14819 1094.71299,1032.7158 1094.71299,1013.67934 C1094.71299,1002.25775 1103.95099,992.998035 1115.34582,992.998035 C1126.74065,992.998035 1135.97866,1002.25775 1135.97866,1013.67934 C1135.97866,1039.0622 1123.53706,1061.53175 1104.4338,1075.29585 C1109.28114,1093.08591 1125.61272,1106.05585 1145.60731,1106.05585 L1225.38761,1106.05585 C1236.78244,1106.05585 1246.02045,1115.31556 1246.02045,1126.73716 C1246.02045,1138.15876 1236.78244,1147.41847 1225.38761,1147.41847 L1145.60731,1147.41847 C1108.28802,1147.41847 1076.23284,1123.44332 1065.51477,1089.3357 C1063.7995,1089.45152 1062.06909,1089.51081 1060.32493,1089.51081 L922.772689,1089.51081 C880.989822,1089.51081 847.118959,1055.56037 847.118959,1013.67934 C847.118959,1002.25775 856.356967,992.998035 867.751795,992.998035 Z" id="Shape" fill="#E5E0D5" fill-rule="nonzero"></path>
                <path d="M698.341078,746.632613 C740.15761,746.632613 774.055762,780.49666 774.055762,822.27112 L774.055762,959.795678 C774.055762,1001.57014 740.15761,1035.43418 698.341078,1035.43418 C656.524546,1035.43418 622.626394,1001.57014 622.626394,959.795678 L622.626394,822.27112 C622.626394,780.49666 656.524546,746.632613 698.341078,746.632613 Z M732.756844,822.27112 C732.756844,803.283104 717.348217,787.88998 698.341078,787.88998 C679.333939,787.88998 663.925313,803.283104 663.925313,822.27112 L663.925313,959.795678 C663.925313,978.783694 679.333939,994.176817 698.341078,994.176817 C717.348217,994.176817 732.756844,978.783694 732.756844,959.795678 L732.756844,822.27112 Z" id="Shape" fill="#B4D51E"></path>
                <path d="M867.741636,1034.2554 C879.130853,1034.2554 888.364312,1025.00579 888.364312,1013.59665 C888.364312,994.580953 903.752954,979.16539 922.73544,979.16539 C922.73544,979.16539 922.73544,979.16539 922.73544,979.16539 L1060.21995,979.16539 C1079.20244,979.16539 1094.59108,994.580953 1094.59108,1013.59665 C1094.59108,1025.00579 1103.82454,1034.2554 1115.21375,1034.2554 C1126.60297,1034.2554 1135.83643,1025.00579 1135.83643,1013.59665 C1135.83643,991.891183 1126.72258,972.317702 1112.11898,958.506636 C1126.72258,944.69557 1135.83643,925.122088 1135.83643,903.416623 L1135.83643,840.063109 C1135.83643,798.227753 1101.98225,764.314342 1060.21995,764.314342 C1048.83073,764.314342 1039.59727,773.563955 1039.59727,784.973097 C1039.59727,796.382238 1048.83073,805.631851 1060.21995,805.631851 C1079.20244,805.631851 1094.59108,821.047414 1094.59108,840.063109 L1094.59108,903.416623 C1094.59108,922.432318 1079.20244,937.847881 1060.21995,937.847881 L922.736815,937.847881 C922.73544,937.847881 922.736815,937.847881 922.736815,937.847881 C880.97452,937.847881 847.118959,971.761293 847.118959,1013.59665 C847.118959,1025.00579 856.352419,1034.2554 867.741636,1034.2554 Z" id="Shape" fill="#B4D51E"></path>
                <path d="M1135.89,1013.33202 C1135.89,1032.3447 1151.29862,1047.75781 1170.30576,1047.75781 C1189.3129,1047.75781 1204.72153,1032.3447 1204.72153,1013.33202 C1204.72153,994.319348 1189.3129,978.906233 1170.30576,978.906233 C1158.90175,978.906233 1149.6563,969.658089 1149.6563,958.250759 C1149.6563,946.843429 1158.90175,937.595285 1170.30576,937.595285 C1212.12229,937.595285 1246.02045,971.503311 1246.02045,1013.33202 C1246.02045,1055.16074 1212.12229,1089.06876 1170.30576,1089.06876 C1128.48923,1089.06876 1094.59108,1055.16074 1094.59108,1013.33202 C1094.59108,1001.92469 1103.83653,992.676549 1115.24054,992.676549 C1126.64455,992.676549 1135.89,1001.92469 1135.89,1013.33202 Z" id="Shape" fill="#463C74"></path>
                <path d="M960.195505,844.176817 C960.195505,825.164142 944.786879,809.751027 925.77974,809.751027 C906.772601,809.751027 891.363974,825.164142 891.363974,844.176817 C891.363974,863.189493 906.772601,878.602608 925.77974,878.602608 C937.183748,878.602608 946.429199,887.850752 946.429199,899.258082 C946.429199,910.665412 937.183748,919.913556 925.77974,919.913556 C883.963208,919.913556 850.065056,886.00553 850.065056,844.176817 C850.065056,802.348105 883.963208,768.440079 925.77974,768.440079 C967.596271,768.440079 1001.49442,802.348105 1001.49442,844.176817 C1001.49442,855.584147 992.248973,864.832291 980.844965,864.832291 C969.440956,864.832291 960.195505,855.584147 960.195505,844.176817 Z" id="Shape" fill="#463C74"></path>
                <path d="M678.013011,955.804843 C678.013011,930.412752 657.608935,909.996231 632.643123,909.996231 C607.67731,909.996231 587.273234,930.412752 587.273234,955.804843 C587.273234,969.832671 593.490284,982.349492 603.331425,990.771703 C611.995699,998.186116 613.025458,1011.23923 605.631541,1019.92615 C598.237624,1028.61444 585.22059,1029.64705 576.557691,1022.23264 C557.895544,1006.26228 546.027881,982.407395 546.027881,955.804843 C546.027881,907.754536 584.714647,868.636542 632.643123,868.636542 C680.571598,868.636542 719.258364,907.754536 719.258364,955.804843 C719.258364,967.225632 710.024905,976.484688 698.635688,976.484688 C687.246471,976.484688 678.013011,967.225632 678.013011,955.804843 Z" id="Shape" fill="#FD6234"></path>
                <path d="M1135.83643,1013.03733 C1135.83643,1024.42986 1126.60297,1033.66601 1115.21375,1033.66601 C1103.82454,1033.66601 1094.59108,1024.42986 1094.59108,1013.03733 C1094.59108,1001.64479 1103.82454,992.408644 1115.21375,992.408644 C1126.60297,992.408644 1135.83643,1001.64479 1135.83643,1013.03733 Z" id="Shape" fill="#FD6234"></path>
                <path d="M888.364312,1013.62672 C888.364312,1025.01925 879.130853,1034.2554 867.741636,1034.2554 C856.352419,1034.2554 847.118959,1025.01925 847.118959,1013.62672 C847.118959,1002.23418 856.352419,992.998035 867.741636,992.998035 C879.130853,992.998035 888.364312,1002.23418 888.364312,1013.62672 Z" id="Shape" fill="#FD6234"></path>
                <path d="M1246.02045,1126.78978 C1246.02045,1138.18232 1236.78699,1147.41847 1225.39777,1147.41847 C1214.00855,1147.41847 1204.77509,1138.18232 1204.77509,1126.78978 C1204.77509,1115.39725 1214.00855,1106.1611 1225.39777,1106.1611 C1236.78699,1106.1611 1246.02045,1115.39725 1246.02045,1126.78978 Z" id="Shape" fill="#FD6234"></path>
                <path d="M1301.40706,1126.20039 C1301.40706,1137.59293 1292.1736,1146.82908 1280.78439,1146.82908 C1269.39517,1146.82908 1260.16171,1137.59293 1260.16171,1126.20039 C1260.16171,1114.80786 1269.39517,1105.57171 1280.78439,1105.57171 C1292.1736,1105.57171 1301.40706,1114.80786 1301.40706,1126.20039 Z" id="Shape" fill="#FD6234"></path>
                <path d="M1019.21309,1034.30898 C1000.26934,1034.30898 984.912108,1049.7221 984.912108,1068.73477 C984.912108,1087.74745 1000.26934,1103.16056 1019.21309,1103.16056 C1030.57906,1103.16056 1039.79368,1112.40871 1039.79368,1123.81604 C1039.79368,1135.22337 1030.57906,1144.47151 1019.21309,1144.47151 C977.536025,1144.47151 943.750929,1110.56349 943.750929,1068.73477 C943.750929,1026.90606 977.536025,992.998035 1019.21309,992.998035 C1030.57906,992.998035 1039.79368,1002.24618 1039.79368,1013.65351 C1039.79368,1025.06084 1030.57906,1034.30898 1019.21309,1034.30898 Z" id="Shape" fill="#FFC735"></path>
                <path d="M1061.55797,665.29666 C1035.31902,665.29666 1013.35246,687.075049 1013.35246,714.805501 C1013.35246,742.535953 1035.31902,764.314342 1061.55797,764.314342 C1072.96752,764.314342 1082.21747,773.550491 1082.21747,784.943026 C1082.21747,796.33556 1072.96752,805.571709 1061.55797,805.571709 C1011.73138,805.571709 972.033457,764.546758 972.033457,714.805501 C972.033457,665.064244 1011.73138,624.039293 1061.55797,624.039293 C1072.96752,624.039293 1082.21747,633.275442 1082.21747,644.667976 C1082.21747,656.060511 1072.96752,665.29666 1061.55797,665.29666 Z" id="Shape" fill="#FFC735"></path>
                <path d="M925.469944,919.9901 C873.038766,919.9901 830.535776,962.553007 830.535776,1015.0581 C830.535776,1056.91006 796.656661,1090.83694 754.863613,1090.83694 C713.070565,1090.83694 679.19145,1056.91006 679.19145,1015.0581 C679.19145,1003.64443 688.431709,994.391141 699.829312,994.391141 C711.226916,994.391141 720.467175,1003.64443 720.467175,1015.0581 C720.467175,1034.08134 735.867148,1049.50302 754.863613,1049.50302 C773.860077,1049.50302 789.260051,1034.08134 789.260051,1015.0581 C789.260051,939.725665 850.243559,878.656189 925.469944,878.656189 C936.867548,878.656189 946.107807,887.909474 946.107807,899.323144 C946.107807,910.736815 936.867548,919.9901 925.469944,919.9901 Z" id="Shape" fill="#FFC735"></path>
                <path d="M702.760223,746.632613 C789.320471,746.632613 859.492565,676.440079 859.492565,589.854617 C859.492565,578.462083 868.726025,569.225933 880.115242,569.225933 C891.504458,569.225933 900.737918,578.462083 900.737918,589.854617 C900.737918,699.226523 812.100279,787.88998 702.760223,787.88998 C691.371006,787.88998 682.137546,778.653831 682.137546,767.261297 C682.137546,755.868762 691.371006,746.632613 702.760223,746.632613 Z" id="Shape" fill="#E5E0D5" fill-rule="nonzero"></path>
                <path d="M1310.79308,54.1812446 C1236.99168,54.1812446 1177.16477,114.02613 1177.16477,187.848474 C1177.16477,199.263931 1167.91273,208.518664 1156.5006,208.518664 C1145.08847,208.518664 1135.83643,199.263931 1135.83643,187.848474 C1135.83643,91.1943894 1214.16742,12.8408644 1310.79308,12.8408644 C1322.20521,12.8408644 1331.45725,22.0951842 1331.45725,33.5110545 C1331.45725,44.9269249 1322.20521,54.1812446 1310.79308,54.1812446 Z" id="Shape" fill="#E5E0D5" fill-rule="nonzero"></path>
                <path d="M1274.89219,998.302554 C1274.89219,945.894695 1232.42048,903.410609 1180.02788,903.410609 C1168.63866,903.410609 1159.4052,894.17446 1159.4052,882.781925 C1159.4052,871.389391 1168.63866,862.153242 1180.02788,862.153242 C1255.19891,862.153242 1316.13755,923.109627 1316.13755,998.302554 C1316.13755,1009.69509 1306.90409,1018.93124 1295.51487,1018.93124 C1284.12565,1018.93124 1274.89219,1009.69509 1274.89219,998.302554 Z" id="Shape" fill="#FD6234"></path>
                <path d="M43.4237509,1066.08251 C43.4237509,1118.49037 85.8957923,1160.97446 138.287871,1160.97446 C149.67734,1160.97446 158.910781,1170.21061 158.910781,1181.60314 C158.910781,1192.99568 149.67734,1202.23183 138.287871,1202.23183 C63.1167173,1202.23183 2.17843866,1141.27544 2.17843866,1066.08251 C2.17843866,1054.68998 11.4115098,1045.45383 22.8011161,1045.45383 C34.1905848,1045.45383 43.4237509,1054.68998 43.4237509,1066.08251 Z" id="Shape" fill="#B4D51E"></path>
                <path d="M587.305609,856.783955 C552.432501,856.783955 524.162016,885.062674 524.162016,919.94594 C524.162016,931.32059 514.943052,940.54224 503.571715,940.54224 C492.200377,940.54224 482.981413,931.32059 482.981413,919.94594 C482.981413,862.312002 529.688453,815.591356 587.305609,815.591356 C598.676946,815.591356 607.895911,824.813005 607.895911,836.187655 C607.895911,847.562305 598.676946,856.783955 587.305609,856.783955 Z" id="Shape" fill="#FFC735"></path>
                <path d="M1039.79368,1013.62672 C1039.79368,1025.01925 1030.56022,1034.2554 1019.171,1034.2554 C1007.78179,1034.2554 998.548327,1025.01925 998.548327,1013.62672 C998.548327,1002.23418 1007.78179,992.998035 1019.171,992.998035 C1030.56022,992.998035 1039.79368,1002.23418 1039.79368,1013.62672 Z" id="Shape" fill="#FD6234"></path>
                <path d="M946.697026,899.284872 C946.697026,910.677407 937.463566,919.913556 926.074349,919.913556 C914.685133,919.913556 905.451673,910.677407 905.451673,899.284872 C905.451673,887.892338 914.685133,878.656189 926.074349,878.656189 C937.463566,878.656189 946.697026,887.892338 946.697026,899.284872 Z" id="Shape" fill="#FD6234"></path>
                <path d="M946.107807,730.129666 C946.107807,741.5222 936.874347,750.75835 925.48513,750.75835 C914.095913,750.75835 904.862454,741.5222 904.862454,730.129666 C904.862454,718.737132 914.095913,709.500982 925.48513,709.500982 C936.874347,709.500982 946.107807,718.737132 946.107807,730.129666 Z" id="Shape" fill="#FD6234"></path>
                <path d="M946.107807,674.726916 C946.107807,686.11945 936.874347,695.355599 925.48513,695.355599 C914.095913,695.355599 904.862454,686.11945 904.862454,674.726916 C904.862454,663.334381 914.095913,654.098232 925.48513,654.098232 C936.874347,654.098232 946.107807,663.334381 946.107807,674.726916 Z" id="Shape" fill="#FD6234"></path>
                <path d="M906.630112,447.222004 C906.630112,458.614538 897.396652,467.850688 886.007435,467.850688 C874.618218,467.850688 865.384758,458.614538 865.384758,447.222004 C865.384758,435.82947 874.618218,426.59332 886.007435,426.59332 C897.396652,426.59332 906.630112,435.82947 906.630112,447.222004 Z" id="Shape" fill="#FD6234"></path>
                <path d="M1082.21747,784.943026 C1082.21747,796.33556 1072.98401,805.571709 1061.5948,805.571709 C1050.20558,805.571709 1040.97212,796.33556 1040.97212,784.943026 C1040.97212,773.550491 1050.20558,764.314342 1061.5948,764.314342 C1072.98401,764.314342 1082.21747,773.550491 1082.21747,784.943026 Z" id="Shape" fill="#FD6234"></path>
                <path d="M434.370818,127.12913 C415.363679,127.12913 399.955052,111.716153 399.955052,92.7033399 C399.955052,73.6905267 415.363679,58.2775496 434.370818,58.2775496 C453.377957,58.2775496 468.786583,73.6905267 468.786583,92.7033399 C468.786583,111.716153 453.377957,127.12913 434.370818,127.12913 Z M358.656134,92.7033399 C358.656134,134.531639 392.554286,168.440079 434.370818,168.440079 C476.18735,168.440079 510.085502,134.531639 510.085502,92.7033399 C510.085502,50.8751784 476.18735,16.9666012 434.370818,16.9666012 C392.554286,16.9666012 358.656134,50.8750407 358.656134,92.7033399 Z" id="Shape" fill="#FFC735"></path>
                <path d="M21.6226793,184.943026 C33.0123084,184.943026 42.2453556,194.18973 42.2453556,205.595285 C42.2453556,224.605001 57.6338593,240.015717 76.6164829,240.015717 L214.100992,240.015717 C233.083478,240.015717 248.472119,224.605001 248.472119,205.595285 C248.472119,194.18973 257.705579,184.943026 269.094796,184.943026 C280.484012,184.943026 289.717472,194.18973 289.717472,205.595285 C289.717472,247.417487 255.863287,281.320236 214.100992,281.320236 L79.3918827,281.320236 C79.3833587,281.320236 79.3746971,281.320236 79.3661731,281.320236 C60.3835494,281.320236 44.9950458,296.730952 44.9950458,315.740668 L44.9950458,453.422397 C44.9950458,472.432113 60.3835494,487.842829 79.3661731,487.842829 C90.7558023,487.842829 99.9888495,497.089534 99.9888495,508.495088 C99.9888495,519.900643 90.7558023,529.147348 79.3661731,529.147348 C37.6042911,529.147348 3.74967932,495.244599 3.74967932,453.422397 L3.74967932,315.740668 C3.74967932,294.713914 12.3077326,275.687676 26.1259844,261.966315 C10.7022847,248.103142 1,227.983711 1,205.595285 C1,194.18973 10.2330913,184.943026 21.6226793,184.943026 Z" id="Shape" fill="#B4D51E"></path>
                <path d="M219.521983,130.320653 C230.414693,96.6932889 262.073632,72.3693517 299.430797,72.3693517 L379.256825,72.3693517 C390.658183,72.3693517 399.901487,81.5835044 399.901487,92.9498258 C399.901487,104.31601 390.658183,113.5303 379.256825,113.5303 L299.430797,113.5303 C279.91658,113.5303 263.462498,126.590095 258.383355,144.420263 C277.367071,158.133471 289.717472,180.433679 289.717472,205.613809 C289.717472,216.983093 280.484012,226.200393 269.094796,226.200393 C257.705578,226.200393 248.472119,216.983093 248.472119,205.613809 C248.472119,186.664544 233.083477,171.302835 214.100991,171.302835 L76.6164795,171.302835 C57.6338555,171.302835 42.2453532,186.664544 42.2453532,205.613809 C42.2453532,216.983093 33.0123043,226.200393 21.6226766,226.200393 C10.2330868,226.200393 1,216.983093 1,205.613809 C1,163.924603 34.8545967,130.129666 76.6164795,130.129666 L214.100991,130.129666 C215.923771,130.129666 217.731487,130.194046 219.521979,130.320653 L219.521983,130.320653 Z" id="Shape" fill="#E5E0D5" fill-rule="nonzero"></path>
                <path d="M289.771038,205.866405 C289.771038,186.853729 305.179664,171.440614 324.186803,171.440614 C343.193942,171.440614 358.602568,186.853729 358.602568,205.866405 C358.602568,224.87908 343.193942,240.292195 324.186803,240.292195 C312.782795,240.292195 303.537344,249.540339 303.537344,260.947669 C303.537344,272.354999 312.782795,281.603143 324.186803,281.603143 C366.003335,281.603143 399.901487,247.695117 399.901487,205.866405 C399.901487,164.037692 366.003335,130.129666 324.186803,130.129666 C282.370271,130.129666 248.472119,164.037692 248.472119,205.866405 C248.472119,217.273735 257.71757,226.521879 269.121578,226.521879 C280.525586,226.521879 289.771038,217.273735 289.771038,205.866405 Z" id="Shape" fill="#463C74"></path>
                <path d="M289.717472,206.1611 C289.717472,194.768566 280.484012,185.532417 269.094796,185.532417 C257.705579,185.532417 248.472119,194.768566 248.472119,206.1611 C248.472119,217.553635 257.705579,226.789784 269.094796,226.789784 C280.484012,226.789784 289.717472,217.553635 289.717472,206.1611 Z" id="Shape" fill="#FD6234"></path>
                <path d="M42.2453532,205.571709 C42.2453532,194.179175 33.0118934,184.943026 21.6226766,184.943026 C10.2334597,184.943026 1,194.179175 1,205.571709 C1,216.964244 10.2334597,226.200393 21.6226766,226.200393 C33.0118934,226.200393 42.2453532,216.964244 42.2453532,205.571709 Z" id="Shape" fill="#463C74"></path>
                <path d="M269.094796,331.111984 C269.094796,319.71945 259.861336,310.483301 248.472119,310.483301 C237.082902,310.483301 227.849442,319.71945 227.849442,331.111984 C227.849442,342.504519 237.082902,351.740668 248.472119,351.740668 C259.861336,351.740668 269.094796,342.504519 269.094796,331.111984 Z" id="Shape" fill="#463C74"></path>
                <path d="M269.094796,385.925344 C269.094796,374.532809 259.861336,365.29666 248.472119,365.29666 C237.082902,365.29666 227.849442,374.532809 227.849442,385.925344 C227.849442,397.317878 237.082902,406.554028 248.472119,406.554028 C259.861336,406.554028 269.094796,397.317878 269.094796,385.925344 Z" id="Shape" fill="#463C74"></path>
                <path d="M448.217472,409.500982 C448.217472,398.108448 438.984012,388.872299 427.594796,388.872299 C416.205579,388.872299 406.972119,398.108448 406.972119,409.500982 C406.972119,420.893517 416.205579,430.129666 427.594796,430.129666 C438.984012,430.129666 448.217472,420.893517 448.217472,409.500982 Z" id="Shape" fill="#463C74"></path>
                <path d="M504.782528,406.554028 C504.782528,395.161493 495.549068,385.925344 484.159851,385.925344 C472.770634,385.925344 463.537175,395.161493 463.537175,406.554028 C463.537175,417.946562 472.770634,427.182711 484.159851,427.182711 C495.549068,427.182711 504.782528,417.946562 504.782528,406.554028 Z" id="Shape" fill="#463C74"></path>
                <path d="M504.782528,464.314342 C504.782528,452.921807 495.549068,443.685658 484.159851,443.685658 C472.770634,443.685658 463.537175,452.921807 463.537175,464.314342 C463.537175,475.706876 472.770634,484.943026 484.159851,484.943026 C495.549068,484.943026 504.782528,475.706876 504.782528,464.314342 Z" id="Shape" fill="#463C74"></path>
                <path d="M223.724907,1182.78193 C223.724907,1171.38939 214.491447,1162.15324 203.10223,1162.15324 C191.713014,1162.15324 182.479554,1171.38939 182.479554,1182.78193 C182.479554,1194.17446 191.713014,1203.41061 203.10223,1203.41061 C214.491447,1203.41061 223.724907,1194.17446 223.724907,1182.78193 Z" id="Shape" fill="#463C74"></path>
                <path d="M285.592937,1182.78193 C285.592937,1171.38939 276.359477,1162.15324 264.97026,1162.15324 C253.581043,1162.15324 244.347584,1171.38939 244.347584,1182.78193 C244.347584,1194.17446 253.581043,1203.41061 264.97026,1203.41061 C276.359477,1203.41061 285.592937,1194.17446 285.592937,1182.78193 Z" id="Shape" fill="#FD6234"></path>
                <path d="M471.786245,1181.60314 C471.786245,1170.21061 462.552786,1160.97446 451.163569,1160.97446 C439.774352,1160.97446 430.540892,1170.21061 430.540892,1181.60314 C430.540892,1192.99568 439.774352,1202.23183 451.163569,1202.23183 C462.552786,1202.23183 471.786245,1192.99568 471.786245,1181.60314 Z" id="Shape" fill="#463C74"></path>
                <path d="M399.901487,92.9980354 C399.901487,81.6052259 390.668027,72.3693517 379.27881,72.3693517 C367.889594,72.3693517 358.656134,81.6052259 358.656134,92.9980354 C358.656134,104.390982 367.889594,113.626719 379.27881,113.626719 C390.668027,113.626719 399.901487,104.390982 399.901487,92.9980354 Z" id="Shape" fill="#FD6234"></path>
                <path d="M455.288104,92.9980354 C455.288104,81.6050884 446.054644,72.3693517 434.665428,72.3693517 C423.276211,72.3693517 414.042751,81.6050884 414.042751,92.9980354 C414.042751,104.390982 423.276211,113.626719 434.665428,113.626719 C446.054644,113.626719 455.288104,104.390982 455.288104,92.9980354 Z" id="Shape" fill="#FD6234"></path>
                <path d="M200.198221,184.889445 C181.254474,184.889445 165.897238,169.47633 165.897238,150.463654 C165.897238,131.450841 181.254474,116.037864 200.198221,116.037864 C211.564194,116.037864 220.77881,106.790133 220.77881,95.3823897 C220.77881,83.9746467 211.564194,74.7269155 200.198221,74.7269155 C158.521155,74.7269155 124.736059,108.635355 124.736059,150.463654 C124.736059,192.292366 158.521155,226.200393 200.198221,226.200393 C211.564194,226.200393 220.77881,216.952249 220.77881,205.544919 C220.77881,194.137589 211.564194,184.889445 200.198221,184.889445 Z" id="Shape" fill="#FFC735"></path>
                <path d="M97.6319703,392.998035 C150.024568,392.998035 192.496283,435.482122 192.496283,487.88998 C192.496283,499.282515 201.729742,508.518664 213.118959,508.518664 C224.508176,508.518664 233.741636,499.282515 233.741636,487.88998 C233.741636,412.697053 172.803001,351.740668 97.6319703,351.740668 C86.242341,351.740668 77.0092937,360.976817 77.0092937,372.369352 C77.0092937,383.761886 86.242341,392.998035 97.6319703,392.998035 Z" id="Shape" fill="#FD6234"></path>
                <path d="M101.167286,508.518664 C101.167286,497.12613 91.934239,487.88998 80.5446097,487.88998 C69.1549804,487.88998 59.9219331,497.12613 59.9219331,508.518664 C59.9219331,519.911198 69.1549804,529.147348 80.5446097,529.147348 C91.934239,529.147348 101.167286,519.911198 101.167286,508.518664 Z" id="Shape" fill="#FD6234"></path>
                <path d="M1001.49442,899.284872 C1001.49442,910.677407 992.260964,919.913556 980.871747,919.913556 C969.48253,919.913556 960.249071,910.677407 960.249071,899.284872 C960.249071,887.892338 969.48253,878.656189 980.871747,878.656189 C992.260964,878.656189 1001.49442,887.892338 1001.49442,899.284872 Z" id="Shape" fill="#463C74"></path>
                <path d="M1056.29182,899.284872 C1056.29182,910.677407 1047.05836,919.913556 1035.66914,919.913556 C1024.27993,919.913556 1015.04647,910.677407 1015.04647,899.284872 C1015.04647,887.892338 1024.27993,878.656189 1035.66914,878.656189 C1047.05836,878.656189 1056.29182,887.892338 1056.29182,899.284872 Z" id="Shape" fill="#463C74"></path>
                <path d="M719.258364,767.261297 C719.258364,778.653831 710.024905,787.88998 698.635688,787.88998 C687.246471,787.88998 678.013011,778.653831 678.013011,767.261297 C678.013011,755.868762 687.246471,746.632613 698.635688,746.632613 C710.024905,746.632613 719.258364,755.868762 719.258364,767.261297 Z" id="Shape" fill="#FD6234"></path>
                <path d="M720.436803,1014.8055 C720.436803,1026.19804 711.203343,1035.43418 699.814126,1035.43418 C688.42491,1035.43418 679.19145,1026.19804 679.19145,1014.8055 C679.19145,1003.41297 688.42491,994.176817 699.814126,994.176817 C711.203343,994.176817 720.436803,1003.41297 720.436803,1014.8055 Z" id="Shape" fill="#FD6234"></path>
                <path d="M950.300897,200.267191 C926.994367,200.267191 907.877064,219.290963 907.877064,243.034578 C907.877064,266.776817 926.994367,285.800589 950.300897,285.800589 C1034.99432,285.800589 1103.42937,354.765029 1103.42937,439.559921 C1103.42937,450.952456 1094.18057,460.188605 1082.77243,460.188605 C1071.3643,460.188605 1062.1155,450.952456 1062.1155,439.559921 C1062.1155,377.303929 1011.93155,327.057957 950.300897,327.057957 C903.93159,327.057957 866.563197,289.315717 866.563197,243.034578 C866.563197,196.752063 903.93159,159.009823 950.300897,159.009823 C961.71041,159.009823 970.957831,168.245972 970.957831,179.638507 C970.957831,191.031041 961.71041,200.267191 950.300897,200.267191 Z" id="Shape" fill="#FFC735"></path>
                <path d="M1061.5948,439.60633 C1061.5948,502.229807 1011.53531,552.630169 950.232342,552.630169 C938.843125,552.630169 929.609665,561.887097 929.609665,573.305261 C929.609665,584.723426 938.843125,593.980354 950.232342,593.980354 C1034.71657,593.980354 1102.84015,524.662282 1102.84015,439.60633 C1102.84015,428.188166 1093.60669,418.931238 1082.21747,418.931238 C1070.82826,418.931238 1061.5948,428.188166 1061.5948,439.60633 Z" id="Shape" fill="#FD6234"></path>
                <path d="M1082.21747,460.188605 C1070.82826,460.188605 1061.5948,450.952456 1061.5948,439.559921 C1061.5948,428.167387 1070.82826,418.931238 1082.21747,418.931238 C1093.60669,418.931238 1102.84015,428.167387 1102.84015,439.559921 C1102.84015,450.952456 1093.60669,460.188605 1082.21747,460.188605 Z" id="Shape" fill="#463C74"></path>
                <path d="M801.749071,314.609037 C813.138287,314.609037 822.371747,323.859076 822.371747,335.268742 L822.371747,424.794127 C822.371747,436.203793 813.138287,445.453831 801.749071,445.453831 C790.359854,445.453831 781.126394,436.203793 781.126394,424.794127 L781.126394,335.268742 C781.126394,323.859076 790.359854,314.609037 801.749071,314.609037 Z" id="Shape" fill="#B4D51E"></path>
                <path d="M463.496817,198.519202 C463.496817,275.306837 401.266866,337.554916 324.501591,337.554916 C313.10123,337.554916 303.858736,346.800102 303.858736,358.203784 C303.858736,369.607466 313.10123,378.852652 324.501591,378.852652 C424.067587,378.852652 504.782528,298.114201 504.782528,198.519202 C504.782528,187.115521 495.540033,177.870334 484.139673,177.870334 C472.739312,177.870334 463.496817,187.115521 463.496817,198.519202 Z" id="Shape" fill="#B4D51E"></path>
                <path d="M1142.90706,242.70334 C1142.90706,254.095874 1133.6568,263.332024 1122.24686,263.332024 L947.323775,263.332024 C935.913832,263.332024 926.663569,254.095874 926.663569,242.70334 C926.663569,231.310806 935.913832,222.074656 947.323775,222.074656 L1122.24686,222.074656 C1133.6568,222.074656 1142.90706,231.310806 1142.90706,242.70334 Z" id="Shape" fill="#E5E0D5" fill-rule="nonzero"></path>
                <path d="M504.782528,198.499018 C504.782528,187.106483 495.549068,177.870334 484.159851,177.870334 C472.770634,177.870334 463.537175,187.106483 463.537175,198.499018 C463.537175,209.891552 472.770634,219.127701 484.159851,219.127701 C495.549068,219.127701 504.782528,209.891552 504.782528,198.499018 Z" id="Shape" fill="#FD6234"></path>
                <path d="M1101.51352,198.350786 C1093.45968,206.406974 1080.4014,206.406974 1072.34893,198.350786 C1064.29509,190.294597 1064.29509,177.232515 1072.34893,169.177701 C1080.4014,161.121513 1093.45968,161.121513 1101.51352,169.177701 C1109.56736,177.232515 1109.56736,190.294597 1101.51352,198.350786 Z" id="Shape" fill="#463C74"></path>
                <path d="M961.279321,136.464584 C953.225478,144.520974 940.167199,144.520974 932.114731,136.464584 C924.060889,128.408607 924.060889,115.347469 932.114731,107.291492 C940.167199,99.2355145 953.225478,99.2355145 961.279321,107.291492 C969.333163,115.347469 969.333163,128.408607 961.279321,136.464584 Z" id="Shape" fill="#463C74"></path>
                <path d="M1,644.667976 C1,633.275442 10.2330885,624.039293 21.6226766,624.039293 L87.6152416,624.039293 C99.0048709,624.039293 108.237918,633.275442 108.237918,644.667976 C108.237918,656.060511 99.0048709,665.29666 87.6152416,665.29666 L21.6226766,665.29666 C10.2330885,665.29666 1,656.060511 1,644.667976 Z" id="Shape" fill="#463C74"></path>
                <path d="M657.390335,1199.28487 C646.001118,1199.28487 636.767658,1190.0668 636.767658,1178.69656 L636.767658,1119.67672 C636.767658,1108.30648 646.001118,1099.08841 657.390335,1099.08841 C668.779551,1099.08841 678.013011,1108.30648 678.013011,1119.67672 L678.013011,1178.69656 C678.013011,1190.0668 668.779551,1199.28487 657.390335,1199.28487 Z" id="Shape" fill="#B4D51E"></path>
                <path d="M756.379182,1182.78193 C756.379182,1171.38939 765.621495,1162.15324 777.021631,1162.15324 L940.78506,1162.15324 C952.185197,1162.15324 961.427509,1171.38939 961.427509,1182.78193 C961.427509,1194.17446 952.185197,1203.41061 940.78506,1203.41061 L777.021631,1203.41061 C765.621495,1203.41061 756.379182,1194.17446 756.379182,1182.78193 Z" id="Shape" fill="#FFC735"></path>
                <path d="M1,35.237721 C1,23.8447741 10.2330895,14.6090373 21.6226774,14.6090373 L116.486989,14.6090373 C127.876618,14.6090373 137.109665,23.8447741 137.109665,35.237721 C137.109665,46.630668 127.876618,55.8664047 116.486989,55.8664047 L21.6226774,55.8664047 C10.2330895,55.8664047 1,46.630668 1,35.237721 Z" id="Shape" fill="#FD6234"></path>
                <path d="M946.107807,1203.41061 C934.71859,1203.41061 925.48513,1194.17446 925.48513,1182.78193 C925.48513,1171.38939 934.71859,1162.15324 946.107807,1162.15324 C957.497024,1162.15324 966.730483,1171.38939 966.730483,1182.78193 C966.730483,1194.17446 957.497024,1203.41061 946.107807,1203.41061 Z" id="Shape" fill="#FD6234"></path>
                <path d="M886.03981,145.389063 C851.165329,145.389063 822.896217,173.667782 822.896217,208.551048 C822.896217,219.925698 813.677253,229.147348 802.305915,229.147348 C790.933205,229.147348 781.715613,219.925698 781.715613,208.551048 C781.715613,150.91711 828.422654,104.196464 886.03981,104.196464 C897.411147,104.196464 906.630112,113.417702 906.630112,124.792763 C906.630112,136.167825 897.411147,145.389063 886.03981,145.389063 Z" id="Shape" fill="#FD6234"></path>
                <path d="M787.755995,193.932122 C795.808463,185.875933 808.866742,185.875933 816.920585,193.932122 C824.974427,201.98831 824.974427,215.049018 816.920585,223.105206 C808.866742,231.161395 795.808463,231.161395 787.755995,223.105206 C779.702153,215.049018 779.702153,201.98831 787.755995,193.932122 Z" id="Shape" fill="#463C74"></path>
                <path d="M1196.52602,797.320236 C1269.41893,797.320236 1328.51115,738.210806 1328.51115,665.29666 C1328.51115,653.904126 1337.74461,644.667976 1349.13383,644.667976 C1360.52305,644.667976 1369.75651,653.904126 1369.75651,665.29666 C1369.75651,760.99725 1292.19874,838.577603 1196.52602,838.577603 C1185.13681,838.577603 1175.90335,829.341454 1175.90335,817.948919 C1175.90335,806.556385 1185.13681,797.320236 1196.52602,797.320236 Z" id="Shape" fill="#B4D51E"></path>
                <path d="M1363.71612,679.883202 C1355.66228,687.939391 1342.604,687.939391 1334.55153,679.883202 C1326.49769,671.827014 1326.49769,658.764931 1334.55153,650.710118 C1342.604,642.653929 1355.66228,642.653929 1363.71612,650.710118 C1371.76997,658.764931 1371.76997,671.827014 1363.71612,679.883202 Z" id="Shape" fill="#463C74"></path>
                <path d="M1422.04678,679.883202 C1413.99018,687.939391 1400.92915,687.939391 1392.88631,679.883202 C1384.82972,671.827014 1384.82972,658.764931 1392.88631,650.710118 C1400.92915,642.653929 1413.99018,642.653929 1422.04678,650.710118 C1430.10337,658.764931 1430.10337,671.827014 1422.04678,679.883202 Z" id="Shape" fill="#463C74"></path>
                <path d="M1560.04068,757.309009 C1461.16564,757.309009 1381.01901,837.483111 1381.01901,936.382823 C1381.01901,947.793958 1371.77048,957.045187 1360.36267,957.045187 C1348.95485,957.045187 1339.70632,947.793958 1339.70632,936.382823 C1339.70632,814.659464 1438.34726,715.984283 1560.04068,715.984283 C1571.44298,715.984283 1580.69703,725.235512 1580.69703,736.646646 C1580.69703,748.057781 1571.44298,757.309009 1560.04068,757.309009 Z" id="Shape" fill="#FFC735"></path>
                <path d="M1142.90706,242.599507 C1142.96454,253.992271 1133.77901,263.275367 1122.38819,263.332024 C1110.99874,263.389514 1101.71973,254.201313 1101.66171,242.807173 C1101.60424,231.414408 1110.79114,222.132688 1122.18058,222.074656 C1133.57003,222.017166 1142.85042,231.206742 1142.90706,242.599507 Z" id="Shape" fill="#FD6234"></path>
                <path d="M1331.45725,33.3653045 C1331.51472,44.758117 1322.3292,54.040477 1310.93838,54.0982318 C1299.54893,54.1555851 1290.26991,44.9666043 1290.2119,33.5737918 C1290.15442,22.1811168 1299.34132,12.8987568 1310.73077,12.8408644 C1322.12022,12.7835112 1331.40061,21.9726295 1331.45725,33.3653045 Z" id="Shape" fill="#FD6234"></path>
                <path d="M1142.90706,35.1334774 C1142.96454,46.5262899 1133.77901,55.8086499 1122.38819,55.8664047 C1110.99874,55.923758 1101.71973,46.7347771 1101.66171,35.3419647 C1101.60424,23.9492897 1110.79114,14.6669297 1122.18058,14.6090373 C1133.57003,14.5516841 1142.85042,23.7408024 1142.90706,35.1334774 Z" id="Shape" fill="#FD6234"></path>
                <path d="M1142.90706,89.9468369 C1142.96454,101.339649 1133.77901,110.622009 1122.38819,110.679764 C1110.99874,110.737118 1101.71973,101.548137 1101.66171,90.1553242 C1101.60424,78.7626492 1110.79114,69.4802892 1122.18058,69.4223969 C1133.57003,69.3650436 1142.85042,78.554162 1142.90706,89.9468369 Z" id="Shape" fill="#FD6234"></path>
                <path d="M1549.45194,685.925344 L1467.58337,685.925344 C1456.19057,685.925344 1446.94424,676.689194 1446.94424,665.29666 C1446.94424,653.904126 1456.19057,644.667976 1467.58337,644.667976 L1549.45194,644.667976 C1560.84475,644.667976 1570.09108,653.904126 1570.09108,665.29666 C1570.09108,676.689194 1560.84475,685.925344 1549.45194,685.925344 Z" id="Shape" fill="#E5E0D5" fill-rule="nonzero"></path>
                <path d="M1580.69703,736.612967 C1580.69703,748.005501 1571.45807,757.24165 1560.07435,757.24165 C1548.69063,757.24165 1539.45167,748.005501 1539.45167,736.612967 C1539.45167,725.220432 1548.69063,715.984283 1560.07435,715.984283 C1571.45807,715.984283 1580.69703,725.220432 1580.69703,736.612967 Z" id="Shape" fill="#FD6234"></path>
                <path d="M1344.95573,187.595285 C1344.95573,168.582609 1329.5471,153.169495 1310.53996,153.169495 C1291.53282,153.169495 1276.1242,168.582609 1276.1242,187.595285 C1276.1242,206.60796 1291.53282,222.021075 1310.53996,222.021075 C1321.94397,222.021075 1331.18942,231.26922 1331.18942,242.676549 C1331.18942,254.083879 1321.94397,263.332024 1310.53996,263.332024 C1268.72343,263.332024 1234.82528,229.423997 1234.82528,187.595285 C1234.82528,145.766573 1268.72343,111.858546 1310.53996,111.858546 C1352.35649,111.858546 1386.25465,145.766573 1386.25465,187.595285 C1386.25465,199.002615 1377.00369,208.250759 1365.60519,208.250759 C1354.20118,208.250759 1344.95573,199.002615 1344.95573,187.595285 Z" id="Shape" fill="#463C74"></path>
                <path d="M1451.11086,45.3109484 C1432.163,45.3109484 1416.80988,60.7239255 1416.80988,79.7367387 C1416.80988,98.7495519 1432.163,114.162529 1451.11086,114.162529 C1462.47135,114.162529 1471.69145,123.41026 1471.69145,134.818003 C1471.69145,146.225333 1462.47135,155.473477 1451.11086,155.473477 C1409.42831,155.473477 1375.6487,121.565038 1375.6487,79.7367387 C1375.6487,37.9084395 1409.42831,4 1451.11086,4 C1462.47135,4 1471.69145,13.2477725 1471.69145,24.6554742 C1471.69145,36.0632172 1462.47135,45.3109484 1451.11086,45.3109484 Z" id="Shape" fill="#E5E0D5" fill-rule="nonzero"></path>
                <path d="M1332.63569,242.70334 C1332.63569,254.095874 1323.40223,263.332024 1312.01301,263.332024 C1300.62379,263.332024 1291.39033,254.095874 1291.39033,242.70334 C1291.39033,231.310806 1300.62379,222.074656 1312.01301,222.074656 C1323.40223,222.074656 1332.63569,231.310806 1332.63569,242.70334 Z" id="Shape" fill="#FD6234"></path>
                <path d="M1472.86989,134.844794 C1472.86989,146.237328 1463.63093,155.473477 1452.24721,155.473477 C1440.86349,155.473477 1431.62454,146.237328 1431.62454,134.844794 C1431.62454,123.451847 1440.86349,114.21611 1452.24721,114.21611 C1463.63093,114.21611 1472.86989,123.451847 1472.86989,134.844794 Z" id="Shape" fill="#463C74"></path>
                <path d="M1388.0223,242.70334 C1388.0223,254.095874 1378.78335,263.332024 1367.39963,263.332024 C1356.01041,263.332024 1346.77695,254.095874 1346.77695,242.70334 C1346.77695,231.310806 1356.01041,222.074656 1367.39963,222.074656 C1378.78335,222.074656 1388.0223,231.310806 1388.0223,242.70334 Z" id="Shape" fill="#463C74"></path>
                <path d="M1442.8197,242.70334 C1442.8197,254.095874 1433.58074,263.332024 1422.19703,263.332024 C1410.81331,263.332024 1401.57435,254.095874 1401.57435,242.70334 C1401.57435,231.310806 1410.81331,222.074656 1422.19703,222.074656 C1433.58074,222.074656 1442.8197,231.310806 1442.8197,242.70334 Z" id="Shape" fill="#463C74"></path>
                <path d="M1474.63755,78.8526523 C1474.63755,90.2455992 1465.39859,99.481336 1454.01487,99.481336 C1442.63115,99.481336 1433.39219,90.2455992 1433.39219,78.8526523 C1433.39219,67.4597053 1442.63115,58.2239686 1454.01487,58.2239686 C1465.39859,58.2239686 1474.63755,67.4597053 1474.63755,78.8526523 Z" id="Shape" fill="#FD6234"></path>
                <path d="M1529.43494,78.8526523 C1529.43494,90.2455992 1520.19599,99.481336 1508.81227,99.481336 C1497.42855,99.481336 1488.18959,90.2455992 1488.18959,78.8526523 C1488.18959,67.4597053 1497.42855,58.2239686 1508.81227,58.2239686 C1520.19599,58.2239686 1529.43494,67.4597053 1529.43494,78.8526523 Z" id="Shape" fill="#FD6234"></path>
                <path d="M1584.82156,78.8526523 C1584.82156,90.2455992 1575.5826,99.481336 1564.19888,99.481336 C1552.81517,99.481336 1543.57621,90.2455992 1543.57621,78.8526523 C1543.57621,67.4597053 1552.81517,58.2239686 1564.19888,58.2239686 C1575.5826,58.2239686 1584.82156,67.4597053 1584.82156,78.8526523 Z" id="Shape" fill="#FD6234"></path>
                <path d="M1509.40149,446.632613 C1498.01777,446.632613 1488.77881,437.396464 1488.77881,426.003929 C1488.77881,414.611395 1498.01777,405.375246 1509.40149,405.375246 C1520.7852,405.375246 1530.02416,414.611395 1530.02416,426.003929 C1530.02416,437.396464 1520.7852,446.632613 1509.40149,446.632613 Z" id="Shape" fill="#463C74"></path>
                <rect id="Rectangle" fill-opacity="0.48208042" fill="#000000" x="0.410780669" y="0.821218075" width="1597" height="1203"></rect>
            </g>
        </g>
    </g>
</svg>