<?xml version="1.0" encoding="UTF-8"?>
<svg width="650px" height="175px" viewBox="0 0 650 175" version="1.1" xmlns="http://www.w3.org/2000/svg" xmlns:xlink="http://www.w3.org/1999/xlink">
    <!-- Generator: Sketch 59.1 (86144) - https://sketch.com -->
    <title>3341885</title>
    <desc>Created with Sketch.</desc>
    <defs>
        <path d="M49.5,126 C54.9,113.615 58.191,97.185 58.191,81.598 C58.191,36.559 32.202,0.048 0.144,0.048 L0.144,125.878 L49.5,126" id="path-1"></path>
        <path d="M0.523,70.1 L60.648,70.725 L112.929,70.754 C107.82,64.908 68.816,17.042 64.293,2.671 C63.838,1.609 62.795,0.918 61.639,0.914 L51.877,0.881 C50.275,0.903 48.859,1.896 48.28,3.39 C41.527,20.815 0.523,70.1 0.523,70.1" id="path-3"></path>
        <path d="M22.543,11.894 C22.543,17.97 17.619,22.894 11.543,22.894 C5.468,22.894 0.543,17.97 0.543,11.894 C0.543,5.819 5.468,0.894 11.543,0.894 C17.619,0.894 22.543,5.819 22.543,11.894 L22.543,11.894 Z" id="path-5"></path>
        <polygon id="path-7" points="0.058 0.922 13.644 0.922 13.644 72.706 0.058 72.706"></polygon>
        <polygon id="path-9" points="0.058 0.104 13.644 0.104 13.644 13.092 0.058 13.092"></polygon>
        <polyline id="path-11" points="21.828 16.327 0.387 12.825 2.415 0.413 23.856 3.915 21.828 16.327"></polyline>
        <polyline id="path-13" points="49.849 0.661 99.501 73.068 0.197 73.068 49.849 0.661"></polyline>
        <polyline id="path-15" points="31.947 0.124 63.63 42.87 0.263 42.87 31.947 0.124"></polyline>
        <path d="M44.801,0.909 L36.205,0.909 C37.235,61.694 0.725,111.147 0.725,111.147 L12.573,111.147 C14.162,99.119 19.846,92.39 25.71,88.626 C34.683,82.865 46.355,82.865 55.328,88.626 C61.192,92.39 66.876,99.119 68.465,111.147 L80.313,111.147 C80.313,111.147 43.771,61.694 44.801,0.909" id="path-17"></path>
        <path d="M50.535,5.239 L2.503,5.239 C1.204,5.239 0.142,4.176 0.142,2.878 C0.142,1.579 1.204,0.517 2.503,0.517 L50.535,0.517 C51.834,0.517 52.896,1.579 52.896,2.878 C52.896,4.176 51.834,5.239 50.535,5.239" id="path-19"></path>
        <path d="M24.986,5.048 L3.33,5.048 C2.032,5.048 0.97,3.986 0.97,2.687 C0.97,1.389 2.032,0.327 3.33,0.327 L24.986,0.327 C26.285,0.327 27.347,1.389 27.347,2.687 C27.347,3.986 26.285,5.048 24.986,5.048" id="path-21"></path>
        <polygon id="path-23" points="0.858 0.894974094 45.7940259 0.894974094 45.7940259 9.206 0.858 9.206"></polygon>
    </defs>
    <g id="3341885" stroke="none" stroke-width="1" fill="none" fill-rule="evenodd" opacity="0.2265625">
        <g id="Group" transform="translate(1.023000, 0.891000)">
            <line x1="67.306" y1="75.023" x2="100.731" y2="75.023" id="Fill-2" fill="#FFFFFE"></line>
            <line x1="67.306" y1="75.023" x2="100.731" y2="75.023" id="Stroke-3" stroke="#131514" stroke-width="1.5" stroke-linecap="round" stroke-linejoin="round"></line>
            <path d="M90.315,70.894 C89.285,63.619 82.553,58.555 75.277,59.585 C75.176,59.599 75.079,59.626 74.978,59.643 C71.954,55.494 66.801,53.106 61.363,53.875 C53.514,54.986 48.052,62.249 49.163,70.098" id="Fill-4" fill="#FFFFFE"></path>
            <path d="M90.315,70.894 C89.285,63.619 82.553,58.555 75.277,59.585 C75.176,59.599 75.079,59.626 74.978,59.643 C71.954,55.494 66.801,53.106 61.363,53.875 C53.514,54.986 48.052,62.249 49.163,70.098" id="Stroke-5" stroke="#131514" stroke-width="1.5" stroke-linecap="round" stroke-linejoin="round"></path>
            <line x1="63.562" y1="75.03" x2="52.437" y2="75.03" id="Fill-6" fill="#FFFFFE"></line>
            <line x1="63.562" y1="75.03" x2="52.437" y2="75.03" id="Stroke-7" stroke="#131514" stroke-width="1.5" stroke-linecap="round" stroke-linejoin="round"></line>
            <path d="M105.312,74.613 C105.312,75.373 104.697,75.988 103.937,75.988 C103.178,75.988 102.562,75.373 102.562,74.613 C102.562,73.854 103.178,73.238 103.937,73.238 C104.697,73.238 105.312,73.854 105.312,74.613" id="Fill-8" fill="#131514"></path>
            <path d="M253.292,26.547 C253.292,20.163 248.883,14.956 243.319,14.57 C241.323,11.042 237.834,8.697 233.854,8.697 C232.37,8.697 230.957,9.03 229.66,9.62 C228.439,4.098 224.033,0 218.769,0 C213.544,0 209.166,4.035 207.906,9.494 C206.548,8.835 205.053,8.468 203.481,8.468 C199.501,8.468 196.012,10.813 194.015,14.341 C188.452,14.727 184.042,19.934 184.042,26.318" id="Fill-9" fill="#FFFFFE"></path>
            <path d="M253.292,26.547 C253.292,20.163 248.883,14.956 243.319,14.57 C241.323,11.042 237.834,8.697 233.854,8.697 C232.37,8.697 230.957,9.03 229.66,9.62 C228.439,4.098 224.033,0 218.769,0 C213.544,0 209.166,4.035 207.906,9.494 C206.548,8.835 205.053,8.468 203.481,8.468 C199.501,8.468 196.012,10.813 194.015,14.341 C188.452,14.727 184.042,19.934 184.042,26.318" id="Stroke-10" stroke="#131514" stroke-width="1.5" stroke-linecap="round" stroke-linejoin="round"></path>
            <line x1="213.547" y1="30.197" x2="256.047" y2="30.197" id="Fill-11" fill="#FFFFFE"></line>
            <line x1="213.547" y1="30.197" x2="256.047" y2="30.197" id="Stroke-12" stroke="#131514" stroke-width="1.5" stroke-linecap="round" stroke-linejoin="round"></line>
            <line x1="202.854" y1="30.197" x2="210.354" y2="30.197" id="Fill-13" fill="#FFFFFE"></line>
            <line x1="202.854" y1="30.197" x2="210.354" y2="30.197" id="Stroke-14" stroke="#131514" stroke-width="1.5" stroke-linecap="round" stroke-linejoin="round"></line>
            <line x1="179.797" y1="30.197" x2="199.047" y2="30.197" id="Fill-15" fill="#FFFFFE"></line>
            <line x1="179.797" y1="30.197" x2="199.047" y2="30.197" id="Stroke-16" stroke="#131514" stroke-width="1.5" stroke-linecap="round" stroke-linejoin="round"></line>
            <path d="M261.354,30.197 C261.354,30.956 260.738,31.572 259.979,31.572 C259.219,31.572 258.604,30.956 258.604,30.197 C258.604,29.437 259.219,28.822 259.979,28.822 C260.738,28.822 261.354,29.437 261.354,30.197" id="Fill-17" fill="#131514"></path>
            <line x1="276.984" y1="62.023" x2="243.558" y2="62.023" id="Fill-18" fill="#FFFFFE"></line>
            <line x1="276.984" y1="62.023" x2="243.558" y2="62.023" id="Stroke-19" stroke="#131514" stroke-width="1.5" stroke-linecap="round" stroke-linejoin="round"></line>
            <line x1="280.728" y1="62.03" x2="291.853" y2="62.03" id="Fill-20" fill="#FFFFFE"></line>
            <line x1="280.728" y1="62.03" x2="291.853" y2="62.03" id="Stroke-21" stroke="#131514" stroke-width="1.5" stroke-linecap="round" stroke-linejoin="round"></line>
            <path d="M306.52,52.905 C306.52,48.28 302.771,44.53 298.145,44.53 C295.989,44.53 294.029,45.352 292.544,46.692 C290.339,43.638 286.951,41.445 282.926,40.875 C277.489,40.106 272.336,42.494 269.312,46.643 C269.211,46.626 269.114,46.599 269.012,46.585 C261.737,45.555 255.004,50.618 253.975,57.894" id="Fill-22" fill="#FFFFFE"></path>
            <path d="M306.52,52.905 C306.52,48.28 302.771,44.53 298.145,44.53 C295.989,44.53 294.029,45.352 292.544,46.692 C290.339,43.638 286.951,41.445 282.926,40.875 C277.489,40.106 272.336,42.494 269.312,46.643 C269.211,46.626 269.114,46.599 269.012,46.585 C261.737,45.555 255.004,50.618 253.975,57.894" id="Stroke-23" stroke="#131514" stroke-width="1.5" stroke-linecap="round" stroke-linejoin="round"></path>
            <path d="M240.395,61.78 C240.395,62.54 239.78,63.155 239.02,63.155 C238.261,63.155 237.645,62.54 237.645,61.78 C237.645,61.021 238.261,60.405 239.02,60.405 C239.78,60.405 240.395,61.021 240.395,61.78" id="Fill-24" fill="#131514"></path>
            <path d="M420.624,61.363 C419.99,54.08 413.885,48.363 406.437,48.363 C405.296,48.363 404.192,48.512 403.129,48.765 C403.151,48.382 403.187,48.002 403.187,47.613 C403.187,36.706 394.345,27.863 383.437,27.863 C374.89,27.863 367.633,33.303 364.883,40.9 C362.854,39.926 360.589,39.363 358.187,39.363 C349.627,39.363 342.687,46.303 342.687,54.863 C342.687,57.188 343.213,59.385 344.13,61.363" id="Fill-25" fill="#FFFFFE"></path>
            <path d="M420.624,61.363 C419.99,54.08 413.885,48.363 406.437,48.363 C405.296,48.363 404.192,48.512 403.129,48.765 C403.151,48.382 403.187,48.002 403.187,47.613 C403.187,36.706 394.345,27.863 383.437,27.863 C374.89,27.863 367.633,33.303 364.883,40.9 C362.854,39.926 360.589,39.363 358.187,39.363 C349.627,39.363 342.687,46.303 342.687,54.863 C342.687,57.188 343.213,59.385 344.13,61.363" id="Stroke-26" stroke="#131514" stroke-width="1.49" stroke-linecap="round" stroke-linejoin="round"></path>
            <line x1="374.651" y1="65.357" x2="341.225" y2="65.357" id="Fill-27" fill="#FFFFFE"></line>
            <line x1="374.651" y1="65.357" x2="341.225" y2="65.357" id="Stroke-28" stroke="#131514" stroke-width="1.5" stroke-linecap="round" stroke-linejoin="round"></line>
            <line x1="378.394" y1="65.357" x2="389.519" y2="65.357" id="Fill-29" fill="#FFFFFE"></line>
            <line x1="378.394" y1="65.357" x2="389.519" y2="65.357" id="Stroke-30" stroke="#131514" stroke-width="1.5" stroke-linecap="round" stroke-linejoin="round"></line>
            <line x1="426.151" y1="65.357" x2="392.725" y2="65.357" id="Fill-31" fill="#FFFFFE"></line>
            <line x1="426.151" y1="65.357" x2="392.725" y2="65.357" id="Stroke-32" stroke="#131514" stroke-width="1.5" stroke-linecap="round" stroke-linejoin="round"></line>
            <path d="M431.437,65.363 C431.437,66.123 430.822,66.738 430.062,66.738 C429.303,66.738 428.687,66.123 428.687,65.363 C428.687,64.604 429.303,63.988 430.062,63.988 C430.822,63.988 431.437,64.604 431.437,65.363" id="Fill-33" fill="#131514"></path>
            <line x1="608.443" y1="98.204" x2="575.018" y2="98.204" id="Fill-34" fill="#FFFFFE"></line>
            <line x1="608.443" y1="98.204" x2="575.018" y2="98.204" id="Stroke-35" stroke="#131514" stroke-width="1.5" stroke-linecap="round" stroke-linejoin="round"></line>
            <path d="M620.315,94.894 C619.285,87.619 612.553,82.555 605.277,83.585 C605.176,83.599 605.079,83.626 604.978,83.643 C601.954,79.494 596.801,77.106 591.363,77.875 C583.514,78.986 578.052,86.249 579.163,94.098" id="Fill-36" fill="#FFFFFE"></path>
            <path d="M620.315,94.894 C619.285,87.619 612.553,82.555 605.277,83.585 C605.176,83.599 605.079,83.626 604.978,83.643 C601.954,79.494 596.801,77.106 591.363,77.875 C583.514,78.986 578.052,86.249 579.163,94.098" id="Stroke-37" stroke="#131514" stroke-width="1.5" stroke-linecap="round" stroke-linejoin="round"></path>
            <line x1="612.187" y1="98.197" x2="623.312" y2="98.197" id="Fill-38" fill="#FFFFFE"></line>
            <line x1="612.187" y1="98.197" x2="623.312" y2="98.197" id="Stroke-39" stroke="#131514" stroke-width="1.5" stroke-linecap="round" stroke-linejoin="round"></line>
            <path d="M570.437,98.613 C570.437,97.854 571.053,97.238 571.812,97.238 C572.572,97.238 573.187,97.854 573.187,98.613 C573.187,99.373 572.572,99.988 571.812,99.988 C571.053,99.988 570.437,99.373 570.437,98.613" id="Fill-40" fill="#131514"></path>
            <line x1="5.94" y1="82.807" x2="11.858" y2="82.807" id="Fill-41" fill="#FFFFFE"></line>
            <line x1="5.94" y1="82.807" x2="11.858" y2="82.807" id="Stroke-42" stroke="#131514" stroke-width="1.456" stroke-linecap="round" stroke-linejoin="round"></line>
            <line x1="8.925" y1="79.822" x2="8.925" y2="85.998" id="Fill-43" fill="#FFFFFE"></line>
            <line x1="8.925" y1="79.822" x2="8.925" y2="85.998" id="Stroke-44" stroke="#131514" stroke-width="1.456" stroke-linecap="round" stroke-linejoin="round"></line>
            <line x1="34.658" y1="53.472" x2="40.576" y2="53.472" id="Fill-45" fill="#FFFFFE"></line>
            <line x1="34.658" y1="53.472" x2="40.576" y2="53.472" id="Stroke-46" stroke="#131514" stroke-width="1.5" stroke-linecap="round" stroke-linejoin="round"></line>
            <line x1="37.643" y1="50.487" x2="37.643" y2="56.663" id="Fill-47" fill="#FFFFFE"></line>
            <line x1="37.643" y1="50.487" x2="37.643" y2="56.663" id="Stroke-48" stroke="#131514" stroke-width="1.5" stroke-linecap="round" stroke-linejoin="round"></line>
            <line x1="151.602" y1="62.03" x2="157.52" y2="62.03" id="Fill-49" fill="#FFFFFE"></line>
            <line x1="151.602" y1="62.03" x2="157.52" y2="62.03" id="Stroke-50" stroke="#131514" stroke-width="1.5" stroke-linecap="round" stroke-linejoin="round"></line>
            <line x1="154.587" y1="59.045" x2="154.587" y2="65.221" id="Fill-51" fill="#FFFFFE"></line>
            <line x1="154.587" y1="59.045" x2="154.587" y2="65.221" id="Stroke-52" stroke="#131514" stroke-width="1.5" stroke-linecap="round" stroke-linejoin="round"></line>
            <line x1="247.202" y1="43.015" x2="253.121" y2="43.015" id="Fill-53" fill="#FFFFFE"></line>
            <line x1="247.202" y1="43.015" x2="253.121" y2="43.015" id="Stroke-54" stroke="#131514" stroke-width="1.5" stroke-linecap="round" stroke-linejoin="round"></line>
            <line x1="250.187" y1="40.03" x2="250.187" y2="46.206" id="Fill-55" fill="#FFFFFE"></line>
            <line x1="250.187" y1="40.03" x2="250.187" y2="46.206" id="Stroke-56" stroke="#131514" stroke-width="1.5" stroke-linecap="round" stroke-linejoin="round"></line>
            <line x1="346.202" y1="98.348" x2="352.121" y2="98.348" id="Fill-57" fill="#FFFFFE"></line>
            <line x1="346.202" y1="98.348" x2="352.121" y2="98.348" id="Stroke-58" stroke="#131514" stroke-width="1.5" stroke-linecap="round" stroke-linejoin="round"></line>
            <line x1="349.187" y1="95.363" x2="349.187" y2="101.539" id="Fill-59" fill="#FFFFFE"></line>
            <line x1="349.187" y1="95.363" x2="349.187" y2="101.539" id="Stroke-60" stroke="#131514" stroke-width="1.5" stroke-linecap="round" stroke-linejoin="round"></line>
            <line x1="391.935" y1="98.03" x2="397.854" y2="98.03" id="Fill-61" fill="#FFFFFE"></line>
            <line x1="391.935" y1="98.03" x2="397.854" y2="98.03" id="Stroke-62" stroke="#131514" stroke-width="1.5" stroke-linecap="round" stroke-linejoin="round"></line>
            <line x1="394.92" y1="95.045" x2="394.92" y2="101.221" id="Fill-63" fill="#FFFFFE"></line>
            <line x1="394.92" y1="95.045" x2="394.92" y2="101.221" id="Stroke-64" stroke="#131514" stroke-width="1.5" stroke-linecap="round" stroke-linejoin="round"></line>
            <line x1="175.869" y1="16.348" x2="181.787" y2="16.348" id="Fill-65" fill="#FFFFFE"></line>
            <line x1="175.869" y1="16.348" x2="181.787" y2="16.348" id="Stroke-66" stroke="#131514" stroke-width="1.5" stroke-linecap="round" stroke-linejoin="round"></line>
            <line x1="178.854" y1="13.363" x2="178.854" y2="19.539" id="Fill-67" fill="#FFFFFE"></line>
            <line x1="178.854" y1="13.363" x2="178.854" y2="19.539" id="Stroke-68" stroke="#131514" stroke-width="1.5" stroke-linecap="round" stroke-linejoin="round"></line>
            <line x1="430.202" y1="110.348" x2="436.121" y2="110.348" id="Fill-69" fill="#FFFFFE"></line>
            <line x1="430.202" y1="110.348" x2="436.121" y2="110.348" id="Stroke-70" stroke="#131514" stroke-width="1.5" stroke-linecap="round" stroke-linejoin="round"></line>
            <line x1="433.187" y1="107.363" x2="433.187" y2="113.539" id="Fill-71" fill="#FFFFFE"></line>
            <line x1="433.187" y1="107.363" x2="433.187" y2="113.539" id="Stroke-72" stroke="#131514" stroke-width="1.5" stroke-linecap="round" stroke-linejoin="round"></line>
            <line x1="527.02" y1="94.53" x2="532.939" y2="94.53" id="Fill-73" fill="#FFFFFE"></line>
            <line x1="527.02" y1="94.53" x2="532.939" y2="94.53" id="Stroke-74" stroke="#131514" stroke-width="1.5" stroke-linecap="round" stroke-linejoin="round"></line>
            <line x1="530.006" y1="91.545" x2="530.006" y2="97.721" id="Fill-75" fill="#FFFFFE"></line>
            <line x1="530.006" y1="91.545" x2="530.006" y2="97.721" id="Stroke-76" stroke="#131514" stroke-width="1.5" stroke-linecap="round" stroke-linejoin="round"></line>
            <line x1="642.035" y1="133.839" x2="647.954" y2="133.839" id="Fill-77" fill="#FFFFFE"></line>
            <line x1="642.035" y1="133.839" x2="647.954" y2="133.839" id="Stroke-78" stroke="#131514" stroke-width="1.5" stroke-linecap="round" stroke-linejoin="round"></line>
            <line x1="645.02" y1="130.854" x2="645.02" y2="137.03" id="Fill-79" fill="#FFFFFE"></line>
            <line x1="645.02" y1="130.854" x2="645.02" y2="137.03" id="Stroke-80" stroke="#131514" stroke-width="1.5" stroke-linecap="round" stroke-linejoin="round"></line>
            <line x1="545.213" y1="39.53" x2="587.713" y2="39.53" id="Fill-81" fill="#FFFFFE"></line>
            <line x1="545.213" y1="39.53" x2="587.713" y2="39.53" id="Stroke-82" stroke="#131514" stroke-width="1.5" stroke-linecap="round" stroke-linejoin="round"></line>
            <line x1="534.52" y1="39.53" x2="542.02" y2="39.53" id="Fill-83" fill="#FFFFFE"></line>
            <line x1="534.52" y1="39.53" x2="542.02" y2="39.53" id="Stroke-84" stroke="#131514" stroke-width="1.5" stroke-linecap="round" stroke-linejoin="round"></line>
            <line x1="511.463" y1="39.53" x2="530.713" y2="39.53" id="Fill-85" fill="#FFFFFE"></line>
            <line x1="511.463" y1="39.53" x2="530.713" y2="39.53" id="Stroke-86" stroke="#131514" stroke-width="1.5" stroke-linecap="round" stroke-linejoin="round"></line>
            <path d="M593.02,39.53 C593.02,40.29 592.405,40.905 591.645,40.905 C590.886,40.905 590.27,40.29 590.27,39.53 C590.27,38.771 590.886,38.155 591.645,38.155 C592.405,38.155 593.02,38.771 593.02,39.53" id="Fill-87" fill="#131514"></path>
            <line x1="58.27" y1="15.53" x2="15.77" y2="15.53" id="Fill-88" fill="#FFFFFE"></line>
            <line x1="58.27" y1="15.53" x2="15.77" y2="15.53" id="Stroke-89" stroke="#131514" stroke-width="1.5" stroke-linecap="round" stroke-linejoin="round"></line>
            <line x1="68.963" y1="15.53" x2="61.463" y2="15.53" id="Fill-90" fill="#FFFFFE"></line>
            <line x1="68.963" y1="15.53" x2="61.463" y2="15.53" id="Stroke-91" stroke="#131514" stroke-width="1.5" stroke-linecap="round" stroke-linejoin="round"></line>
            <line x1="92.02" y1="15.53" x2="72.77" y2="15.53" id="Fill-92" fill="#FFFFFE"></line>
            <line x1="92.02" y1="15.53" x2="72.77" y2="15.53" id="Stroke-93" stroke="#131514" stroke-width="1.5" stroke-linecap="round" stroke-linejoin="round"></line>
            <path d="M10.463,15.53 C10.463,14.771 11.079,14.155 11.838,14.155 C12.598,14.155 13.213,14.771 13.213,15.53 C13.213,16.29 12.598,16.905 11.838,16.905 C11.079,16.905 10.463,16.29 10.463,15.53" id="Fill-94" fill="#131514"></path>
            <polyline id="Fill-95" fill="#FFFFFE" points="306.821 18.827 309.56 21.175 312.332 18.697"></polyline>
            <polyline id="Stroke-96" stroke="#131514" stroke-width="1.5" stroke-linecap="round" stroke-linejoin="round" points="306.821 18.827 309.56 21.175 312.332 18.697"></polyline>
            <polyline id="Fill-97" fill="#FFFFFE" points="357.676 28.494 360.415 30.842 363.187 28.363"></polyline>
            <polyline id="Stroke-98" stroke="#131514" stroke-width="1.5" stroke-linecap="round" stroke-linejoin="round" points="357.676 28.494 360.415 30.842 363.187 28.363"></polyline>
            <polyline id="Fill-99" fill="#FFFFFE" points="176.01 38.494 178.749 40.842 181.52 38.363"></polyline>
            <polyline id="Stroke-100" stroke="#131514" stroke-width="1.5" stroke-linecap="round" stroke-linejoin="round" points="176.01 38.494 178.749 40.842 181.52 38.363"></polyline>
            <polyline id="Fill-101" fill="#FFFFFE" points="87.448 5.682 90.187 8.03 92.959 5.552"></polyline>
            <polyline id="Stroke-102" stroke="#131514" stroke-width="1.5" stroke-linecap="round" stroke-linejoin="round" points="87.448 5.682 90.187 8.03 92.959 5.552"></polyline>
            <polyline id="Fill-103" fill="#FFFFFE" points="316.52 13.03 319.26 15.378 322.031 12.9"></polyline>
            <polyline id="Stroke-104" stroke="#131514" stroke-width="1.5" stroke-linecap="round" stroke-linejoin="round" points="316.52 13.03 319.26 15.378 322.031 12.9"></polyline>
            <line x1="449.838" y1="29.407" x2="449.838" y2="49.253" id="Fill-105" fill="#FFFFFE"></line>
            <line x1="449.838" y1="29.407" x2="449.838" y2="49.253" id="Stroke-106" stroke="#131514" stroke-width="1.5" stroke-linecap="round" stroke-linejoin="round"></line>
            <path d="M502.477,167.109 C507.877,154.724 511.168,138.294 511.168,122.707 C511.168,77.668 485.179,41.157 453.121,41.157 L453.121,166.987 L502.477,167.109" id="Fill-107" fill="#FFFFFE"></path>
            <g id="Group-133" transform="translate(452.977000, 41.109000)">
                <mask id="mask-2" fill="white">
                    <use xlink:href="#path-1"></use>
                </mask>
                <g id="Clip-109"></g>
                <line x1="-1.544" y1="95.844" x2="57.444" y2="95.844" id="Fill-108" fill="#FFFFFE" mask="url(#mask-2)"></line>
                <line x1="-1.544" y1="95.844" x2="57.444" y2="95.844" id="Stroke-110" stroke="#131514" stroke-width="1.5" stroke-linecap="round" stroke-linejoin="round" mask="url(#mask-2)"></line>
                <line x1="-1.544" y1="102.887" x2="57.444" y2="102.887" id="Fill-111" fill="#FFFFFE" mask="url(#mask-2)"></line>
                <line x1="-1.544" y1="102.887" x2="57.444" y2="102.887" id="Stroke-112" stroke="#131514" stroke-width="1.5" stroke-linecap="round" stroke-linejoin="round" mask="url(#mask-2)"></line>
                <line x1="-1.544" y1="109.93" x2="57.444" y2="109.93" id="Fill-113" fill="#FFFFFE" mask="url(#mask-2)"></line>
                <line x1="-1.544" y1="109.93" x2="57.444" y2="109.93" id="Stroke-114" stroke="#131514" stroke-width="1.5" stroke-linecap="round" stroke-linejoin="round" mask="url(#mask-2)"></line>
                <line x1="-1.544" y1="116.973" x2="57.444" y2="116.973" id="Fill-115" fill="#FFFFFE" mask="url(#mask-2)"></line>
                <line x1="-1.544" y1="116.973" x2="57.444" y2="116.973" id="Stroke-116" stroke="#131514" stroke-width="1.5" stroke-linecap="round" stroke-linejoin="round" mask="url(#mask-2)"></line>
                <line x1="-0.649" y1="67.791" x2="58.339" y2="67.791" id="Fill-117" fill="#FFFFFE" mask="url(#mask-2)"></line>
                <line x1="-0.649" y1="67.791" x2="58.339" y2="67.791" id="Stroke-118" stroke="#131514" stroke-width="1.5" stroke-linecap="round" stroke-linejoin="round" mask="url(#mask-2)"></line>
                <line x1="-0.649" y1="74.834" x2="58.339" y2="74.834" id="Fill-119" fill="#FFFFFE" mask="url(#mask-2)"></line>
                <line x1="-0.649" y1="74.834" x2="58.339" y2="74.834" id="Stroke-120" stroke="#131514" stroke-width="1.5" stroke-linecap="round" stroke-linejoin="round" mask="url(#mask-2)"></line>
                <line x1="-0.649" y1="81.877" x2="58.339" y2="81.877" id="Fill-121" fill="#FFFFFE" mask="url(#mask-2)"></line>
                <line x1="-0.649" y1="81.877" x2="58.339" y2="81.877" id="Stroke-122" stroke="#131514" stroke-width="1.5" stroke-linecap="round" stroke-linejoin="round" mask="url(#mask-2)"></line>
                <line x1="-0.649" y1="88.92" x2="58.339" y2="88.92" id="Fill-123" fill="#FFFFFE" mask="url(#mask-2)"></line>
                <line x1="-0.649" y1="88.92" x2="58.339" y2="88.92" id="Stroke-124" stroke="#131514" stroke-width="1.5" stroke-linecap="round" stroke-linejoin="round" mask="url(#mask-2)"></line>
                <line x1="-1.246" y1="39.738" x2="57.742" y2="39.738" id="Fill-125" fill="#FFFFFE" mask="url(#mask-2)"></line>
                <line x1="-1.246" y1="39.738" x2="57.742" y2="39.738" id="Stroke-126" stroke="#131514" stroke-width="1.5" stroke-linecap="round" stroke-linejoin="round" mask="url(#mask-2)"></line>
                <line x1="-1.246" y1="46.781" x2="57.742" y2="46.781" id="Fill-127" fill="#FFFFFE" mask="url(#mask-2)"></line>
                <line x1="-1.246" y1="46.781" x2="57.742" y2="46.781" id="Stroke-128" stroke="#131514" stroke-width="1.5" stroke-linecap="round" stroke-linejoin="round" mask="url(#mask-2)"></line>
                <line x1="-1.246" y1="53.824" x2="57.742" y2="53.824" id="Fill-129" fill="#FFFFFE" mask="url(#mask-2)"></line>
                <line x1="-1.246" y1="53.824" x2="57.742" y2="53.824" id="Stroke-130" stroke="#131514" stroke-width="1.5" stroke-linecap="round" stroke-linejoin="round" mask="url(#mask-2)"></line>
                <line x1="-1.246" y1="60.867" x2="57.742" y2="60.867" id="Fill-131" fill="#FFFFFE" mask="url(#mask-2)"></line>
                <line x1="-1.246" y1="60.867" x2="57.742" y2="60.867" id="Stroke-132" stroke="#131514" stroke-width="1.5" stroke-linecap="round" stroke-linejoin="round" mask="url(#mask-2)"></line>
            </g>
            <path d="M502.477,167.109 C507.877,154.724 511.168,138.294 511.168,122.707 C511.168,77.668 485.179,41.157 453.121,41.157 L453.121,166.987 L502.477,167.109 Z" id="Stroke-134" stroke="#131514" stroke-width="1.5" stroke-linecap="round" stroke-linejoin="round"></path>
            <polygon id="Fill-135" fill="#FFFFFE" points="446.854 166.987 453.121 166.987 453.121 41.157 446.854 41.157"></polygon>
            <polygon id="Stroke-136" stroke="#131514" stroke-width="1.5" stroke-linecap="round" stroke-linejoin="round" points="446.854 166.987 453.121 166.987 453.121 41.157 446.854 41.157"></polygon>
            <path d="M494.214,77.754 C486.901,59.644 473.056,47.424 457.177,47.424 L457.177,77.754 L494.214,77.754" id="Fill-137" fill="#FFFFFE"></path>
            <path d="M494.214,77.754 C486.901,59.644 473.056,47.424 457.177,47.424 L457.177,77.754 L494.214,77.754 Z M460.88,37.763 C460.88,37.763 499.976,40.449 512.808,95.362 L460.88,37.763 Z" id="Stroke-138" stroke="#131514" stroke-width="1.5" stroke-linecap="round" stroke-linejoin="round"></path>
            <path d="M512.808,98.719 C512.808,98.039 513.36,97.488 514.039,97.488 C514.719,97.488 515.27,98.039 515.27,98.719 C515.27,99.399 514.719,99.95 514.039,99.95 C513.36,99.95 512.808,99.399 512.808,98.719" id="Fill-139" fill="#131514"></path>
            <path d="M251.854,98.03 C251.854,111.837 240.661,123.03 226.854,123.03 C213.047,123.03 201.854,111.837 201.854,98.03 C201.854,84.223 213.047,73.03 226.854,73.03 C240.661,73.03 251.854,84.223 251.854,98.03" id="Fill-140" fill="#FFFFFE"></path>
            <path d="M251.854,98.03 C251.854,111.837 240.661,123.03 226.854,123.03 C213.047,123.03 201.854,111.837 201.854,98.03 C201.854,84.223 213.047,73.03 226.854,73.03 C240.661,73.03 251.854,84.223 251.854,98.03 Z" id="Stroke-141" stroke="#131514" stroke-width="1.5" stroke-linecap="round" stroke-linejoin="round"></path>
            <path d="M148.5,165.209 L208.625,165.834 L260.906,165.863 C255.797,160.017 216.793,112.151 212.27,97.78 C211.815,96.718 210.772,96.027 209.616,96.023 L199.854,95.99 C198.252,96.012 196.836,97.005 196.257,98.499 C189.504,115.924 148.5,165.209 148.5,165.209" id="Fill-142" fill="#FFFFFE"></path>
            <g id="Group-146" transform="translate(147.977000, 95.109000)">
                <mask id="mask-4" fill="white">
                    <use xlink:href="#path-3"></use>
                </mask>
                <g id="Clip-144"></g>
                <path d="M47.951,0.193 L41.907,10.454 C40.995,12.001 42.532,13.836 44.215,13.211 L47.56,11.969 C48.298,11.694 49.129,11.902 49.652,12.492 L54.505,17.966 C55.307,18.871 56.737,18.811 57.461,17.842 L60.613,13.624 C61.101,12.971 61.949,12.7 62.724,12.949 L69.671,15.177 C70.744,15.521 71.88,14.865 72.119,13.764 L73.19,8.816 C73.319,8.218 73.154,7.595 72.746,7.139 L65.291,-1.183 C64.896,-1.624 64.318,-1.857 63.727,-1.812 L49.452,-0.742 C48.829,-0.695 48.268,-0.346 47.951,0.193" id="Fill-143" fill="#FFFFFE" mask="url(#mask-4)"></path>
                <path d="M47.951,0.193 L41.907,10.454 C40.995,12.001 42.532,13.836 44.215,13.211 L47.56,11.969 C48.298,11.694 49.129,11.902 49.652,12.492 L54.505,17.966 C55.307,18.871 56.737,18.811 57.461,17.842 L60.613,13.624 C61.101,12.971 61.949,12.7 62.724,12.949 L69.671,15.177 C70.744,15.521 71.88,14.865 72.119,13.764 L73.19,8.816 C73.319,8.218 73.154,7.595 72.746,7.139 L65.291,-1.183 C64.896,-1.624 64.318,-1.857 63.727,-1.812 L49.452,-0.742 C48.829,-0.695 48.268,-0.346 47.951,0.193 Z" id="Stroke-145" stroke="#131514" stroke-width="1.5" stroke-linecap="round" stroke-linejoin="round" mask="url(#mask-4)"></path>
            </g>
            <path d="M148.5,165.209 L208.625,165.834 L260.906,165.863 C255.797,160.017 216.793,112.151 212.27,97.78 C211.815,96.718 210.772,96.027 209.616,96.023 L199.854,95.99 C198.252,96.012 196.836,97.005 196.257,98.499 C189.504,115.924 148.5,165.209 148.5,165.209" id="Stroke-147" stroke="#131514" stroke-width="1.5" stroke-linecap="round" stroke-linejoin="round"></path>
            <polygon id="Fill-148" fill="#FFFFFE" points="112.971 52.723 121.477 52.723 121.477 38.057 112.971 38.057"></polygon>
            <polygon id="Stroke-149" stroke="#131514" stroke-width="1.5" stroke-linecap="round" stroke-linejoin="round" points="112.971 52.723 121.477 52.723 121.477 38.057 112.971 38.057"></polygon>
            <polyline id="Fill-150" fill="#FFFFFE" points="124.03 164.459 110.418 165.363 113.377 65.923 121.959 65.923 124.03 164.459"></polyline>
            <polygon id="Stroke-151" stroke="#131514" stroke-width="1.5" stroke-linecap="round" stroke-linejoin="round" points="124.03 164.459 110.418 165.363 113.377 65.923 121.959 65.923"></polygon>
            <path d="M123.35,78.683 L112.13,78.683 C111.344,78.683 110.7,78.04 110.7,77.253 C110.7,76.467 111.344,75.823 112.13,75.823 L123.35,75.823 C124.137,75.823 124.78,76.467 124.78,77.253 C124.78,78.04 124.137,78.683 123.35,78.683" id="Fill-152" fill="#FFFFFE"></path>
            <path d="M123.35,78.683 L112.13,78.683 C111.344,78.683 110.7,78.04 110.7,77.253 C110.7,76.467 111.344,75.823 112.13,75.823 L123.35,75.823 C124.137,75.823 124.78,76.467 124.78,77.253 C124.78,78.04 124.137,78.683 123.35,78.683 Z" id="Stroke-153" stroke="#131514" stroke-width="1.5" stroke-linecap="round" stroke-linejoin="round"></path>
            <path d="M123.35,75.493 L112.13,75.493 C111.344,75.493 110.7,74.85 110.7,74.063 C110.7,73.277 111.344,72.633 112.13,72.633 L123.35,72.633 C124.137,72.633 124.78,73.277 124.78,74.063 C124.78,74.85 124.137,75.493 123.35,75.493" id="Fill-154" fill="#FFFFFE"></path>
            <path d="M123.35,75.493 L112.13,75.493 C111.344,75.493 110.7,74.85 110.7,74.063 C110.7,73.277 111.344,72.633 112.13,72.633 L123.35,72.633 C124.137,72.633 124.78,73.277 124.78,74.063 C124.78,74.85 124.137,75.493 123.35,75.493 Z" id="Stroke-155" stroke="#131514" stroke-width="1.5" stroke-linecap="round" stroke-linejoin="round"></path>
            <path d="M128.52,58.003 C128.52,64.079 123.596,69.003 117.52,69.003 C111.445,69.003 106.52,64.079 106.52,58.003 C106.52,51.928 111.445,47.003 117.52,47.003 C123.596,47.003 128.52,51.928 128.52,58.003" id="Fill-156" fill="#FFFFFE"></path>
            <g id="Group-160" transform="translate(105.977000, 46.109000)">
                <mask id="mask-6" fill="white">
                    <use xlink:href="#path-5"></use>
                </mask>
                <g id="Clip-158"></g>
                <polygon id="Fill-157" fill="#FFFFFE" mask="url(#mask-6)" points="0.543 16.588 22.543 16.588 22.543 7.201 0.543 7.201"></polygon>
                <polygon id="Stroke-159" stroke="#131514" stroke-width="1.5" stroke-linecap="round" stroke-linejoin="round" mask="url(#mask-6)" points="-4.15 16.588 26.357 16.588 26.357 7.201 -4.15 7.201"></polygon>
            </g>
            <path d="M128.52,58.003 C128.52,64.079 123.596,69.003 117.52,69.003 C111.445,69.003 106.52,64.079 106.52,58.003 C106.52,51.928 111.445,47.003 117.52,47.003 C123.596,47.003 128.52,51.928 128.52,58.003 Z" id="Stroke-161" stroke="#131514" stroke-width="1.5" stroke-linecap="round" stroke-linejoin="round"></path>
            <polyline id="Fill-162" fill="#FFFFFE" points="117.398 3.121 122.013 37.818 112.782 37.818 117.398 3.121"></polyline>
            <polygon id="Stroke-163" stroke="#131514" stroke-width="1.5" stroke-linecap="round" stroke-linejoin="round" points="117.398 3.121 122.013 37.818 112.782 37.818"></polygon>
            <path d="M123.35,40.147 L112.13,40.147 C111.344,40.147 110.7,39.503 110.7,38.717 C110.7,37.93 111.344,37.287 112.13,37.287 L123.35,37.287 C124.137,37.287 124.78,37.93 124.78,38.717 C124.78,39.503 124.137,40.147 123.35,40.147" id="Fill-164" fill="#FFFFFE"></path>
            <path d="M123.35,40.147 L112.13,40.147 C111.344,40.147 110.7,39.503 110.7,38.717 C110.7,37.93 111.344,37.287 112.13,37.287 L123.35,37.287 C124.137,37.287 124.78,37.93 124.78,38.717 C124.78,39.503 124.137,40.147 123.35,40.147 Z" id="Stroke-165" stroke="#131514" stroke-width="1.5" stroke-linecap="round" stroke-linejoin="round"></path>
            <line x1="112.866" y1="22.999" x2="121.836" y2="22.999" id="Fill-166" fill="#FFFFFE"></line>
            <line x1="112.866" y1="22.999" x2="121.836" y2="22.999" id="Stroke-167" stroke="#131514" stroke-width="1.5" stroke-linecap="round" stroke-linejoin="round"></line>
            <line x1="112.866" y1="30.245" x2="121.836" y2="30.245" id="Fill-168" fill="#FFFFFE"></line>
            <line x1="112.866" y1="30.245" x2="121.836" y2="30.245" id="Stroke-169" stroke="#131514" stroke-width="1.5" stroke-linecap="round" stroke-linejoin="round"></line>
            <line x1="125.395" y1="81.03" x2="126.27" y2="132.155" id="Fill-170" fill="#FFFFFE"></line>
            <line x1="125.395" y1="81.03" x2="126.27" y2="132.155" id="Stroke-171" stroke="#131514" stroke-width="1.5" stroke-linecap="round" stroke-linejoin="round"></line>
            <path d="M127.602,136.362 C127.602,136.959 127.118,137.443 126.52,137.443 C125.923,137.443 125.439,136.959 125.439,136.362 C125.439,135.764 125.923,135.28 126.52,135.28 C127.118,135.28 127.602,135.764 127.602,136.362" id="Fill-172" fill="#131514"></path>
            <polygon id="Fill-173" fill="#FFFFFE" points="17.11 159.815 38.547 159.815 38.547 88.031 17.11 88.031"></polygon>
            <g id="Group-183" transform="translate(20.977000, 87.109000)">
                <mask id="mask-8" fill="white">
                    <use xlink:href="#path-7"></use>
                </mask>
                <g id="Clip-175"></g>
                <line x1="0.558" y1="-1.955" x2="0.558" y2="72.35" id="Fill-174" fill="#FFFFFE" mask="url(#mask-8)"></line>
                <line x1="0.558" y1="-1.955" x2="0.558" y2="72.35" id="Stroke-176" stroke="#131514" stroke-width="1.5" stroke-linecap="round" stroke-linejoin="round" mask="url(#mask-8)"></line>
                <line x1="4.753" y1="-2.295" x2="4.753" y2="72.011" id="Fill-177" fill="#FFFFFE" mask="url(#mask-8)"></line>
                <line x1="4.753" y1="-2.295" x2="4.753" y2="72.011" id="Stroke-178" stroke="#131514" stroke-width="1.5" stroke-linecap="round" stroke-linejoin="round" mask="url(#mask-8)"></line>
                <line x1="8.949" y1="-1.277" x2="8.949" y2="73.029" id="Fill-179" fill="#FFFFFE" mask="url(#mask-8)"></line>
                <line x1="8.949" y1="-1.277" x2="8.949" y2="73.029" id="Stroke-180" stroke="#131514" stroke-width="1.5" stroke-linecap="round" stroke-linejoin="round" mask="url(#mask-8)"></line>
                <line x1="13.144" y1="-1.616" x2="13.144" y2="72.69" id="Fill-181" fill="#FFFFFE" mask="url(#mask-8)"></line>
                <line x1="13.144" y1="-1.616" x2="13.144" y2="72.69" id="Stroke-182" stroke="#131514" stroke-width="1.5" stroke-linecap="round" stroke-linejoin="round" mask="url(#mask-8)"></line>
            </g>
            <polygon id="Stroke-184" stroke="#131514" stroke-width="1.5" stroke-linecap="round" stroke-linejoin="round" points="17.11 159.815 38.547 159.815 38.547 88.031 17.11 88.031"></polygon>
            <polygon id="Fill-185" fill="#FFFFFE" points="16.04 116.449 39.443 116.449 39.443 93.046 16.04 93.046"></polygon>
            <polygon id="Stroke-186" stroke="#131514" stroke-width="1.5" stroke-linecap="round" stroke-linejoin="round" points="16.04 116.449 39.443 116.449 39.443 93.046 16.04 93.046"></polygon>
            <path d="M36.445,104.773 C36.445,109.579 32.548,113.475 27.742,113.475 C22.936,113.475 19.039,109.579 19.039,104.773 C19.039,99.966 22.936,96.07 27.742,96.07 C32.548,96.07 36.445,99.966 36.445,104.773" id="Fill-187" fill="#FFFFFE"></path>
            <path d="M36.445,104.773 C36.445,109.579 32.548,113.475 27.742,113.475 C22.936,113.475 19.039,109.579 19.039,104.773 C19.039,99.966 22.936,96.07 27.742,96.07 C32.548,96.07 36.445,99.966 36.445,104.773 Z" id="Stroke-188" stroke="#131514" stroke-width="1.5" stroke-linecap="round" stroke-linejoin="round"></path>
            <polyline id="Fill-189" fill="#FFFFFE" points="27.742 99.659 27.816 105.338 30.889 107.599"></polyline>
            <polyline id="Stroke-190" stroke="#131514" stroke-width="1.5" stroke-linecap="round" stroke-linejoin="round" points="27.742 99.659 27.816 105.338 30.889 107.599"></polyline>
            <line x1="15.635" y1="128.151" x2="40.021" y2="128.151" id="Fill-191" fill="#FFFFFE"></line>
            <line x1="15.635" y1="128.151" x2="40.021" y2="128.151" id="Stroke-192" stroke="#131514" stroke-width="1.5" stroke-linecap="round" stroke-linejoin="round"></line>
            <line x1="15.635" y1="136.018" x2="40.021" y2="136.018" id="Fill-193" fill="#FFFFFE"></line>
            <line x1="15.635" y1="136.018" x2="40.021" y2="136.018" id="Stroke-194" stroke="#131514" stroke-width="1.5" stroke-linecap="round" stroke-linejoin="round"></line>
            <line x1="15.635" y1="143.885" x2="40.021" y2="143.885" id="Fill-195" fill="#FFFFFE"></line>
            <line x1="15.635" y1="143.885" x2="40.021" y2="143.885" id="Stroke-196" stroke="#131514" stroke-width="1.5" stroke-linecap="round" stroke-linejoin="round"></line>
            <line x1="15.635" y1="151.751" x2="40.021" y2="151.751" id="Fill-197" fill="#FFFFFE"></line>
            <line x1="15.635" y1="151.751" x2="40.021" y2="151.751" id="Stroke-198" stroke="#131514" stroke-width="1.5" stroke-linecap="round" stroke-linejoin="round"></line>
            <polygon id="Fill-199" fill="#FFFFFE" points="15.94 93.046 39.516 93.046 39.516 90.793 15.94 90.793"></polygon>
            <polygon id="Stroke-200" stroke="#131514" stroke-width="1.5" stroke-linecap="round" stroke-linejoin="round" points="15.94 93.046 39.516 93.046 39.516 90.793 15.94 90.793"></polygon>
            <polygon id="Fill-201" fill="#FFFFFE" points="15.94 118.416 39.516 118.416 39.516 116.163 15.94 116.163"></polygon>
            <polygon id="Stroke-202" stroke="#131514" stroke-width="1.5" stroke-linecap="round" stroke-linejoin="round" points="15.94 118.416 39.516 118.416 39.516 116.163 15.94 116.163"></polygon>
            <polyline id="Fill-203" fill="#FFFFFE" points="39.581 118.416 39.581 90.793 41.834 90.793 41.834 118.392 39.581 118.416"></polyline>
            <polygon id="Stroke-204" stroke="#131514" stroke-width="1.5" stroke-linecap="round" stroke-linejoin="round" points="39.581 118.416 39.581 90.793 41.834 90.793 41.834 118.392"></polygon>
            <polygon id="Fill-205" fill="#FFFFFE" points="13.57 164.535 42.087 164.535 42.087 159.618 13.57 159.618"></polygon>
            <polygon id="Stroke-206" stroke="#131514" stroke-width="1.5" stroke-linecap="round" stroke-linejoin="round" points="13.57 164.535 42.087 164.535 42.087 159.618 13.57 159.618"></polygon>
            <polygon id="Fill-207" fill="#FFFFFE" points="18.808 86.201 36.822 86.201 36.822 73.213 18.808 73.213"></polygon>
            <g id="Group-217" transform="translate(20.977000, 73.109000)">
                <mask id="mask-10" fill="white">
                    <use xlink:href="#path-9"></use>
                </mask>
                <g id="Clip-209"></g>
                <line x1="0.558" y1="-1.789" x2="0.558" y2="14.75" id="Fill-208" fill="#FFFFFE" mask="url(#mask-10)"></line>
                <line x1="0.558" y1="-1.789" x2="0.558" y2="14.75" id="Stroke-210" stroke="#131514" stroke-width="1.5" stroke-linecap="round" stroke-linejoin="round" mask="url(#mask-10)"></line>
                <line x1="4.753" y1="-1.865" x2="4.753" y2="14.675" id="Fill-211" fill="#FFFFFE" mask="url(#mask-10)"></line>
                <line x1="4.753" y1="-1.865" x2="4.753" y2="14.675" id="Stroke-212" stroke="#131514" stroke-width="1.5" stroke-linecap="round" stroke-linejoin="round" mask="url(#mask-10)"></line>
                <line x1="8.949" y1="-1.638" x2="8.949" y2="14.901" id="Fill-213" fill="#FFFFFE" mask="url(#mask-10)"></line>
                <line x1="8.949" y1="-1.638" x2="8.949" y2="14.901" id="Stroke-214" stroke="#131514" stroke-width="1.5" stroke-linecap="round" stroke-linejoin="round" mask="url(#mask-10)"></line>
                <line x1="13.144" y1="-1.714" x2="13.144" y2="14.826" id="Fill-215" fill="#FFFFFE" mask="url(#mask-10)"></line>
                <line x1="13.144" y1="-1.714" x2="13.144" y2="14.826" id="Stroke-216" stroke="#131514" stroke-width="1.5" stroke-linecap="round" stroke-linejoin="round" mask="url(#mask-10)"></line>
            </g>
            <polygon id="Stroke-218" stroke="#131514" stroke-width="1.5" stroke-linecap="round" stroke-linejoin="round" points="18.808 86.201 36.822 86.201 36.822 73.213 18.808 73.213"></polygon>
            <polyline id="Fill-219" fill="#FFFFFE" points="38.546 88.031 17.097 87.952 18.57 80.198 36.961 80.164 38.546 88.031"></polyline>
            <polygon id="Stroke-220" stroke="#131514" stroke-width="1.5" stroke-linecap="round" stroke-linejoin="round" points="38.546 88.031 17.097 87.952 18.57 80.198 36.961 80.164"></polygon>
            <polyline id="Fill-221" fill="#FFFFFE" points="27.814 57.725 36.741 73.187 18.887 73.187 27.814 57.725"></polyline>
            <polygon id="Stroke-222" stroke="#131514" stroke-width="1.5" stroke-linecap="round" stroke-linejoin="round" points="27.814 57.725 36.741 73.187 18.887 73.187"></polygon>
            <line x1="27.814" y1="57.725" x2="27.814" y2="46.338" id="Fill-223" fill="#FFFFFE"></line>
            <line x1="27.814" y1="57.725" x2="27.814" y2="46.338" id="Stroke-224" stroke="#131514" stroke-width="1.5" stroke-linecap="round" stroke-linejoin="round"></line>
            <polyline id="Fill-225" fill="#FFFFFE" points="13.621 118.416 13.621 90.793 15.874 90.793 15.874 118.392 13.621 118.416"></polyline>
            <polygon id="Stroke-226" stroke="#131514" stroke-width="1.5" stroke-linecap="round" stroke-linejoin="round" points="13.621 118.416 13.621 90.793 15.874 90.793 15.874 118.392"></polygon>
            <polygon id="Fill-227" fill="#FFFFFE" points="47.771 165.169 123.27 165.169 123.27 158.34 47.771 158.34"></polygon>
            <polygon id="Stroke-228" stroke="#131514" stroke-width="1.5" stroke-linecap="round" stroke-linejoin="round" points="47.771 165.169 123.27 165.169 123.27 158.34 47.771 158.34"></polygon>
            <polygon id="Fill-229" fill="#FFFFFE" points="52.372 158.34 118.669 158.34 118.669 151.51 52.372 151.51"></polygon>
            <polygon id="Stroke-230" stroke="#131514" stroke-width="1.5" stroke-linecap="round" stroke-linejoin="round" points="52.372 158.34 118.669 158.34 118.669 151.51 52.372 151.51"></polygon>
            <polygon id="Fill-231" fill="#FFFFFE" points="56.676 151.51 114.365 151.51 114.365 144.681 56.676 144.681"></polygon>
            <polygon id="Stroke-232" stroke="#131514" stroke-width="1.5" stroke-linecap="round" stroke-linejoin="round" points="56.676 151.51 114.365 151.51 114.365 144.681 56.676 144.681"></polygon>
            <polygon id="Fill-233" fill="#FFFFFE" points="61.242 144.681 109.799 144.681 109.799 137.852 61.242 137.852"></polygon>
            <polygon id="Stroke-234" stroke="#131514" stroke-width="1.5" stroke-linecap="round" stroke-linejoin="round" points="61.242 144.681 109.799 144.681 109.799 137.852 61.242 137.852"></polygon>
            <polygon id="Fill-235" fill="#FFFFFE" points="67.208 137.852 103.833 137.852 103.833 131.023 67.208 131.023"></polygon>
            <polygon id="Stroke-236" stroke="#131514" stroke-width="1.5" stroke-linecap="round" stroke-linejoin="round" points="67.208 137.852 103.833 137.852 103.833 131.023 67.208 131.023"></polygon>
            <polygon id="Fill-237" fill="#FFFFFE" points="71.016 130.928 100.025 130.928 100.025 124.099 71.016 124.099"></polygon>
            <polygon id="Stroke-238" stroke="#131514" stroke-width="1.5" stroke-linecap="round" stroke-linejoin="round" points="71.016 130.928 100.025 130.928 100.025 124.099 71.016 124.099"></polygon>
            <polygon id="Fill-239" fill="#FFFFFE" points="74.804 124.099 96.237 124.099 96.237 117.27 74.804 117.27"></polygon>
            <polygon id="Stroke-240" stroke="#131514" stroke-width="1.5" stroke-linecap="round" stroke-linejoin="round" points="74.804 124.099 96.237 124.099 96.237 117.27 74.804 117.27"></polygon>
            <polygon id="Fill-241" fill="#FFFFFE" points="75.972 117.238 95.069 117.238 95.069 106.362 75.972 106.362"></polygon>
            <polygon id="Stroke-242" stroke="#131514" stroke-width="1.5" stroke-linecap="round" stroke-linejoin="round" points="75.972 117.238 95.069 117.238 95.069 106.362 75.972 106.362"></polygon>
            <polygon id="Fill-243" fill="#FFFFFE" points="82.752 117.254 88.343 117.254 88.343 111.563 82.752 111.563"></polygon>
            <polygon id="Stroke-244" stroke="#131514" stroke-width="1.5" stroke-linecap="round" stroke-linejoin="round" points="82.752 117.254 88.343 117.254 88.343 111.563 82.752 111.563"></polygon>
            <polygon id="Fill-245" fill="#FFFFFE" points="78.06 165.282 92.981 165.282 92.981 117.112 78.06 117.112"></polygon>
            <polygon id="Stroke-246" stroke="#131514" stroke-width="1.5" stroke-linecap="round" stroke-linejoin="round" points="78.06 165.282 92.981 165.282 92.981 117.112 78.06 117.112"></polygon>
            <line x1="74.718" y1="108.604" x2="96.168" y2="108.544" id="Fill-247" fill="#FFFFFE"></line>
            <line x1="74.718" y1="108.604" x2="96.168" y2="108.544" id="Stroke-248" stroke="#131514" stroke-width="1.5" stroke-linecap="round" stroke-linejoin="round"></line>
            <polygon id="Fill-249" fill="#FFFFFE" points="78.06 165.282 80.832 165.282 80.832 117.112 78.06 117.112"></polygon>
            <polygon id="Stroke-250" stroke="#131514" stroke-width="1.5" stroke-linecap="round" stroke-linejoin="round" points="78.06 165.282 80.832 165.282 80.832 117.112 78.06 117.112"></polygon>
            <polygon id="Fill-251" fill="#FFFFFE" points="90.074 165.282 92.846 165.282 92.846 117.112 90.074 117.112"></polygon>
            <polygon id="Stroke-252" stroke="#131514" stroke-width="1.5" stroke-linecap="round" stroke-linejoin="round" points="90.074 165.282 92.846 165.282 92.846 117.112 90.074 117.112"></polygon>
            <polyline id="Fill-253" fill="#FFFFFE" points="320.785 170.667 290.634 165.742 301.009 102.223 331.161 107.148 320.785 170.667"></polyline>
            <polygon id="Stroke-254" stroke="#131514" stroke-width="1.5" stroke-linecap="round" stroke-linejoin="round" points="320.785 170.667 290.634 165.742 301.009 102.223 331.161 107.148"></polygon>
            <line x1="317.622" y1="96.253" x2="320.299" y2="81.613" id="Fill-255" fill="#FFFFFE"></line>
            <line x1="317.622" y1="96.253" x2="320.299" y2="81.613" id="Stroke-256" stroke="#131514" stroke-width="1.5" stroke-linecap="round" stroke-linejoin="round"></line>
            <polyline id="Fill-257" fill="#FFFFFE" points="326.805 106.436 305.364 102.934 307.392 90.522 328.833 94.024 326.805 106.436"></polyline>
            <g id="Group-263" transform="translate(304.977000, 90.109000)">
                <mask id="mask-12" fill="white">
                    <use xlink:href="#path-11"></use>
                </mask>
                <g id="Clip-259"></g>
                <path d="M9.288,14.357 L10.498,7.366 C10.739,5.892 9.73,4.489 8.256,4.248 C6.782,4.007 5.379,5.016 5.138,6.49 L3.927,13.481 L9.288,14.357" id="Fill-258" fill="#FFFFFE" mask="url(#mask-12)"></path>
                <path d="M9.288,14.357 L10.498,7.366 C10.739,5.892 9.73,4.489 8.256,4.248 C6.782,4.007 5.379,5.016 5.138,6.49 L3.927,13.481 L9.288,14.357 Z" id="Stroke-260" stroke="#131514" stroke-width="1.5" stroke-linecap="round" stroke-linejoin="round" mask="url(#mask-12)"></path>
                <path d="M18.484,15.859 L19.695,8.868 C19.935,7.394 18.926,5.991 17.452,5.75 C15.978,5.509 14.575,6.518 14.334,7.992 L13.124,14.983 L18.484,15.859" id="Fill-261" fill="#FFFFFE" mask="url(#mask-12)"></path>
                <path d="M18.484,15.859 L19.695,8.868 C19.935,7.394 18.926,5.991 17.452,5.75 C15.978,5.509 14.575,6.518 14.334,7.992 L13.124,14.983 L18.484,15.859 Z" id="Stroke-262" stroke="#131514" stroke-width="1.5" stroke-linecap="round" stroke-linejoin="round" mask="url(#mask-12)"></path>
            </g>
            <polygon id="Stroke-264" stroke="#131514" stroke-width="1.5" stroke-linecap="round" stroke-linejoin="round" points="326.805 106.436 305.364 102.934 307.392 90.522 328.833 94.024"></polygon>
            <path d="M299.104,167.16 L300.315,160.169 C300.556,158.695 299.547,157.292 298.072,157.051 C296.598,156.81 295.195,157.819 294.955,159.293 L293.744,166.284 L299.104,167.16" id="Fill-265" fill="#FFFFFE"></path>
            <path d="M299.104,167.16 L300.315,160.169 C300.556,158.695 299.547,157.292 298.072,157.051 C296.598,156.81 295.195,157.819 294.955,159.293 L293.744,166.284 L299.104,167.16 Z" id="Stroke-266" stroke="#131514" stroke-width="1.5" stroke-linecap="round" stroke-linejoin="round"></path>
            <path d="M308.3,168.662 L309.511,161.671 C309.752,160.197 308.743,158.794 307.269,158.553 C305.795,158.312 304.392,159.322 304.151,160.796 L302.94,167.787 L308.3,168.662" id="Fill-267" fill="#FFFFFE"></path>
            <path d="M308.3,168.662 L309.511,161.671 C309.752,160.197 308.743,158.794 307.269,158.553 C305.795,158.312 304.392,159.322 304.151,160.796 L302.94,167.787 L308.3,168.662 Z" id="Stroke-268" stroke="#131514" stroke-width="1.5" stroke-linecap="round" stroke-linejoin="round"></path>
            <path d="M317.497,170.164 L318.707,163.173 C318.948,161.699 317.939,160.296 316.465,160.055 C314.991,159.815 313.588,160.824 313.347,162.298 L312.136,169.289 L317.497,170.164" id="Fill-269" fill="#FFFFFE"></path>
            <path d="M317.497,170.164 L318.707,163.173 C318.948,161.699 317.939,160.296 316.465,160.055 C314.991,159.815 313.588,160.824 313.347,162.298 L312.136,169.289 L317.497,170.164 Z" id="Stroke-270" stroke="#131514" stroke-width="1.5" stroke-linecap="round" stroke-linejoin="round"></path>
            <path d="M323.945,158.743 L291.433,153.432 C290.8,153.329 290.368,152.727 290.471,152.095 C290.574,151.462 291.176,151.029 291.808,151.133 L324.32,156.443 C324.953,156.547 325.385,157.148 325.282,157.781 C325.179,158.413 324.577,158.846 323.945,158.743" id="Fill-271" fill="#FFFFFE"></path>
            <path d="M323.945,158.743 L291.433,153.432 C290.8,153.329 290.368,152.727 290.471,152.095 C290.574,151.462 291.176,151.029 291.808,151.133 L324.32,156.443 C324.953,156.547 325.385,157.148 325.282,157.781 C325.179,158.413 324.577,158.846 323.945,158.743 Z" id="Stroke-272" stroke="#131514" stroke-width="1.5" stroke-linecap="round" stroke-linejoin="round"></path>
            <path d="M301.646,152.441 L302.857,145.45 C303.097,143.976 302.088,142.573 300.614,142.332 C299.14,142.091 297.737,143.1 297.496,144.575 L296.286,151.566 L301.646,152.441" id="Fill-273" fill="#FFFFFE"></path>
            <path d="M301.646,152.441 L302.857,145.45 C303.097,143.976 302.088,142.573 300.614,142.332 C299.14,142.091 297.737,143.1 297.496,144.575 L296.286,151.566 L301.646,152.441 Z" id="Stroke-274" stroke="#131514" stroke-width="1.5" stroke-linecap="round" stroke-linejoin="round"></path>
            <path d="M310.842,153.943 L312.053,146.952 C312.294,145.478 311.285,144.075 309.811,143.834 C308.336,143.594 306.933,144.603 306.693,146.077 L305.482,153.068 L310.842,153.943" id="Fill-275" fill="#FFFFFE"></path>
            <path d="M310.842,153.943 L312.053,146.952 C312.294,145.478 311.285,144.075 309.811,143.834 C308.336,143.594 306.933,144.603 306.693,146.077 L305.482,153.068 L310.842,153.943 Z" id="Stroke-276" stroke="#131514" stroke-width="1.5" stroke-linecap="round" stroke-linejoin="round"></path>
            <path d="M320.038,155.445 L321.249,148.454 C321.49,146.98 320.481,145.577 319.007,145.336 C317.533,145.096 316.13,146.105 315.889,147.579 L314.678,154.57 L320.038,155.445" id="Fill-277" fill="#FFFFFE"></path>
            <path d="M320.038,155.445 L321.249,148.454 C321.49,146.98 320.481,145.577 319.007,145.336 C317.533,145.096 316.13,146.105 315.889,147.579 L314.678,154.57 L320.038,155.445 Z" id="Stroke-278" stroke="#131514" stroke-width="1.5" stroke-linecap="round" stroke-linejoin="round"></path>
            <path d="M326.016,143.534 L293.504,138.224 C292.872,138.121 292.439,137.519 292.542,136.886 C292.646,136.254 293.248,135.821 293.88,135.924 L326.392,141.235 C327.024,141.338 327.457,141.94 327.354,142.572 C327.25,143.205 326.648,143.638 326.016,143.534" id="Fill-279" fill="#FFFFFE"></path>
            <path d="M326.016,143.534 L293.504,138.224 C292.872,138.121 292.439,137.519 292.542,136.886 C292.646,136.254 293.248,135.821 293.88,135.924 L326.392,141.235 C327.024,141.338 327.457,141.94 327.354,142.572 C327.25,143.205 326.648,143.638 326.016,143.534 Z" id="Stroke-280" stroke="#131514" stroke-width="1.5" stroke-linecap="round" stroke-linejoin="round"></path>
            <path d="M303.717,137.233 L304.928,130.242 C305.169,128.768 304.16,127.364 302.686,127.124 C301.212,126.883 299.809,127.892 299.568,129.366 L298.357,136.357 L303.717,137.233" id="Fill-281" fill="#FFFFFE"></path>
            <path d="M303.717,137.233 L304.928,130.242 C305.169,128.768 304.16,127.364 302.686,127.124 C301.212,126.883 299.809,127.892 299.568,129.366 L298.357,136.357 L303.717,137.233 Z" id="Stroke-282" stroke="#131514" stroke-width="1.5" stroke-linecap="round" stroke-linejoin="round"></path>
            <path d="M312.914,138.735 L314.124,131.744 C314.365,130.27 313.356,128.867 311.882,128.626 C310.408,128.385 309.005,129.394 308.764,130.868 L307.553,137.859 L312.914,138.735" id="Fill-283" fill="#FFFFFE"></path>
            <path d="M312.914,138.735 L314.124,131.744 C314.365,130.27 313.356,128.867 311.882,128.626 C310.408,128.385 309.005,129.394 308.764,130.868 L307.553,137.859 L312.914,138.735 Z" id="Stroke-284" stroke="#131514" stroke-width="1.5" stroke-linecap="round" stroke-linejoin="round"></path>
            <path d="M322.11,140.237 L323.321,133.246 C323.561,131.772 322.552,130.369 321.078,130.128 C319.604,129.887 318.201,130.896 317.96,132.37 L316.75,139.361 L322.11,140.237" id="Fill-285" fill="#FFFFFE"></path>
            <path d="M322.11,140.237 L323.321,133.246 C323.561,131.772 322.552,130.369 321.078,130.128 C319.604,129.887 318.201,130.896 317.96,132.37 L316.75,139.361 L322.11,140.237 Z" id="Stroke-286" stroke="#131514" stroke-width="1.5" stroke-linecap="round" stroke-linejoin="round"></path>
            <path d="M328.867,127.765 L296.355,122.455 C295.723,122.351 295.29,121.75 295.393,121.117 C295.497,120.485 296.098,120.052 296.731,120.155 L329.243,125.466 C329.875,125.569 330.308,126.171 330.204,126.803 C330.101,127.436 329.499,127.869 328.867,127.765" id="Fill-287" fill="#FFFFFE"></path>
            <path d="M328.867,127.765 L296.355,122.455 C295.723,122.351 295.29,121.75 295.393,121.117 C295.497,120.485 296.098,120.052 296.731,120.155 L329.243,125.466 C329.875,125.569 330.308,126.171 330.204,126.803 C330.101,127.436 329.499,127.869 328.867,127.765 Z" id="Stroke-288" stroke="#131514" stroke-width="1.5" stroke-linecap="round" stroke-linejoin="round"></path>
            <path d="M306.568,121.463 L307.779,114.473 C308.02,112.998 307.011,111.595 305.537,111.355 C304.063,111.114 302.659,112.123 302.419,113.597 L301.208,120.588 L306.568,121.463" id="Fill-289" fill="#FFFFFE"></path>
            <path d="M306.568,121.463 L307.779,114.473 C308.02,112.998 307.011,111.595 305.537,111.355 C304.063,111.114 302.659,112.123 302.419,113.597 L301.208,120.588 L306.568,121.463 Z" id="Stroke-290" stroke="#131514" stroke-width="1.5" stroke-linecap="round" stroke-linejoin="round"></path>
            <path d="M315.765,122.966 L316.975,115.975 C317.216,114.501 316.207,113.098 314.733,112.857 C313.259,112.616 311.856,113.625 311.615,115.099 L310.404,122.09 L315.765,122.966" id="Fill-291" fill="#FFFFFE"></path>
            <path d="M315.765,122.966 L316.975,115.975 C317.216,114.501 316.207,113.098 314.733,112.857 C313.259,112.616 311.856,113.625 311.615,115.099 L310.404,122.09 L315.765,122.966 Z" id="Stroke-292" stroke="#131514" stroke-width="1.5" stroke-linecap="round" stroke-linejoin="round"></path>
            <path d="M324.961,124.468 L326.172,117.477 C326.412,116.003 325.403,114.6 323.929,114.359 C322.455,114.118 321.052,115.127 320.811,116.601 L319.601,123.592 L324.961,124.468" id="Fill-293" fill="#FFFFFE"></path>
            <path d="M324.961,124.468 L326.172,117.477 C326.412,116.003 325.403,114.6 323.929,114.359 C322.455,114.118 321.052,115.127 320.811,116.601 L319.601,123.592 L324.961,124.468 Z" id="Stroke-294" stroke="#131514" stroke-width="1.5" stroke-linecap="round" stroke-linejoin="round"></path>
            <path d="M331.975,108.736 L299.463,103.426 C298.831,103.322 298.398,102.72 298.501,102.088 C298.605,101.456 299.207,101.023 299.839,101.126 L332.351,106.437 C332.983,106.54 333.416,107.142 333.313,107.774 C333.209,108.407 332.607,108.84 331.975,108.736" id="Fill-295" fill="#FFFFFE"></path>
            <path d="M331.975,108.736 L299.463,103.426 C298.831,103.322 298.398,102.72 298.501,102.088 C298.605,101.456 299.207,101.023 299.839,101.126 L332.351,106.437 C332.983,106.54 333.416,107.142 333.313,107.774 C333.209,108.407 332.607,108.84 331.975,108.736 Z" id="Stroke-296" stroke="#131514" stroke-width="1.5" stroke-linecap="round" stroke-linejoin="round"></path>
            <path d="M328.881,95.023 L305.987,91.283 C305.355,91.18 304.922,90.578 305.025,89.946 C305.128,89.313 305.73,88.88 306.363,88.984 L329.257,92.723 C329.889,92.827 330.322,93.429 330.219,94.061 C330.115,94.693 329.513,95.126 328.881,95.023" id="Fill-297" fill="#FFFFFE"></path>
            <path d="M328.881,95.023 L305.987,91.283 C305.355,91.18 304.922,90.578 305.025,89.946 C305.128,89.313 305.73,88.88 306.363,88.984 L329.257,92.723 C329.889,92.827 330.322,93.429 330.219,94.061 C330.115,94.693 329.513,95.126 328.881,95.023 Z" id="Stroke-298" stroke="#131514" stroke-width="1.5" stroke-linecap="round" stroke-linejoin="round"></path>
            <polygon id="Fill-299" fill="#FFFFFE" points="284.965 173.979 328.348 173.979 328.348 165.628 284.965 165.628"></polygon>
            <polyline id="Fill-300" fill="#FFFFFE" points="408.826 93.77 458.478 166.177 359.174 166.177 408.826 93.77"></polyline>
            <g id="Group-312" transform="translate(358.977000, 93.109000)">
                <mask id="mask-14" fill="white">
                    <use xlink:href="#path-13"></use>
                </mask>
                <g id="Clip-302"></g>
                <line x1="49.849" y1="0.661" x2="63.973" y2="72.506" id="Fill-301" fill="#FFFFFE" mask="url(#mask-14)"></line>
                <line x1="49.849" y1="0.661" x2="63.973" y2="72.506" id="Stroke-303" stroke="#131514" stroke-width="1.5" stroke-linecap="round" stroke-linejoin="round" mask="url(#mask-14)"></line>
                <line x1="59.993" y1="30.796" x2="44.293" y2="30.796" id="Fill-304" fill="#FFFFFE" mask="url(#mask-14)"></line>
                <line x1="59.993" y1="30.796" x2="44.293" y2="30.796" id="Stroke-305" stroke="#131514" stroke-width="1.5" stroke-linecap="round" stroke-linejoin="round" mask="url(#mask-14)"></line>
                <line x1="62.141" y1="27.671" x2="46.442" y2="27.671" id="Fill-306" fill="#FFFFFE" mask="url(#mask-14)"></line>
                <line x1="62.141" y1="27.671" x2="46.442" y2="27.671" id="Stroke-307" stroke="#131514" stroke-width="1.5" stroke-linecap="round" stroke-linejoin="round" mask="url(#mask-14)"></line>
                <line x1="63.793" y1="24.546" x2="48.094" y2="24.546" id="Fill-308" fill="#FFFFFE" mask="url(#mask-14)"></line>
                <line x1="63.793" y1="24.546" x2="48.094" y2="24.546" id="Stroke-309" stroke="#131514" stroke-width="1.5" stroke-linecap="round" stroke-linejoin="round" mask="url(#mask-14)"></line>
                <polyline id="Fill-310" fill="#FFFFFE" mask="url(#mask-14)" points="65.043 78.088 -1.123 75.421 49.849 0.661 65.043 78.088"></polyline>
                <polygon id="Stroke-311" stroke="#131514" stroke-width="1.5" stroke-linecap="round" stroke-linejoin="round" mask="url(#mask-14)" points="65.043 78.088 -1.123 75.421 49.849 0.661"></polygon>
            </g>
            <polygon id="Stroke-313" stroke="#131514" stroke-width="1.5" stroke-linecap="round" stroke-linejoin="round" points="408.826 93.77 458.478 166.177 359.174 166.177"></polygon>
            <polyline id="Fill-314" fill="#FFFFFE" points="436.924 124.233 468.607 166.979 405.24 166.979 436.924 124.233"></polyline>
            <g id="Group-324" transform="translate(404.977000, 124.109000)">
                <mask id="mask-16" fill="white">
                    <use xlink:href="#path-15"></use>
                </mask>
                <g id="Clip-316"></g>
                <line x1="31.947" y1="0.124" x2="40.959" y2="42.538" id="Fill-315" fill="#FFFFFE" mask="url(#mask-16)"></line>
                <line x1="31.947" y1="0.124" x2="40.959" y2="42.538" id="Stroke-317" stroke="#131514" stroke-width="1.5" stroke-linecap="round" stroke-linejoin="round" mask="url(#mask-16)"></line>
                <line x1="61.368" y1="39.796" x2="45.668" y2="39.796" id="Fill-318" fill="#FFFFFE" mask="url(#mask-16)"></line>
                <line x1="61.368" y1="39.796" x2="45.668" y2="39.796" id="Stroke-319" stroke="#131514" stroke-width="1.5" stroke-linecap="round" stroke-linejoin="round" mask="url(#mask-16)"></line>
                <line x1="63.516" y1="36.671" x2="47.817" y2="36.671" id="Fill-320" fill="#FFFFFE" mask="url(#mask-16)"></line>
                <line x1="63.516" y1="36.671" x2="47.817" y2="36.671" id="Stroke-321" stroke="#131514" stroke-width="1.5" stroke-linecap="round" stroke-linejoin="round" mask="url(#mask-16)"></line>
                <line x1="65.168" y1="33.546" x2="49.469" y2="33.546" id="Fill-322" fill="#FFFFFE" mask="url(#mask-16)"></line>
                <line x1="65.168" y1="33.546" x2="49.469" y2="33.546" id="Stroke-323" stroke="#131514" stroke-width="1.5" stroke-linecap="round" stroke-linejoin="round" mask="url(#mask-16)"></line>
            </g>
            <polygon id="Stroke-325" stroke="#131514" stroke-width="1.5" stroke-linecap="round" stroke-linejoin="round" points="436.924 124.233 468.607 166.979 405.24 166.979"></polygon>
            <line x1="385.153" y1="118.885" x2="357.555" y2="160.342" id="Fill-326" fill="#FFFFFE"></line>
            <line x1="385.153" y1="118.885" x2="357.555" y2="160.342" id="Stroke-327" stroke="#131514" stroke-width="1.5" stroke-linecap="round" stroke-linejoin="round"></line>
            <line x1="285.269" y1="120.03" x2="291.187" y2="120.03" id="Fill-328" fill="#FFFFFE"></line>
            <line x1="285.269" y1="120.03" x2="291.187" y2="120.03" id="Stroke-329" stroke="#131514" stroke-width="1.5" stroke-linecap="round" stroke-linejoin="round"></line>
            <line x1="288.254" y1="117.045" x2="288.254" y2="123.221" id="Fill-330" fill="#FFFFFE"></line>
            <line x1="288.254" y1="117.045" x2="288.254" y2="123.221" id="Stroke-331" stroke="#131514" stroke-width="1.5" stroke-linecap="round" stroke-linejoin="round"></line>
            <polygon id="Fill-332" fill="#FFFFFE" points="234.511 124.861 277.907 124.861 277.907 120.609 234.511 120.609"></polygon>
            <polygon id="Stroke-333" stroke="#131514" stroke-width="1.5" stroke-linecap="round" stroke-linejoin="round" points="234.511 124.861 277.907 124.861 277.907 120.609 234.511 120.609"></polygon>
            <polygon id="Fill-334" fill="#FFFFFE" points="238.02 157.233 243.62 157.233 243.62 116.994 238.02 116.994"></polygon>
            <polygon id="Stroke-335" stroke="#131514" stroke-width="1.5" stroke-linecap="round" stroke-linejoin="round" points="238.02 157.233 243.62 157.233 243.62 116.994 238.02 116.994"></polygon>
            <polygon id="Fill-336" fill="#FFFFFE" points="236.356 165.685 245.285 165.685 245.285 153.899 236.356 153.899"></polygon>
            <polygon id="Stroke-337" stroke="#131514" stroke-width="1.5" stroke-linecap="round" stroke-linejoin="round" points="236.356 165.685 245.285 165.685 245.285 153.899 236.356 153.899"></polygon>
            <polygon id="Fill-338" fill="#FFFFFE" points="270.52 157.768 276.12 157.768 276.12 117.53 270.52 117.53"></polygon>
            <polygon id="Stroke-339" stroke="#131514" stroke-width="1.5" stroke-linecap="round" stroke-linejoin="round" points="270.52 157.768 276.12 157.768 276.12 117.53 270.52 117.53"></polygon>
            <polygon id="Fill-340" fill="#FFFFFE" points="268.856 166.221 277.785 166.221 277.785 154.435 268.856 154.435"></polygon>
            <polygon id="Stroke-341" stroke="#131514" stroke-width="1.5" stroke-linecap="round" stroke-linejoin="round" points="268.856 166.221 277.785 166.221 277.785 154.435 268.856 154.435"></polygon>
            <polyline id="Fill-342" fill="#FFFFFE" points="277.431 117.718 234.035 117.718 231.892 113.466 280.225 113.466 277.431 117.718"></polyline>
            <polygon id="Stroke-343" stroke="#131514" stroke-width="1.5" stroke-linecap="round" stroke-linejoin="round" points="277.431 117.718 234.035 117.718 231.892 113.466 280.225 113.466"></polygon>
            <path d="M256.402,109.738 C248.848,109.738 232.322,108.633 226.77,106.78 L229.475,113.218 L284.244,113.218 L287.77,106.78 C282.219,108.633 263.956,109.738 256.402,109.738" id="Fill-344" fill="#FFFFFE"></path>
            <path d="M256.402,109.738 C248.848,109.738 232.322,108.633 226.77,106.78 L229.475,113.218 L284.244,113.218 L287.77,106.78 C282.219,108.633 263.956,109.738 256.402,109.738 Z" id="Stroke-345" stroke="#131514" stroke-width="1.5" stroke-linecap="round" stroke-linejoin="round"></path>
            <polygon id="Fill-346" fill="#FFFFFE" points="252.126 127.53 260.293 127.53 260.293 115.363 252.126 115.363"></polygon>
            <polygon id="Stroke-347" stroke="#131514" stroke-width="1.5" stroke-linecap="round" stroke-linejoin="round" points="252.126 127.53 260.293 127.53 260.293 115.363 252.126 115.363"></polygon>
            <path d="M244.52,136.53 L237.27,136.53 C236.445,136.53 235.77,135.855 235.77,135.03 C235.77,134.205 236.445,133.53 237.27,133.53 L244.52,133.53 C245.345,133.53 246.02,134.205 246.02,135.03 C246.02,135.855 245.345,136.53 244.52,136.53" id="Fill-348" fill="#FFFFFE"></path>
            <path d="M244.52,136.53 L237.27,136.53 C236.445,136.53 235.77,135.855 235.77,135.03 C235.77,134.205 236.445,133.53 237.27,133.53 L244.52,133.53 C245.345,133.53 246.02,134.205 246.02,135.03 C246.02,135.855 245.345,136.53 244.52,136.53 Z" id="Stroke-349" stroke="#131514" stroke-width="1.5" stroke-linecap="round" stroke-linejoin="round"></path>
            <path d="M277.145,136.53 L269.895,136.53 C269.07,136.53 268.395,135.855 268.395,135.03 C268.395,134.205 269.07,133.53 269.895,133.53 L277.145,133.53 C277.97,133.53 278.645,134.205 278.645,135.03 C278.645,135.855 277.97,136.53 277.145,136.53" id="Fill-350" fill="#FFFFFE"></path>
            <path d="M277.145,136.53 L269.895,136.53 C269.07,136.53 268.395,135.855 268.395,135.03 C268.395,134.205 269.07,133.53 269.895,133.53 L277.145,133.53 C277.97,133.53 278.645,134.205 278.645,135.03 C278.645,135.855 277.97,136.53 277.145,136.53 Z" id="Stroke-351" stroke="#131514" stroke-width="1.5" stroke-linecap="round" stroke-linejoin="round"></path>
            <line x1="280.854" y1="122.53" x2="280.854" y2="153.03" id="Fill-352" fill="#FFFFFE"></line>
            <line x1="280.854" y1="122.53" x2="280.854" y2="153.03" id="Stroke-353" stroke="#131514" stroke-width="1.5" stroke-linecap="round" stroke-linejoin="round"></line>
            <path d="M282.269,156.445 C282.269,157.042 281.784,157.526 281.187,157.526 C280.59,157.526 280.106,157.042 280.106,156.445 C280.106,155.848 280.59,155.363 281.187,155.363 C281.784,155.363 282.269,155.848 282.269,156.445" id="Fill-354" fill="#131514"></path>
            <line x1="234.687" y1="138.697" x2="234.687" y2="151.363" id="Fill-355" fill="#FFFFFE"></line>
            <line x1="234.687" y1="138.697" x2="234.687" y2="151.363" id="Stroke-356" stroke="#131514" stroke-width="1.5" stroke-linecap="round" stroke-linejoin="round"></line>
            <path d="M173.778,55.018 L165.182,55.018 C166.212,115.803 129.702,165.256 129.702,165.256 L141.55,165.256 C143.139,153.228 148.823,146.499 154.687,142.735 C163.66,136.974 175.332,136.974 184.305,142.735 C190.169,146.499 195.853,153.228 197.442,165.256 L209.29,165.256 C209.29,165.256 172.748,115.803 173.778,55.018" id="Fill-357" fill="#FFFFFE"></path>
            <g id="Group-377" transform="translate(128.977000, 54.109000)">
                <mask id="mask-18" fill="white">
                    <use xlink:href="#path-17"></use>
                </mask>
                <g id="Clip-359"></g>
                <line x1="36.043" y1="17.546" x2="42.543" y2="17.546" id="Fill-358" fill="#FFFFFE" mask="url(#mask-18)"></line>
                <line x1="36.043" y1="17.546" x2="42.543" y2="17.546" id="Stroke-360" stroke="#131514" stroke-width="1.5" stroke-linecap="round" stroke-linejoin="round" mask="url(#mask-18)"></line>
                <line x1="39.043" y1="23.171" x2="45.543" y2="23.171" id="Fill-361" fill="#FFFFFE" mask="url(#mask-18)"></line>
                <line x1="39.043" y1="23.171" x2="45.543" y2="23.171" id="Stroke-362" stroke="#131514" stroke-width="1.5" stroke-linecap="round" stroke-linejoin="round" mask="url(#mask-18)"></line>
                <line x1="34.543" y1="27.546" x2="41.043" y2="27.546" id="Fill-363" fill="#FFFFFE" mask="url(#mask-18)"></line>
                <line x1="34.543" y1="27.546" x2="41.043" y2="27.546" id="Stroke-364" stroke="#131514" stroke-width="1.5" stroke-linecap="round" stroke-linejoin="round" mask="url(#mask-18)"></line>
                <line x1="5.043" y1="97.046" x2="11.543" y2="97.046" id="Fill-365" fill="#FFFFFE" mask="url(#mask-18)"></line>
                <line x1="5.043" y1="97.046" x2="11.543" y2="97.046" id="Stroke-366" stroke="#131514" stroke-width="1.5" stroke-linecap="round" stroke-linejoin="round" mask="url(#mask-18)"></line>
                <line x1="5.043" y1="102.671" x2="11.543" y2="102.671" id="Fill-367" fill="#FFFFFE" mask="url(#mask-18)"></line>
                <line x1="5.043" y1="102.671" x2="11.543" y2="102.671" id="Stroke-368" stroke="#131514" stroke-width="1.5" stroke-linecap="round" stroke-linejoin="round" mask="url(#mask-18)"></line>
                <line x1="3.543" y1="107.046" x2="10.043" y2="107.046" id="Fill-369" fill="#FFFFFE" mask="url(#mask-18)"></line>
                <line x1="3.543" y1="107.046" x2="10.043" y2="107.046" id="Stroke-370" stroke="#131514" stroke-width="1.5" stroke-linecap="round" stroke-linejoin="round" mask="url(#mask-18)"></line>
                <line x1="65.543" y1="96.546" x2="72.043" y2="96.546" id="Fill-371" fill="#FFFFFE" mask="url(#mask-18)"></line>
                <line x1="65.543" y1="96.546" x2="72.043" y2="96.546" id="Stroke-372" stroke="#131514" stroke-width="1.5" stroke-linecap="round" stroke-linejoin="round" mask="url(#mask-18)"></line>
                <line x1="68.543" y1="102.171" x2="75.043" y2="102.171" id="Fill-373" fill="#FFFFFE" mask="url(#mask-18)"></line>
                <line x1="68.543" y1="102.171" x2="75.043" y2="102.171" id="Stroke-374" stroke="#131514" stroke-width="1.5" stroke-linecap="round" stroke-linejoin="round" mask="url(#mask-18)"></line>
                <line x1="64.043" y1="106.546" x2="70.543" y2="106.546" id="Fill-375" fill="#FFFFFE" mask="url(#mask-18)"></line>
                <line x1="64.043" y1="106.546" x2="70.543" y2="106.546" id="Stroke-376" stroke="#131514" stroke-width="1.5" stroke-linecap="round" stroke-linejoin="round" mask="url(#mask-18)"></line>
            </g>
            <path d="M173.778,55.018 L165.182,55.018 C166.212,115.803 129.702,165.256 129.702,165.256 L141.55,165.256 C143.139,153.228 148.823,146.499 154.687,142.735 C163.66,136.974 175.332,136.974 184.305,142.735 C190.169,146.499 195.853,153.228 197.442,165.256 L209.29,165.256 C209.29,165.256 172.748,115.803 173.778,55.018 Z" id="Stroke-378" stroke="#131514" stroke-width="1.5" stroke-linecap="round" stroke-linejoin="round"></path>
            <polyline id="Fill-379" fill="#FFFFFE" points="156.187 131.863 182.105 132.674 169.52 91.905 156.187 131.863"></polyline>
            <polygon id="Stroke-380" stroke="#131514" stroke-width="1.5" stroke-linecap="round" stroke-linejoin="round" points="156.187 131.863 182.105 132.674 169.52 91.905"></polygon>
            <path d="M193.512,134.348 L145.48,134.348 C144.181,134.348 143.119,133.285 143.119,131.987 C143.119,130.688 144.181,129.626 145.48,129.626 L193.512,129.626 C194.811,129.626 195.873,130.688 195.873,131.987 C195.873,133.285 194.811,134.348 193.512,134.348" id="Fill-381" fill="#FFFFFE"></path>
            <g id="Group-407" transform="translate(142.977000, 129.109000)">
                <mask id="mask-20" fill="white">
                    <use xlink:href="#path-19"></use>
                </mask>
                <g id="Clip-383"></g>
                <line x1="21.224" y1="-1.256" x2="21.224" y2="7.119" id="Fill-382" fill="#FFFFFE" mask="url(#mask-20)"></line>
                <line x1="21.224" y1="-1.256" x2="21.224" y2="7.119" id="Stroke-384" stroke="#131514" stroke-width="1.5" stroke-linecap="round" stroke-linejoin="round" mask="url(#mask-20)"></line>
                <line x1="25.42" y1="-1.295" x2="25.42" y2="7.081" id="Fill-385" fill="#FFFFFE" mask="url(#mask-20)"></line>
                <line x1="25.42" y1="-1.295" x2="25.42" y2="7.081" id="Stroke-386" stroke="#131514" stroke-width="1.5" stroke-linecap="round" stroke-linejoin="round" mask="url(#mask-20)"></line>
                <line x1="29.616" y1="-1.18" x2="29.616" y2="7.196" id="Fill-387" fill="#FFFFFE" mask="url(#mask-20)"></line>
                <line x1="29.616" y1="-1.18" x2="29.616" y2="7.196" id="Stroke-388" stroke="#131514" stroke-width="1.5" stroke-linecap="round" stroke-linejoin="round" mask="url(#mask-20)"></line>
                <line x1="33.811" y1="-1.218" x2="33.811" y2="7.157" id="Fill-389" fill="#FFFFFE" mask="url(#mask-20)"></line>
                <line x1="33.811" y1="-1.218" x2="33.811" y2="7.157" id="Stroke-390" stroke="#131514" stroke-width="1.5" stroke-linecap="round" stroke-linejoin="round" mask="url(#mask-20)"></line>
                <line x1="4.224" y1="-1.256" x2="4.224" y2="7.119" id="Fill-391" fill="#FFFFFE" mask="url(#mask-20)"></line>
                <line x1="4.224" y1="-1.256" x2="4.224" y2="7.119" id="Stroke-392" stroke="#131514" stroke-width="1.5" stroke-linecap="round" stroke-linejoin="round" mask="url(#mask-20)"></line>
                <line x1="8.42" y1="-1.295" x2="8.42" y2="7.081" id="Fill-393" fill="#FFFFFE" mask="url(#mask-20)"></line>
                <line x1="8.42" y1="-1.295" x2="8.42" y2="7.081" id="Stroke-394" stroke="#131514" stroke-width="1.5" stroke-linecap="round" stroke-linejoin="round" mask="url(#mask-20)"></line>
                <line x1="12.616" y1="-1.18" x2="12.616" y2="7.196" id="Fill-395" fill="#FFFFFE" mask="url(#mask-20)"></line>
                <line x1="12.616" y1="-1.18" x2="12.616" y2="7.196" id="Stroke-396" stroke="#131514" stroke-width="1.5" stroke-linecap="round" stroke-linejoin="round" mask="url(#mask-20)"></line>
                <line x1="16.811" y1="-1.218" x2="16.811" y2="7.157" id="Fill-397" fill="#FFFFFE" mask="url(#mask-20)"></line>
                <line x1="16.811" y1="-1.218" x2="16.811" y2="7.157" id="Stroke-398" stroke="#131514" stroke-width="1.5" stroke-linecap="round" stroke-linejoin="round" mask="url(#mask-20)"></line>
                <line x1="38.224" y1="-1.256" x2="38.224" y2="7.119" id="Fill-399" fill="#FFFFFE" mask="url(#mask-20)"></line>
                <line x1="38.224" y1="-1.256" x2="38.224" y2="7.119" id="Stroke-400" stroke="#131514" stroke-width="1.5" stroke-linecap="round" stroke-linejoin="round" mask="url(#mask-20)"></line>
                <line x1="42.42" y1="-1.295" x2="42.42" y2="7.081" id="Fill-401" fill="#FFFFFE" mask="url(#mask-20)"></line>
                <line x1="42.42" y1="-1.295" x2="42.42" y2="7.081" id="Stroke-402" stroke="#131514" stroke-width="1.5" stroke-linecap="round" stroke-linejoin="round" mask="url(#mask-20)"></line>
                <line x1="46.616" y1="-1.18" x2="46.616" y2="7.196" id="Fill-403" fill="#FFFFFE" mask="url(#mask-20)"></line>
                <line x1="46.616" y1="-1.18" x2="46.616" y2="7.196" id="Stroke-404" stroke="#131514" stroke-width="1.5" stroke-linecap="round" stroke-linejoin="round" mask="url(#mask-20)"></line>
                <line x1="50.811" y1="-1.218" x2="50.811" y2="7.157" id="Fill-405" fill="#FFFFFE" mask="url(#mask-20)"></line>
                <line x1="50.811" y1="-1.218" x2="50.811" y2="7.157" id="Stroke-406" stroke="#131514" stroke-width="1.5" stroke-linecap="round" stroke-linejoin="round" mask="url(#mask-20)"></line>
            </g>
            <path d="M193.512,134.348 L145.48,134.348 C144.181,134.348 143.119,133.285 143.119,131.987 C143.119,130.688 144.181,129.626 145.48,129.626 L193.512,129.626 C194.811,129.626 195.873,130.688 195.873,131.987 C195.873,133.285 194.811,134.348 193.512,134.348 Z" id="Stroke-408" stroke="#131514" stroke-width="1.5" stroke-linecap="round" stroke-linejoin="round"></path>
            <path d="M179.963,105.157 L158.307,105.157 C157.009,105.157 155.947,104.095 155.947,102.796 C155.947,101.498 157.009,100.436 158.307,100.436 L179.963,100.436 C181.262,100.436 182.324,101.498 182.324,102.796 C182.324,104.095 181.262,105.157 179.963,105.157" id="Fill-409" fill="#FFFFFE"></path>
            <g id="Group-423" transform="translate(154.977000, 100.109000)">
                <mask id="mask-22" fill="white">
                    <use xlink:href="#path-21"></use>
                </mask>
                <g id="Clip-411"></g>
                <line x1="3.558" y1="-1.923" x2="3.558" y2="6.453" id="Fill-410" fill="#FFFFFE" mask="url(#mask-22)"></line>
                <line x1="3.558" y1="-1.923" x2="3.558" y2="6.453" id="Stroke-412" stroke="#131514" stroke-width="1.5" stroke-linecap="round" stroke-linejoin="round" mask="url(#mask-22)"></line>
                <line x1="7.753" y1="-1.961" x2="7.753" y2="6.414" id="Fill-413" fill="#FFFFFE" mask="url(#mask-22)"></line>
                <line x1="7.753" y1="-1.961" x2="7.753" y2="6.414" id="Stroke-414" stroke="#131514" stroke-width="1.5" stroke-linecap="round" stroke-linejoin="round" mask="url(#mask-22)"></line>
                <line x1="11.949" y1="-1.847" x2="11.949" y2="6.529" id="Fill-415" fill="#FFFFFE" mask="url(#mask-22)"></line>
                <line x1="11.949" y1="-1.847" x2="11.949" y2="6.529" id="Stroke-416" stroke="#131514" stroke-width="1.5" stroke-linecap="round" stroke-linejoin="round" mask="url(#mask-22)"></line>
                <line x1="16.144" y1="-1.885" x2="16.144" y2="6.491" id="Fill-417" fill="#FFFFFE" mask="url(#mask-22)"></line>
                <line x1="16.144" y1="-1.885" x2="16.144" y2="6.491" id="Stroke-418" stroke="#131514" stroke-width="1.5" stroke-linecap="round" stroke-linejoin="round" mask="url(#mask-22)"></line>
                <line x1="20.224" y1="-1.923" x2="20.224" y2="6.453" id="Fill-419" fill="#FFFFFE" mask="url(#mask-22)"></line>
                <line x1="20.224" y1="-1.923" x2="20.224" y2="6.453" id="Stroke-420" stroke="#131514" stroke-width="1.5" stroke-linecap="round" stroke-linejoin="round" mask="url(#mask-22)"></line>
                <line x1="24.42" y1="-1.961" x2="24.42" y2="6.414" id="Fill-421" fill="#FFFFFE" mask="url(#mask-22)"></line>
                <path d="M24.42,-1.961 L24.42,6.414 M28.616,-1.847 L28.616,6.529 M32.811,-1.885 L32.811,6.491" id="Stroke-422" stroke="#131514" stroke-width="1.5" stroke-linecap="round" stroke-linejoin="round" mask="url(#mask-22)"></path>
            </g>
            <path d="M179.963,105.157 L158.307,105.157 C157.009,105.157 155.947,104.095 155.947,102.796 C155.947,101.498 157.009,100.436 158.307,100.436 L179.963,100.436 C181.262,100.436 182.324,101.498 182.324,102.796 C182.324,104.095 181.262,105.157 179.963,105.157 Z" id="Stroke-424" stroke="#131514" stroke-width="1.5" stroke-linecap="round" stroke-linejoin="round"></path>
            <path d="M162.687,54.197 L162.687,54.197 C162.687,51.447 164.937,49.197 167.687,49.197 L170.687,49.197 C173.437,49.197 175.687,51.447 175.687,54.197 C175.687,56.947 173.437,59.197 170.687,59.197 L167.687,59.197 C164.937,59.197 162.687,56.947 162.687,54.197" id="Fill-425" fill="#FFFFFE"></path>
            <path d="M162.687,54.197 L162.687,54.197 C162.687,51.447 164.937,49.197 167.687,49.197 L170.687,49.197 C173.437,49.197 175.687,51.447 175.687,54.197 C175.687,56.947 173.437,59.197 170.687,59.197 L167.687,59.197 C164.937,59.197 162.687,56.947 162.687,54.197 Z" id="Stroke-426" stroke="#131514" stroke-width="1.5" stroke-linecap="round" stroke-linejoin="round"></path>
            <line x1="169.187" y1="27.03" x2="169.187" y2="49.197" id="Fill-427" fill="#FFFFFE"></line>
            <line x1="169.187" y1="27.03" x2="169.187" y2="49.197" id="Stroke-428" stroke="#131514" stroke-width="1.5" stroke-linecap="round" stroke-linejoin="round"></line>
            <line x1="184.977" y1="90.776" x2="190.896" y2="90.776" id="Fill-429" fill="#FFFFFE"></line>
            <line x1="184.977" y1="90.776" x2="190.896" y2="90.776" id="Stroke-430" stroke="#131514" stroke-width="1.5" stroke-linecap="round" stroke-linejoin="round"></line>
            <line x1="187.962" y1="87.791" x2="187.962" y2="93.967" id="Fill-431" fill="#FFFFFE"></line>
            <line x1="187.962" y1="87.791" x2="187.962" y2="93.967" id="Stroke-432" stroke="#131514" stroke-width="1.5" stroke-linecap="round" stroke-linejoin="round"></line>
            <path d="M552.02,164.03 L498.334,164.021 C498.334,164.021 511.815,149.222 527.718,145.607" id="Fill-433" fill="#FFFFFE"></path>
            <path d="M552.02,164.03 L498.334,164.021 C498.334,164.021 511.815,149.222 527.718,145.607" id="Stroke-434" stroke="#131514" stroke-width="1.5" stroke-linecap="round" stroke-linejoin="round"></path>
            <path d="M536.48,148.755 L501.117,165.89 L488.87,122.852 C488.87,122.852 525.794,119.67 536.48,148.755" id="Fill-435" fill="#FFFFFE"></path>
            <path d="M536.48,148.755 L501.117,165.89 L488.87,122.852 C488.87,122.852 525.794,119.67 536.48,148.755 Z" id="Stroke-436" stroke="#131514" stroke-width="1.5" stroke-linecap="round" stroke-linejoin="round"></path>
            <path d="M553.152,144.944 L513.032,161.491 L502.383,113.233 C502.383,113.233 543.3,112.172 553.152,144.944" id="Fill-437" fill="#FFFFFE"></path>
            <path d="M553.152,144.944 L513.032,161.491 L502.383,113.233 C502.383,113.233 543.3,112.172 553.152,144.944 Z" id="Stroke-438" stroke="#131514" stroke-width="1.5" stroke-linecap="round" stroke-linejoin="round"></path>
            <path d="M578.415,144.683 L526.412,161.99 L517.252,100.257 C517.252,100.257 568.892,102.529 578.415,144.683" id="Fill-439" fill="#FFFFFE"></path>
            <path d="M578.415,144.683 L526.412,161.99 L517.252,100.257 C517.252,100.257 568.892,102.529 578.415,144.683 Z" id="Stroke-440" stroke="#131514" stroke-width="1.5" stroke-linecap="round" stroke-linejoin="round"></path>
            <path d="M557.02,167.03 L502.549,161.899 C502.549,161.899 520.845,149.487 538.856,149.711" id="Fill-441" fill="#FFFFFE"></path>
            <path d="M557.02,167.03 L502.549,161.899 C502.549,161.899 520.845,149.487 538.856,149.711" id="Stroke-442" stroke="#131514" stroke-width="1.5" stroke-linecap="round" stroke-linejoin="round"></path>
            <path d="M564.854,131.697 L599.52,160.363 L624.187,115.03 C624.187,115.03 584.187,101.697 564.854,131.697" id="Fill-443" fill="#FFFFFE"></path>
            <path d="M564.854,131.697 L599.52,160.363 L624.187,115.03 C624.187,115.03 584.187,101.697 564.854,131.697 Z" id="Stroke-444" stroke="#131514" stroke-width="1.5" stroke-linecap="round" stroke-linejoin="round"></path>
            <path d="M523.854,164.363 C523.854,164.363 537.762,140.153 558.333,130.446 C563.55,127.985 569.657,128.381 574.62,131.321 C584.134,136.958 600.146,148.518 606.52,165.363 L523.854,164.363" id="Fill-445" fill="#FFFFFE"></path>
            <path d="M523.854,164.363 C523.854,164.363 537.762,140.153 558.333,130.446 C563.55,127.985 569.657,128.381 574.62,131.321 C584.134,136.958 600.146,148.518 606.52,165.363 L523.854,164.363 Z" id="Stroke-446" stroke="#131514" stroke-width="1.5" stroke-linecap="round" stroke-linejoin="round"></path>
            <path d="M602.915,147.34 L584.297,162.736 L571.049,138.389 C571.049,138.389 592.532,131.229 602.915,147.34" id="Fill-447" fill="#FFFFFE"></path>
            <path d="M602.915,147.34 L584.297,162.736 L571.049,138.389 C571.049,138.389 592.532,131.229 602.915,147.34 Z" id="Stroke-448" stroke="#131514" stroke-width="1.5" stroke-linecap="round" stroke-linejoin="round"></path>
            <path d="M596.287,146.688 L621.364,166.095 L638.187,134.145 C638.187,134.145 609.558,125.496 596.287,146.688" id="Fill-449" fill="#FFFFFE"></path>
            <path d="M596.287,146.688 L621.364,166.095 L638.187,134.145 C638.187,134.145 609.558,125.496 596.287,146.688 Z" id="Stroke-450" stroke="#131514" stroke-width="1.5" stroke-linecap="round" stroke-linejoin="round"></path>
            <path d="M567.02,129.197 C567.02,129.197 560.187,138.03 557.854,161.363" id="Fill-451" fill="#FFFFFE"></path>
            <path d="M567.02,129.197 C567.02,129.197 560.187,138.03 557.854,161.363" id="Stroke-452" stroke="#131514" stroke-width="1.5" stroke-linecap="round" stroke-linejoin="round"></path>
            <path d="M577.17,160.889 C577.17,160.889 583.959,149.072 594,144.334 C596.546,143.132 599.527,143.326 601.95,144.761 C606.593,147.513 614.409,153.155 617.52,161.377 L577.17,160.889" id="Fill-453" fill="#FFFFFE"></path>
            <path d="M577.17,160.889 C577.17,160.889 583.959,149.072 594,144.334 C596.546,143.132 599.527,143.326 601.95,144.761 C606.593,147.513 614.409,153.155 617.52,161.377 L577.17,160.889 Z" id="Stroke-454" stroke="#131514" stroke-width="1.5" stroke-linecap="round" stroke-linejoin="round"></path>
            <path d="M598.24,143.724 C598.24,143.724 594.905,148.036 593.766,159.425" id="Fill-455" fill="#FFFFFE"></path>
            <path d="M598.24,143.724 C598.24,143.724 594.905,148.036 593.766,159.425" id="Stroke-456" stroke="#131514" stroke-width="1.5" stroke-linecap="round" stroke-linejoin="round"></path>
            <path d="M625.52,167.03 L501.52,167.03 C499.87,167.03 498.52,165.68 498.52,164.03 C498.52,162.38 499.87,161.03 501.52,161.03 L625.52,161.03 C627.17,161.03 628.52,162.38 628.52,164.03 C628.52,165.68 627.17,167.03 625.52,167.03" id="Fill-457" fill="#FFFFFE"></path>
            <path d="M625.52,167.03 L501.52,167.03 C499.87,167.03 498.52,165.68 498.52,164.03 C498.52,162.38 499.87,161.03 501.52,161.03 L625.52,161.03 C627.17,161.03 628.52,162.38 628.52,164.03 C628.52,165.68 627.17,167.03 625.52,167.03 Z" id="Stroke-458" stroke="#131514" stroke-width="1.5" stroke-linecap="round" stroke-linejoin="round"></path>
            <path d="M523.187,105.03 C523.187,105.03 548.854,110.363 561.52,125.363" id="Fill-459" fill="#FFFFFE"></path>
            <path d="M523.187,105.03 C523.187,105.03 548.854,110.363 561.52,125.363" id="Stroke-460" stroke="#131514" stroke-width="1.5" stroke-linecap="round" stroke-linejoin="round"></path>
            <path d="M574.187,127.363 C574.187,127.363 592.187,109.697 617.187,117.363" id="Fill-461" fill="#FFFFFE"></path>
            <path d="M574.187,127.363 C574.187,127.363 592.187,109.697 617.187,117.363" id="Stroke-462" stroke="#131514" stroke-width="1.5" stroke-linecap="round" stroke-linejoin="round"></path>
            <line x1="641.02" y1="137.28" x2="629.27" y2="160.03" id="Fill-463" fill="#FFFFFE"></line>
            <line x1="641.02" y1="137.28" x2="629.27" y2="160.03" id="Stroke-464" stroke="#131514" stroke-width="1.5" stroke-linecap="round" stroke-linejoin="round"></line>
            <polygon id="Fill-465" fill="#FFFFFE" points="333.917 166.315 388.028 166.315 388.028 139.338 333.917 139.338"></polygon>
            <g id="Group-479" transform="translate(337.977000, 157.109000)">
                <mask id="mask-24" fill="white">
                    <use xlink:href="#path-23"></use>
                </mask>
                <g id="Clip-467"></g>
                <path d="M5.492,9.276 L5.57902591,3.223 C5.585,1.949 4.548,0.901 3.273,0.894974094 C1.999,0.889 0.951,1.926 0.945,3.201 L0.858,9.253 L5.492,9.276" id="Fill-466" fill="#FFFFFE" mask="url(#mask-24)"></path>
                <path d="M5.492,9.276 L5.57902591,3.223 C5.585,1.949 4.548,0.901 3.273,0.894974094 C1.999,0.889 0.951,1.926 0.945,3.201 L0.858,9.253 L5.492,9.276 Z" id="Stroke-468" stroke="#131514" stroke-width="1.28" stroke-linecap="round" stroke-linejoin="round" mask="url(#mask-24)"></path>
                <path d="M13.535,9.314 L13.6220259,3.262 C13.628,1.987 12.591,0.94 11.316,0.932974119 C10.042,0.927 8.994,1.965 8.988,3.239 L8.901,9.292 L13.535,9.314" id="Fill-469" fill="#FFFFFE" mask="url(#mask-24)"></path>
                <path d="M13.535,9.314 L13.6220259,3.262 C13.628,1.987 12.591,0.94 11.316,0.932974119 C10.042,0.927 8.994,1.965 8.988,3.239 L8.901,9.292 L13.535,9.314 Z" id="Stroke-470" stroke="#131514" stroke-width="1.28" stroke-linecap="round" stroke-linejoin="round" mask="url(#mask-24)"></path>
                <path d="M21.578,9.353 L21.6650259,3.3 C21.671,2.026 20.634,0.978 19.359,0.971974094 C18.085,0.966 17.038,2.003 17.031,3.278 L16.944,9.33 L21.578,9.353" id="Fill-471" fill="#FFFFFE" mask="url(#mask-24)"></path>
                <path d="M21.578,9.353 L21.6650259,3.3 C21.671,2.026 20.634,0.978 19.359,0.971974094 C18.085,0.966 17.038,2.003 17.031,3.278 L16.944,9.33 L21.578,9.353 Z" id="Stroke-472" stroke="#131514" stroke-width="1.28" stroke-linecap="round" stroke-linejoin="round" mask="url(#mask-24)"></path>
                <path d="M29.621,9.382 L29.7080259,3.33 C29.714,2.055 28.677,1.008 27.402,1.0019648 C26.128,0.995 25.081,2.033 25.074,3.307 L24.987,9.36 L29.621,9.382" id="Fill-473" fill="#FFFFFE" mask="url(#mask-24)"></path>
                <path d="M29.621,9.382 L29.7080259,3.33 C29.714,2.055 28.677,1.008 27.402,1.0019648 C26.128,0.995 25.081,2.033 25.074,3.307 L24.987,9.36 L29.621,9.382 Z" id="Stroke-474" stroke="#131514" stroke-width="1.28" stroke-linecap="round" stroke-linejoin="round" mask="url(#mask-24)"></path>
                <path d="M37.664,9.421 L37.7510259,3.368 C37.757,2.094 36.72,1.046 35.445,1.03997409 C34.171,1.034 33.124,2.071 33.117,3.346 L33.03,9.398 L37.664,9.421" id="Fill-475" fill="#FFFFFE" mask="url(#mask-24)"></path>
                <path d="M37.664,9.421 L37.7510259,3.368 C37.757,2.094 36.72,1.046 35.445,1.03997409 C34.171,1.034 33.124,2.071 33.117,3.346 L33.03,9.398 L37.664,9.421 Z" id="Stroke-476" stroke="#131514" stroke-width="1.28" stroke-linecap="round" stroke-linejoin="round" mask="url(#mask-24)"></path>
                <path d="M45.707,9.459 L45.7940259,3.407 C45.8,2.132 44.763,1.085 43.489,1.07797412 C42.214,1.072 41.167,2.11 41.16,3.384 L41.073,9.437 L45.707,9.459" id="Fill-477" fill="#FFFFFE" mask="url(#mask-24)"></path>
                <path d="M45.707,9.459 L45.7940259,3.407 C45.8,2.132 44.763,1.085 43.489,1.07797412 C42.214,1.072 41.167,2.11 41.16,3.384 L41.073,9.437 L45.707,9.459 Z" id="Stroke-478" stroke="#131514" stroke-width="1.28" stroke-linecap="round" stroke-linejoin="round" mask="url(#mask-24)"></path>
            </g>
            <polygon id="Stroke-480" stroke="#131514" stroke-width="1.115" stroke-linecap="round" stroke-linejoin="round" points="333.917 166.315 388.028 166.315 388.028 139.338 333.917 139.338"></polygon>
            <polyline id="Fill-481" fill="#FFFFFE" points="370.319 138.242 333.917 138.242 333.917 121.748 362.498 121.748 370.319 138.242"></polyline>
            <polygon id="Stroke-482" stroke="#131514" stroke-width="1.271" stroke-linecap="round" stroke-linejoin="round" points="370.319 138.242 333.917 138.242 333.917 121.748 362.498 121.748"></polygon>
            <path d="M388.17,154.682013 L332.493,154.413 C331.835,154.409 331.3,153.869 331.302987,153.211 C331.306,152.554 331.847,152.018 332.504,152.020987 L388.181,152.291 C388.839,152.294 389.374,152.834 389.371013,153.492 C389.368,154.15 388.827,154.685 388.17,154.682013" id="Fill-483" fill="#FFFFFE"></path>
            <path d="M388.17,154.682013 L332.493,154.413 C331.835,154.409 331.3,153.869 331.302987,153.211 C331.306,152.554 331.847,152.018 332.504,152.020987 L388.181,152.291 C388.839,152.294 389.374,152.834 389.371013,153.492 C389.368,154.15 388.827,154.685 388.17,154.682013 Z" id="Stroke-484" stroke="#131514" stroke-width="1.384" stroke-linecap="round" stroke-linejoin="round"></path>
            <path d="M343.327,151.81 L343.414026,145.757 C343.42,144.483 342.382,143.435 341.108,143.428974 C339.834,143.423 338.786,144.46 338.78,145.735 L338.693,151.787 L343.327,151.81" id="Fill-485" fill="#FFFFFE"></path>
            <path d="M343.327,151.81 L343.414026,145.757 C343.42,144.483 342.382,143.435 341.108,143.428974 C339.834,143.423 338.786,144.46 338.78,145.735 L338.693,151.787 L343.327,151.81 Z" id="Stroke-486" stroke="#131514" stroke-width="1.28" stroke-linecap="round" stroke-linejoin="round"></path>
            <path d="M351.37,151.848 L351.457026,145.795 C351.463,144.521 350.426,143.474 349.151,143.466974 C347.877,143.461 346.829,144.499 346.823,145.773 L346.736,151.826 L351.37,151.848" id="Fill-487" fill="#FFFFFE"></path>
            <path d="M351.37,151.848 L351.457026,145.795 C351.463,144.521 350.426,143.474 349.151,143.466974 C347.877,143.461 346.829,144.499 346.823,145.773 L346.736,151.826 L351.37,151.848 Z" id="Stroke-488" stroke="#131514" stroke-width="1.28" stroke-linecap="round" stroke-linejoin="round"></path>
            <path d="M359.413,151.887 L359.500026,145.834 C359.506,144.56 358.469,143.512 357.194,143.505974 C355.92,143.5 354.872,144.537 354.866,145.812 L354.779,151.864 L359.413,151.887" id="Fill-489" fill="#FFFFFE"></path>
            <path d="M359.413,151.887 L359.500026,145.834 C359.506,144.56 358.469,143.512 357.194,143.505974 C355.92,143.5 354.872,144.537 354.866,145.812 L354.779,151.864 L359.413,151.887 Z" id="Stroke-490" stroke="#131514" stroke-width="1.28" stroke-linecap="round" stroke-linejoin="round"></path>
            <path d="M367.456,151.916 L367.543026,145.864 C367.549,144.589 366.512,143.542 365.237,143.535965 C363.963,143.529 362.915,144.567 362.909,145.841 L362.822,151.894 L367.456,151.916" id="Fill-491" fill="#FFFFFE"></path>
            <path d="M367.456,151.916 L367.543026,145.864 C367.549,144.589 366.512,143.542 365.237,143.535965 C363.963,143.529 362.915,144.567 362.909,145.841 L362.822,151.894 L367.456,151.916 Z" id="Stroke-492" stroke="#131514" stroke-width="1.28" stroke-linecap="round" stroke-linejoin="round"></path>
            <path d="M375.499,151.955 L375.586026,145.902 C375.592,144.628 374.555,143.58 373.28,143.573974 C372.006,143.568 370.958,144.605 370.952,145.88 L370.865,151.932 L375.499,151.955" id="Fill-493" fill="#FFFFFE"></path>
            <path d="M375.499,151.955 L375.586026,145.902 C375.592,144.628 374.555,143.58 373.28,143.573974 C372.006,143.568 370.958,144.605 370.952,145.88 L370.865,151.932 L375.499,151.955 Z" id="Stroke-494" stroke="#131514" stroke-width="1.28" stroke-linecap="round" stroke-linejoin="round"></path>
            <path d="M383.542,151.993 L383.629026,145.941 C383.635,144.666 382.598,143.619 381.323,143.611974 C380.049,143.606 379.001,144.644 378.995,145.918 L378.908,151.971 L383.542,151.993" id="Fill-495" fill="#FFFFFE"></path>
            <path d="M383.542,151.993 L383.629026,145.941 C383.635,144.666 382.598,143.619 381.323,143.611974 C380.049,143.606 379.001,144.644 378.995,145.918 L378.908,151.971 L383.542,151.993 Z" id="Stroke-496" stroke="#131514" stroke-width="1.28" stroke-linecap="round" stroke-linejoin="round"></path>
            <path d="M388.446,140.604022 L332.77,140.335 C332.112,140.332 331.577,139.791 331.579987,139.134 C331.583,138.476 332.124,137.941 332.781,137.943987 L388.458,138.213 C389.116,138.216 389.651,138.757 389.648013,139.415 C389.645,140.072 389.104,140.608 388.446,140.604022" id="Fill-497" fill="#FFFFFE"></path>
            <path d="M388.446,140.604022 L332.77,140.335 C332.112,140.332 331.577,139.791 331.579987,139.134 C331.583,138.476 332.124,137.941 332.781,137.943987 L388.458,138.213 C389.116,138.216 389.651,138.757 389.648013,139.415 C389.645,140.072 389.104,140.608 388.446,140.604022 Z" id="Stroke-498" stroke="#131514" stroke-width="1.384" stroke-linecap="round" stroke-linejoin="round"></path>
            <path d="M362.728,122.988013 L333.196,122.845 C332.539,122.842 332.003,122.301 332.005987,121.644 C332.01,120.986 332.55,120.451 333.208,120.453987 L362.739,120.597 C363.397,120.6 363.932,121.141 363.929013,121.798 C363.926,122.456 363.385,122.991 362.728,122.988013" id="Fill-499" fill="#FFFFFE"></path>
            <path d="M362.728,122.988013 L333.196,122.845 C332.539,122.842 332.003,122.301 332.005987,121.644 C332.01,120.986 332.55,120.451 333.208,120.453987 L362.739,120.597 C363.397,120.6 363.932,121.141 363.929013,121.798 C363.926,122.456 363.385,122.991 362.728,122.988013 Z" id="Stroke-500" stroke="#131514" stroke-width="1.026" stroke-linecap="round" stroke-linejoin="round"></path>
            <polyline id="Fill-501" fill="#FFFFFE" points="336.192 124.734 336.192 136.109 356.384 136.109"></polyline>
            <polyline id="Stroke-502" stroke="#131514" stroke-width="1.384" stroke-linecap="round" stroke-linejoin="round" points="336.192 124.734 336.192 136.109 356.384 136.109"></polyline>
            <line x1="0" y1="165.03" x2="637.977" y2="167.53" id="Fill-503" fill="#FFFFFE"></line>
            <line x1="0" y1="165.03" x2="637.977" y2="167.53" id="Stroke-504" stroke="#131514" stroke-width="2" stroke-linecap="round" stroke-linejoin="round"></line>
        </g>
    </g>
</svg>