<?xml version="1.0" encoding="UTF-8"?>
<svg width="40px" height="40px" viewBox="0 0 40 40" version="1.1" xmlns="http://www.w3.org/2000/svg" xmlns:xlink="http://www.w3.org/1999/xlink">
    <!-- Generator: Sketch 59.1 (86144) - https://sketch.com -->
    <title>logo-icon</title>
    <desc>Created with Sketch.</desc>
    <defs>
        <linearGradient x1="20.9347085%" y1="31.420567%" x2="105.845274%" y2="118.546154%" id="linearGradient-1">
            <stop stop-color="#FF4800" offset="0%"></stop>
            <stop stop-color="#FFEF00" offset="100%"></stop>
        </linearGradient>
    </defs>
    <g id="Page-1" stroke="none" stroke-width="1" fill="none" fill-rule="evenodd">
        <g id="r" transform="translate(-57.000000, -103.000000)">
            <g id="Group" transform="translate(57.000000, 103.000000)">
                <g id="logo-icon">
                    <circle id="Oval" fill="url(#linearGradient-1)" cx="20" cy="20" r="20"></circle>
                    <path d="M26.9255595,14.357109 L23.225446,18.0851746 C22.8567934,18.4566121 22.8368686,19.0494617 23.1797507,19.4448128 L28.3789445,25.4396055 C29.1026554,26.2740612 29.012879,27.5372048 28.1784233,28.2609157 C27.8147261,28.5763448 27.349455,28.75 26.8680288,28.75 L14.0447979,28.75 C12.3879436,28.75 11.0447979,27.4068542 11.0447979,25.75 C11.0447979,25.4549979 11.0883097,25.161609 11.1739287,24.8793048 L13.9828018,15.6178463 C14.5376493,13.788395 16.0871031,12.4354565 17.9746496,12.1322798 L25.1888606,10.973537 C26.2794518,10.7983668 27.3055542,11.5404622 27.4807244,12.6310534 C27.5820762,13.2620594 27.3757633,13.9035042 26.9255595,14.357109 Z" id="Polygon" fill="#FFFFFF"></path>
                </g>
            </g>
        </g>
    </g>
</svg>