<svg class="animated" xmlns="http://www.w3.org/2000/svg" viewBox="0 0 500 500" version="1.1" xmlns:xlink="http://www.w3.org/1999/xlink" xmlns:svgjs="http://svgjs.com/svgjs" width="100%" height="auto"><style>svg:not(.animated) .animable {opacity: 0;}.animated #credit-card--inject-1--inject-117 {animation: 3.0s Infinite  linear shake;animation-delay: 0s;}            @keyframes shake {                10%, 90% {                    transform: translate3d(-1px, 0, 0);                  }                  20%, 80% {                    transform: translate3d(2px, 0, 0);                  }                  30%, 50%, 70% {                    transform: translate3d(-4px, 0, 0);                  }                  40%, 60% {                    transform: translate3d(4px, 0, 0);                  }            }        </style><!--Plain Credit Card--><g id="Shadow--inject-1--inject-117" class="animable" style="transform-origin: 244.71px 391.545px;"><path d="M424.88,376.79c0-4.77-42.9-8.65-95.82-8.65-47.19,0-86.39,3.08-94.33,7.14h-5.37c-91,0-164.82,8.88-164.82,19.83s73.79,19.84,164.82,19.84,164.81-8.88,164.81-19.84c0-3.84-9.08-7.43-24.8-10.46C402.15,383.26,424.88,380.27,424.88,376.79Z" style="fill: rgb(255, 193, 0); transform-origin: 244.71px 391.545px;" id="el996vpv9dcvd" class="animable"></path><g id="el34ji7gsby4s"><path d="M424.88,376.79c0-4.77-42.9-8.65-95.82-8.65-47.19,0-86.39,3.08-94.33,7.14h-5.37c-91,0-164.82,8.88-164.82,19.83s73.79,19.84,164.82,19.84,164.81-8.88,164.81-19.84c0-3.84-9.08-7.43-24.8-10.46C402.15,383.26,424.88,380.27,424.88,376.79Z" style="fill: rgb(255, 255, 255); opacity: 0.4; transform-origin: 244.71px 391.545px;" class="animable"></path></g></g><g id="Plants--inject-1--inject-117" class="animable" style="transform-origin: 251.16px 222.065px;"><path d="M84.5,278.34c10,26.13,38.88,39.37,38.88,39.37s12.57-29.14,2.53-55.28S87,223.06,87,223.06,74.46,252.2,84.5,278.34Z" style="fill: rgb(255, 193, 0); transform-origin: 105.202px 270.385px;" id="elp4wnb26elh" class="animable"></path><g id="elpiv2qpbs1a9"><path d="M84.5,278.34c10,26.13,38.88,39.37,38.88,39.37s12.57-29.14,2.53-55.28S87,223.06,87,223.06,74.46,252.2,84.5,278.34Z" style="fill: rgb(255, 255, 255); opacity: 0.7; transform-origin: 105.202px 270.385px;" class="animable"></path></g><line x1="123.38" y1="317.71" x2="87.03" y2="223.06" style="fill: none; stroke: rgb(255, 255, 255); stroke-linecap: round; stroke-linejoin: round; stroke-width: 0.898387px; transform-origin: 105.205px 270.385px;" id="el3k51qa236ax" class="animable"></line><line x1="99.95" y1="256.7" x2="84.47" y2="251.03" style="fill: none; stroke: rgb(255, 255, 255); stroke-linecap: round; stroke-linejoin: round; stroke-width: 0.898387px; transform-origin: 92.21px 253.865px;" id="elijetm0hm5v" class="animable"></line><line x1="106.14" y1="272.27" x2="112.51" y2="245.97" style="fill: none; stroke: rgb(255, 255, 255); stroke-linecap: round; stroke-linejoin: round; stroke-width: 0.898387px; transform-origin: 109.325px 259.12px;" id="el4ar5wuc5olf" class="animable"></line><line x1="109.42" y1="281.36" x2="86.44" y2="272.66" style="fill: none; stroke: rgb(255, 255, 255); stroke-linecap: round; stroke-linejoin: round; stroke-width: 0.898387px; transform-origin: 97.93px 277.01px;" id="eltpcdr28psmf" class="animable"></line><line x1="114.27" y1="293.43" x2="125.4" y2="271.84" style="fill: none; stroke: rgb(255, 255, 255); stroke-linecap: round; stroke-linejoin: round; stroke-width: 0.898387px; transform-origin: 119.835px 282.635px;" id="elu3muln7s5fe" class="animable"></line><line x1="118.3" y1="303.92" x2="101.02" y2="298.52" style="fill: none; stroke: rgb(255, 255, 255); stroke-linecap: round; stroke-linejoin: round; stroke-width: 0.898387px; transform-origin: 109.66px 301.22px;" id="eli846d7qb66" class="animable"></line><path d="M85.63,324.16c14.41,7.47,32,2.12,32,2.12s-5.76-17.48-20.17-24.95-32-2.13-32-2.13S71.22,316.68,85.63,324.16Z" style="fill: rgb(255, 193, 0); transform-origin: 91.545px 312.743px;" id="el75ubdh8jya4" class="animable"></path><g id="el58mwga0jjaj"><path d="M85.63,324.16c14.41,7.47,32,2.12,32,2.12s-5.76-17.48-20.17-24.95-32-2.13-32-2.13S71.22,316.68,85.63,324.16Z" style="fill: rgb(255, 255, 255); opacity: 0.7; transform-origin: 91.545px 312.743px;" class="animable"></path></g><line x1="117.65" y1="326.28" x2="65.47" y2="299.2" style="fill: none; stroke: rgb(255, 255, 255); stroke-linecap: round; stroke-linejoin: round; stroke-width: 0.898387px; transform-origin: 91.56px 312.74px;" id="eleakpuwwl2r5" class="animable"></line><line x1="84.02" y1="308.83" x2="75.12" y2="312.32" style="fill: none; stroke: rgb(255, 255, 255); stroke-linecap: round; stroke-linejoin: round; stroke-width: 0.898387px; transform-origin: 79.57px 310.575px;" id="el0ihg9suy9ks" class="animable"></line><line x1="92.69" y1="313.2" x2="85.33" y2="299.34" style="fill: none; stroke: rgb(255, 255, 255); stroke-linecap: round; stroke-linejoin: round; stroke-width: 0.898387px; transform-origin: 89.01px 306.27px;" id="elkwyxfe77lvq" class="animable"></line><line x1="97.61" y1="315.88" x2="84.29" y2="320.95" style="fill: none; stroke: rgb(255, 255, 255); stroke-linecap: round; stroke-linejoin: round; stroke-width: 0.898387px; transform-origin: 90.95px 318.415px;" id="elnry47m4hd5" class="animable"></line><line x1="104.36" y1="319.25" x2="100.88" y2="305.6" style="fill: none; stroke: rgb(255, 255, 255); stroke-linecap: round; stroke-linejoin: round; stroke-width: 0.898387px; transform-origin: 102.62px 312.425px;" id="elmt57exyhv2n" class="animable"></line><line x1="110.14" y1="322.26" x2="100.57" y2="326.56" style="fill: none; stroke: rgb(255, 255, 255); stroke-linecap: round; stroke-linejoin: round; stroke-width: 0.898387px; transform-origin: 105.355px 324.41px;" id="elj9gejopxp6" class="animable"></line><path d="M132.12,287.57c-6.38,14.93.28,32.08.28,32.08s17-7,23.37-22-.27-32.09-.27-32.09S138.51,272.64,132.12,287.57Z" style="fill: rgb(255, 193, 0); transform-origin: 143.944px 292.605px;" id="el298le7r7d8l" class="animable"></path><g id="elwsbnlns544"><path d="M132.12,287.57c-6.38,14.93.28,32.08.28,32.08s17-7,23.37-22-.27-32.09-.27-32.09S138.51,272.64,132.12,287.57Z" style="fill: rgb(255, 255, 255); opacity: 0.7; transform-origin: 143.944px 292.605px;" class="animable"></path></g><line x1="132.4" y1="319.65" x2="155.5" y2="265.59" style="fill: none; stroke: rgb(255, 255, 255); stroke-linecap: round; stroke-linejoin: round; stroke-width: 0.898387px; transform-origin: 143.95px 292.62px;" id="elbv30eywmkgc" class="animable"></line><line x1="147.29" y1="284.81" x2="143.14" y2="276.2" style="fill: none; stroke: rgb(255, 255, 255); stroke-linecap: round; stroke-linejoin: round; stroke-width: 0.898387px; transform-origin: 145.215px 280.505px;" id="elrkmlnansjif" class="animable"></line><line x1="143.58" y1="293.79" x2="156.85" y2="285.42" style="fill: none; stroke: rgb(255, 255, 255); stroke-linecap: round; stroke-linejoin: round; stroke-width: 0.898387px; transform-origin: 150.215px 289.605px;" id="elh4mept8akda" class="animable"></line><line x1="141.27" y1="298.89" x2="135.22" y2="285.99" style="fill: none; stroke: rgb(255, 255, 255); stroke-linecap: round; stroke-linejoin: round; stroke-width: 0.898387px; transform-origin: 138.245px 292.44px;" id="elcvdj3y1wekg" class="animable"></line><line x1="138.41" y1="305.87" x2="151.76" y2="301.39" style="fill: none; stroke: rgb(255, 255, 255); stroke-linecap: round; stroke-linejoin: round; stroke-width: 0.898387px; transform-origin: 145.085px 303.63px;" id="el2zfnkp9ytda" class="animable"></line><line x1="135.85" y1="311.86" x2="130.84" y2="302.64" style="fill: none; stroke: rgb(255, 255, 255); stroke-linecap: round; stroke-linejoin: round; stroke-width: 0.898387px; transform-origin: 133.345px 307.25px;" id="el86m5tvw10fh" class="animable"></line><path d="M241.71,113.39c1.57-.58,3.09-1.3,4.64-2s3.05-1.39,4.56-2.12a107.69,107.69,0,0,0,17.17-10.43,75.88,75.88,0,0,0,14.47-13.83,75.81,75.81,0,0,1-14.72,13.5,107.73,107.73,0,0,1-17.28,10c-12,5.77-25.1,8.44-37.71,12.88a48.7,48.7,0,0,0,4.54-4.9c2.16-2.83,3.41-6,.87-8.57-3.12-3.21-8.61-1.41-9,4.35a20.89,20.89,0,0,0,1.88,9.74c-2.65,1-5.28,2-7.88,3.06-1.91.84-3.8,1.7-5.67,2.62a33.86,33.86,0,0,0,2.79-3.16c2.16-2.83,3.41-5.94.87-8.56-3.12-3.22-8.6-1.42-9,4.35a20.57,20.57,0,0,0,1.67,9.26,94.07,94.07,0,0,0-15.17,10.2,38.1,38.1,0,0,0,2.11-4c1.41-3.27,1.87-6.59-1.23-8.52-3.81-2.37-8.7.71-7.69,6.4a20.71,20.71,0,0,0,3.91,8.64,99,99,0,0,0-13,14.25,33.17,33.17,0,0,0,.71-3.73c.43-3.53-.08-6.85-3.6-7.82-4.32-1.19-8.13,3.14-5.55,8.31a20.48,20.48,0,0,0,5.81,6.89,123.77,123.77,0,0,0-7.62,12.63c-.36.69-.7,1.38-1.05,2.07a4.63,4.63,0,0,0-.58.31c0-.69,0-1.37,0-2-.12-3.56-1.13-6.76-4.75-7.17-4.46-.51-7.56,4.35-4.21,9.06a20.33,20.33,0,0,0,6.46,5.73c0,.13,0,.27.05.41q-2.25,5-4.15,10.18c-.94,2.57-1.81,5.17-2.64,7.79-3.67-1.08-7.45,2.16-6.21,7.28a19.34,19.34,0,0,0,2.62,6q-1.74,7.55-2.92,15.2a4.23,4.23,0,0,0-3.66-2.07c-2.49-.05-4.08,1.49-5.13,3.67a4.82,4.82,0,0,0-2.16,2.8c-1-3.06-1.81-6.17-2.59-9.29a22.9,22.9,0,0,0,7.87-5.1c4.29-4.34,2.5-9.73-1.85-9.83-3.53-.08-5.25,3-6.2,6.66a36.38,36.38,0,0,0-.82,4.16c-.27-1.16-.54-2.32-.8-3.48-.67-2.94-1.11-5.91-1.67-8.86a20,20,0,0,1-.34-2.19,22.75,22.75,0,0,0,8.67-3.52c5-3.46,4.28-9.1,0-10-3.46-.74-5.73,2-7.34,5.38a39.92,39.92,0,0,0-1.79,4.54l-.38-3.15a151,151,0,0,1-.58-21.27,22.9,22.9,0,0,0,9.64-2.68c5.35-2.94,5.17-8.62,1-10-3.36-1.08-5.9,1.43-7.84,4.62a46,46,0,0,0-2.69,5.33q.34-6.09,1.09-12.15c.27-2.53.71-5,1.12-7.53a22.78,22.78,0,0,0,10.26-1.38c5.68-2.22,6.24-7.88,2.31-9.74-3.19-1.51-6,.65-8.38,3.56a59,59,0,0,0-3.91,5.85c.57-2.88,1.11-5.77,1.82-8.61a133.85,133.85,0,0,1,5.22-17.4,135.42,135.42,0,0,0-5.76,17.26c-.76,2.69-1.36,5.42-2,8.15a45,45,0,0,0-1-6c-.89-3.45-2.56-6.36-6.19-6-4.46.46-6.45,5.88-2.17,9.76A20.83,20.83,0,0,0,118,153.7c-.48,2.45-1,4.91-1.33,7.39q-.91,5.88-1.44,11.83A40.72,40.72,0,0,0,113.7,168c-1.32-3.3-3.36-6-6.91-5.13-4.36,1-5.63,6.66-.88,10a20.77,20.77,0,0,0,9,3.34,151,151,0,0,0-.07,21.38l.19,2.15a33.05,33.05,0,0,0-1.43-3.23c-1.64-3.15-3.94-5.6-7.39-4.41-4.24,1.46-4.93,7.19.12,10a20.55,20.55,0,0,0,9.12,2.42c.07.74.15,1.47.28,2.2.48,3,.84,6.07,1.42,9.06.16.86.34,1.71.51,2.57a26.21,26.21,0,0,0-1.6-2.26c-2.2-2.79-4.92-4.77-8.08-3-3.89,2.24-3.5,8,2,9.8a20.47,20.47,0,0,0,8.8.75c.73,3.34,1.53,6.66,2.47,10,.35,1.26.71,2.51,1.09,3.76a34.25,34.25,0,0,0-2.41-3.56c-2.2-2.79-4.92-4.77-8.08-2.95-3.89,2.23-3.5,8,2,9.8a20.76,20.76,0,0,0,9.76.6q.8,2.34,1.71,4.66c-2.77,1.78-3.3,6,.36,9.07a19.9,19.9,0,0,0,6,3.34c.2.28.4.56.62.84l.1.14a320.26,320.26,0,0,0,.76,32.05q.74,10.1,2.06,20.13c.91,6.71,1.94,13.32,3.39,20.07l6.5-1.55c-1.49-6.3-2.67-12.89-3.69-19.41s-1.81-13.13-2.44-19.72c-.81-8.79-1.3-17.6-1.39-26.42l0,0c.42.23.77.49,1.24.7a6.07,6.07,0,0,0,1.7.58l.59-4.42.08,0-.05,0-.12,0-.35-.14c-.23-.08-.5-.28-.75-.4a11.4,11.4,0,0,1-1.54-1.15l-.57-.51a22.35,22.35,0,0,0,7.91-1.83c5.58-2.48,5.88-8.15,1.87-9.83-3.26-1.36-6,.92-8.21,3.93-.62.86-1.2,1.77-1.75,2.68,0-1,0-1.94.09-2.91q.16-4.29.48-8.57a22.57,22.57,0,0,0,8.52-1.86c5.57-2.48,5.88-8.15,1.87-9.83-3.26-1.36-6,.92-8.21,3.93-.64.87-1.23,1.8-1.78,2.73.19-2.07.39-4.14.63-6.2.18-1.53.39-3.06.61-4.58q.8-3.15,1.75-6.27c.36-1.14.73-2.27,1.12-3.4a22.76,22.76,0,0,0,7.49,3.3c5.95,1.35,9.59-3,7.38-6.76-1.79-3.05-5.35-2.85-8.93-1.76a43.87,43.87,0,0,0-4.71,1.83,98.09,98.09,0,0,1,6.5-13.84,82.16,82.16,0,0,1,4.91-7.56,22.78,22.78,0,0,0,8,3.65c5.95,1.35,9.59-3,7.38-6.76-1.8-3-5.36-2.85-8.93-1.76a38.11,38.11,0,0,0-3.75,1.41,65.79,65.79,0,0,1,6.19-6.52,59,59,0,0,1,15-10,22.87,22.87,0,0,0,6.4,6.89c5,3.47,10,.77,9.37-3.52-.54-3.5-3.92-4.65-7.64-5a37.86,37.86,0,0,0-4.25-.08l.1,0a92.29,92.29,0,0,1,18.21-5.1,22.93,22.93,0,0,0,5.36,8.19c4.4,4.22,9.77,2.36,9.81-2,0-3.54-3.13-5.21-6.75-6.11a39.2,39.2,0,0,0-4.32-.77c6.58-1,13.25-1.86,19.83-3.19h0l0,0,.14,0a22.86,22.86,0,0,0,7.47,7.24c5.26,3.09,10,0,9.07-4.21-.79-3.45-4.25-4.34-8-4.38-1.05,0-2.11.06-3.14.14a133.57,133.57,0,0,0,13.16-3.94l.21.41.11-.12a22.83,22.83,0,0,0,7.51,7.31c5.27,3.09,10,0,9.08-4.21-.8-3.45-4.25-4.34-8-4.38a71.72,71.72,0,0,0-8,.67c1.56-.57,3.12-1.16,4.65-1.79a190.27,190.27,0,0,0,20.66-9.92,182.06,182.06,0,0,1-24.08,10.48,44,44,0,0,0,4-4.32c2.16-2.83,3.4-6,.86-8.56-3.12-3.22-8.6-1.42-9,4.35a20.69,20.69,0,0,0,1.72,9.36,127.21,127.21,0,0,1-16.29,4.19l-.53.1a46.58,46.58,0,0,0,4.29-4.65c2.16-2.83,3.41-5.95.87-8.56-3.13-3.22-8.61-1.42-9,4.35a20.52,20.52,0,0,0,1.67,9.25c-6.6,1.13-13.27,1.78-20,2.64l-1,.13a38.31,38.31,0,0,0,4.39-3c2.76-2.25,4.7-5,2.83-8.13-2.28-3.85-8-3.38-9.76,2.14a20.7,20.7,0,0,0-.53,9.43,93,93,0,0,0-18.44,4.66l-.2.08a35.64,35.64,0,0,0,2.78-2.72c2.36-2.66,3.84-5.68,1.5-8.48a5,5,0,0,0-7.81.1,4.54,4.54,0,0,0-1.1-1.91c-2.44-2.57-5.86-1.59-9.1.27-.84.49-1.67,1-2.46,1.59a94.7,94.7,0,0,1,11.68-13.15,22.75,22.75,0,0,0,8.08,4.4c5.85,1.72,9.76-2.41,7.78-6.28-1.6-3.16-5.17-3.19-8.8-2.32a34.54,34.54,0,0,0-3.54,1.08,89.94,89.94,0,0,1,13.8-9.55,22.73,22.73,0,0,0,7.08,6.65c5.27,3.09,10,0,9.07-4.21-.79-3.45-4.24-4.34-8-4.37a43,43,0,0,0-5.29.35c2-1.05,4-2,6.08-3q4-1.78,8.15-3.34a22.75,22.75,0,0,0,7,6.51c5.27,3.08,10.05,0,9.07-4.22-.79-3.44-4.24-4.33-8-4.37-.87,0-1.76,0-2.63.1,4.84-1.68,9.74-3.21,14.63-4.8C235.4,115.69,238.58,114.6,241.71,113.39ZM158,182.77c.5,0,1,0,1.54-.08-.86.84-1.69,1.71-2.5,2.59.24-.55.47-1.1.68-1.66C157.84,183.34,157.93,183.05,158,182.77ZM127,239.92l1.06-.53a20.77,20.77,0,0,0,4.67,2.34c0,.09,0,.18,0,.28l.84.07q-.3,3.22-.51,6.43a5.51,5.51,0,0,0-3.91-3.39C128.32,243.41,127.63,241.67,127,239.92Zm20.58-41.84c-.84,1.39-1.63,2.81-2.39,4.24L145,202c.88-3.13,1.86-6.23,2.91-9.31.74-2.15,1.54-4.28,2.37-6.4a22,22,0,0,0,2.62,3.91A83.88,83.88,0,0,0,147.55,198.08Zm24.36-34.48a7.8,7.8,0,0,0,5.18-1.71,20.91,20.91,0,0,0,1,8.14A62.19,62.19,0,0,0,167,176.41a4.26,4.26,0,0,0-1.7-2.89c-2.8-2.16-6-.66-8.95,1.67l-.13.12-.19-.12a5.78,5.78,0,0,0-.63-.28c.09-.17.16-.34.25-.5a119.34,119.34,0,0,1,7.33-12.74A22.59,22.59,0,0,0,171.91,163.6Z" style="fill: rgb(255, 193, 0); transform-origin: 192.666px 208.3px;" id="elkpixi4evls" class="animable"></path><path d="M282.55,85.06a75.81,75.81,0,0,1-14.72,13.5,107.73,107.73,0,0,1-17.28,10l-.68.32a52,52,0,0,0,4.69-5c2.16-2.82,3.4-5.94.86-8.56-3.12-3.22-8.6-1.42-9,4.35a20.76,20.76,0,0,0,2,9.94,137.24,137.24,0,0,1-15.54,5.65,49.46,49.46,0,0,0,4.48-4.83c2.16-2.83,3.4-6,.86-8.57-3.12-3.22-8.6-1.41-9,4.35a20.71,20.71,0,0,0,1.83,9.61c-6.06,1.84-12.19,3.56-18.19,5.67a48.7,48.7,0,0,0,4.54-4.9c2.16-2.83,3.41-6,.87-8.57-3.12-3.21-8.61-1.41-9,4.35a20.89,20.89,0,0,0,1.88,9.74c-2.65,1-5.28,2-7.88,3.06-1.91.84-3.8,1.7-5.67,2.62a33.86,33.86,0,0,0,2.79-3.16c2.16-2.83,3.41-5.94.87-8.56-3.12-3.22-8.6-1.42-9,4.35a20.57,20.57,0,0,0,1.67,9.26,94.07,94.07,0,0,0-15.17,10.2,38.1,38.1,0,0,0,2.11-4c1.41-3.27,1.87-6.59-1.23-8.52-3.81-2.37-8.7.71-7.69,6.4a20.71,20.71,0,0,0,3.91,8.64,99,99,0,0,0-13,14.25,33.17,33.17,0,0,0,.71-3.73c.43-3.53-.08-6.85-3.6-7.82-4.32-1.19-8.13,3.14-5.55,8.31a20.48,20.48,0,0,0,5.81,6.89,123.77,123.77,0,0,0-7.62,12.63c-.36.69-.7,1.38-1.05,2.07a4.63,4.63,0,0,0-.58.31c0-.69,0-1.37,0-2-.12-3.56-1.13-6.76-4.75-7.17-4.46-.51-7.56,4.35-4.21,9.06a20.33,20.33,0,0,0,6.46,5.73c0,.13,0,.27.05.41q-2.25,5-4.15,10.18c-.94,2.57-1.81,5.17-2.64,7.79-3.67-1.08-7.45,2.16-6.21,7.28a19.34,19.34,0,0,0,2.62,6q-1.74,7.55-2.92,15.2a4.23,4.23,0,0,0-3.66-2.07c-2.49-.05-4.08,1.49-5.13,3.67a4.82,4.82,0,0,0-2.16,2.8c-1-3.06-1.81-6.17-2.59-9.29a22.9,22.9,0,0,0,7.87-5.1c4.29-4.34,2.5-9.73-1.85-9.83-3.53-.08-5.25,3-6.2,6.66a36.38,36.38,0,0,0-.82,4.16c-.27-1.16-.54-2.32-.8-3.48-.67-2.94-1.11-5.91-1.67-8.86a20,20,0,0,1-.34-2.19,22.75,22.75,0,0,0,8.67-3.52c5-3.46,4.28-9.1,0-10-3.46-.74-5.73,2-7.34,5.38a39.92,39.92,0,0,0-1.79,4.54l-.38-3.15a151,151,0,0,1-.58-21.27,22.9,22.9,0,0,0,9.64-2.68c5.35-2.94,5.17-8.62,1-10-3.36-1.08-5.9,1.43-7.84,4.62a46,46,0,0,0-2.69,5.33q.34-6.09,1.09-12.15c.27-2.53.71-5,1.12-7.53a22.78,22.78,0,0,0,10.26-1.38c5.68-2.22,6.24-7.88,2.31-9.74-3.19-1.51-6,.65-8.38,3.56a59,59,0,0,0-3.91,5.85c.57-2.88,1.11-5.77,1.82-8.61a133.85,133.85,0,0,1,5.22-17.4,135.42,135.42,0,0,0-5.76,17.26c-.76,2.69-1.36,5.42-2,8.15a45,45,0,0,0-1-6c-.89-3.45-2.56-6.36-6.19-6-4.46.46-6.45,5.88-2.17,9.76A20.83,20.83,0,0,0,118,153.7c-.48,2.45-1,4.91-1.33,7.39q-.91,5.88-1.44,11.83A40.72,40.72,0,0,0,113.7,168c-1.32-3.3-3.36-6-6.91-5.13-4.36,1-5.63,6.66-.88,10a20.77,20.77,0,0,0,9,3.34,151,151,0,0,0-.07,21.38l.19,2.15a33.05,33.05,0,0,0-1.43-3.23c-1.64-3.15-3.94-5.6-7.39-4.41-4.24,1.46-4.93,7.19.12,10a20.55,20.55,0,0,0,9.12,2.42c.07.74.15,1.47.28,2.2.48,3,.84,6.07,1.42,9.06.16.86.34,1.71.51,2.57a26.21,26.21,0,0,0-1.6-2.26c-2.2-2.79-4.92-4.77-8.08-3-3.89,2.24-3.5,8,2,9.8a20.47,20.47,0,0,0,8.8.75c.73,3.34,1.53,6.66,2.47,10,.35,1.26.71,2.51,1.09,3.76a34.25,34.25,0,0,0-2.41-3.56c-2.2-2.79-4.92-4.77-8.08-2.95-3.89,2.23-3.5,8,2,9.8a20.76,20.76,0,0,0,9.76.6q.8,2.34,1.71,4.66c-2.77,1.78-3.3,6,.36,9.07a19.9,19.9,0,0,0,6,3.34c.2.28.4.56.62.84l.1.14a320.26,320.26,0,0,0,.76,32.05q.74,10.1,2.06,20.13c.91,6.71,1.94,13.32,3.39,20.07l6.5-1.55c-1.49-6.3-2.67-12.89-3.69-19.41s-1.81-13.13-2.44-19.72c-.81-8.79-1.3-17.6-1.39-26.42l0,0c.42.23.77.49,1.24.7a6.07,6.07,0,0,0,1.7.58l.59-4.42.08,0-.05,0-.12,0-.35-.14c-.23-.08-.5-.28-.75-.4a11.4,11.4,0,0,1-1.54-1.15l-.57-.51a22.35,22.35,0,0,0,7.91-1.83c5.58-2.48,5.88-8.15,1.87-9.83-3.26-1.36-6,.92-8.21,3.93-.62.86-1.2,1.77-1.75,2.68,0-1,0-1.94.09-2.91q.16-4.29.48-8.57a22.57,22.57,0,0,0,8.52-1.86c5.57-2.48,5.88-8.15,1.87-9.83-3.26-1.36-6,.92-8.21,3.93-.64.87-1.23,1.8-1.78,2.73.19-2.07.39-4.14.63-6.2.18-1.53.39-3.06.61-4.58q.8-3.15,1.75-6.27c.36-1.14.73-2.27,1.12-3.4a22.76,22.76,0,0,0,7.49,3.3c5.95,1.35,9.59-3,7.38-6.76-1.79-3.05-5.35-2.85-8.93-1.76a43.87,43.87,0,0,0-4.71,1.83,98.09,98.09,0,0,1,6.5-13.84,82.16,82.16,0,0,1,4.91-7.56,22.78,22.78,0,0,0,8,3.65c5.95,1.35,9.59-3,7.38-6.76-1.8-3-5.36-2.85-8.93-1.76a38.11,38.11,0,0,0-3.75,1.41,65.79,65.79,0,0,1,6.19-6.52,59,59,0,0,1,15-10,22.87,22.87,0,0,0,6.4,6.89c5,3.47,10,.77,9.37-3.52-.54-3.5-3.92-4.65-7.64-5a37.86,37.86,0,0,0-4.25-.08l.1,0a92.29,92.29,0,0,1,18.21-5.1,22.93,22.93,0,0,0,5.36,8.19c4.4,4.22,9.77,2.36,9.81-2,0-3.54-3.13-5.21-6.75-6.11a39.2,39.2,0,0,0-4.32-.77c6.58-1,13.25-1.86,19.83-3.19h0l0,0,.14,0a22.86,22.86,0,0,0,7.47,7.24c5.26,3.09,10,0,9.07-4.21-.79-3.45-4.25-4.34-8-4.38-1.05,0-2.11.06-3.14.14a133.57,133.57,0,0,0,13.16-3.94l.21.41.11-.12a22.83,22.83,0,0,0,7.51,7.31c5.27,3.09,10,0,9.08-4.21-.8-3.45-4.25-4.34-8-4.38a71.72,71.72,0,0,0-8,.67c1.56-.57,3.12-1.16,4.65-1.79a190.27,190.27,0,0,0,20.66-9.92,182.06,182.06,0,0,1-24.08,10.48,44,44,0,0,0,4-4.32c2.16-2.83,3.4-6,.86-8.56-3.12-3.22-8.6-1.42-9,4.35a20.69,20.69,0,0,0,1.72,9.36,127.21,127.21,0,0,1-16.29,4.19l-.53.1a46.58,46.58,0,0,0,4.29-4.65c2.16-2.83,3.41-5.95.87-8.56-3.13-3.22-8.61-1.42-9,4.35a20.52,20.52,0,0,0,1.67,9.25c-6.6,1.13-13.27,1.78-20,2.64l-1,.13a38.31,38.31,0,0,0,4.39-3c2.76-2.25,4.7-5,2.83-8.13-2.28-3.85-8-3.38-9.76,2.14a20.7,20.7,0,0,0-.53,9.43,93,93,0,0,0-18.44,4.66l-.2.08a35.64,35.64,0,0,0,2.78-2.72c2.36-2.66,3.84-5.68,1.5-8.48a5,5,0,0,0-7.81.1,4.54,4.54,0,0,0-1.1-1.91c-2.44-2.57-5.86-1.59-9.1.27-.84.49-1.67,1-2.46,1.59a94.7,94.7,0,0,1,11.68-13.15,22.75,22.75,0,0,0,8.08,4.4c5.85,1.72,9.76-2.41,7.78-6.28-1.6-3.16-5.17-3.19-8.8-2.32a34.54,34.54,0,0,0-3.54,1.08,89.94,89.94,0,0,1,13.8-9.55,22.73,22.73,0,0,0,7.08,6.65c5.27,3.09,10,0,9.07-4.21-.79-3.45-4.24-4.34-8-4.37a43,43,0,0,0-5.29.35c2-1.05,4-2,6.08-3q4-1.78,8.15-3.34a22.75,22.75,0,0,0,7,6.51c5.27,3.08,10.05,0,9.07-4.22-.79-3.44-4.24-4.33-8-4.37-.87,0-1.76,0-2.63.1,4.69-1.63,9.44-3.12,14.19-4.66a22.89,22.89,0,0,0,7.3,7c5.27,3.08,10,0,9.08-4.22-.8-3.44-4.25-4.33-8-4.37a42.07,42.07,0,0,0-4.38.25c2-.67,4-1.37,5.92-2.13,1.57-.58,3.09-1.3,4.64-2,.88-.36,1.75-.76,2.61-1.17a22.91,22.91,0,0,0,7.34,7c5.27,3.08,10.05,0,9.08-4.22-.8-3.45-4.25-4.34-8-4.37a50,50,0,0,0-6.21.46,108.37,108.37,0,0,0,16.9-10.3A75.88,75.88,0,0,0,282.55,85.06ZM133,248.51a5.51,5.51,0,0,0-3.91-3.39c-.76-1.71-1.45-3.45-2.11-5.2l1.06-.53a20.77,20.77,0,0,0,4.67,2.34c0,.09,0,.18,0,.28l.84.07Q133.2,245.3,133,248.51Zm14.56-50.43c-.84,1.39-1.63,2.81-2.39,4.24L145,202c.88-3.13,1.86-6.23,2.91-9.31.74-2.15,1.54-4.28,2.37-6.4a22,22,0,0,0,2.62,3.91A83.88,83.88,0,0,0,147.55,198.08Zm9.51-12.8c.24-.55.47-1.1.68-1.66.1-.28.19-.57.28-.85.5,0,1,0,1.54-.08C158.7,183.53,157.87,184.4,157.06,185.28Zm14.85-21.68a7.8,7.8,0,0,0,5.18-1.71,20.91,20.91,0,0,0,1,8.14A62.19,62.19,0,0,0,167,176.41a4.26,4.26,0,0,0-1.7-2.89c-2.8-2.16-6-.66-8.95,1.67l-.13.12-.19-.12a5.78,5.78,0,0,0-.63-.28c.09-.17.16-.34.25-.5a119.34,119.34,0,0,1,7.33-12.74A22.59,22.59,0,0,0,171.91,163.6Z" style="fill: rgb(255, 193, 0); transform-origin: 192.666px 208.325px;" id="el9es4zo2dytu" class="animable"></path><g id="elv47xo1v76bp"><path d="M133,248.51a5.51,5.51,0,0,0-3.91-3.39c-.76-1.71-1.45-3.45-2.11-5.2l1.06-.53a20.77,20.77,0,0,0,4.67,2.34c0,.09,0,.18,0,.28l.84.07Q133.2,245.3,133,248.51Zm14.56-50.43c-.84,1.39-1.63,2.81-2.39,4.24L145,202c.88-3.13,1.86-6.23,2.91-9.31.74-2.15,1.54-4.28,2.37-6.4a22,22,0,0,0,2.62,3.91A83.88,83.88,0,0,0,147.55,198.08Zm9.51-12.8c.24-.55.47-1.1.68-1.66.1-.28.19-.57.28-.85.5,0,1,0,1.54-.08C158.7,183.53,157.87,184.4,157.06,185.28Zm14.85-21.68a7.8,7.8,0,0,0,5.18-1.71,20.91,20.91,0,0,0,1,8.14A62.19,62.19,0,0,0,167,176.41a4.26,4.26,0,0,0-1.7-2.89c-2.8-2.16-6-.66-8.95,1.67l-.13.12-.19-.12a5.78,5.78,0,0,0-.63-.28c.09-.17.16-.34.25-.5a119.34,119.34,0,0,1,7.33-12.74A22.59,22.59,0,0,0,171.91,163.6Z" style="fill: rgb(255, 255, 255); opacity: 0.5; transform-origin: 152.54px 205.09px;" class="animable"></path></g><path d="M398.49,188.19c-.2-1.46-.28-2.94-.42-4.42s-.19-3-.25-4.43a95.88,95.88,0,0,1,.95-17.68,67.18,67.18,0,0,1,4.73-17,67.08,67.08,0,0,0-4.36,17.06,95,95,0,0,0-.59,17.6c.51,11.72,3.9,23,5.69,34.68a45.25,45.25,0,0,1,1.92-5.58c1.3-2.85,3.2-5.12,6.3-4.24,3.8,1.09,4.68,6.1.37,8.81a18.33,18.33,0,0,1-8.36,2.59c.36,2.46.67,4.92.91,7.4.14,1.83.26,3.66.33,5.5A30.5,30.5,0,0,1,407,225c1.3-2.86,3.21-5.12,6.3-4.24,3.8,1.09,4.68,6.1.37,8.81a18.1,18.1,0,0,1-7.9,2.55,82.33,82.33,0,0,1-1.61,16,32,32,0,0,1,2.24-3.3c1.95-2.46,4.35-4.2,7.13-2.59,3.43,2,3.07,7-1.77,8.63a18.28,18.28,0,0,1-8.35.56,86,86,0,0,1-5.67,16,31.09,31.09,0,0,1,2.6-2.11c2.57-1.8,5.36-2.79,7.58-.46,2.73,2.86.95,7.63-4.15,7.78A18.18,18.18,0,0,1,396,271a110,110,0,0,1-6.64,11.18c-.39.57-.79,1.12-1.18,1.68a3.62,3.62,0,0,1,0,.57c.51-.3,1-.6,1.58-.86,2.81-1.39,5.72-1.94,7.55.71,2.26,3.25-.23,7.68-5.29,7a17.86,17.86,0,0,1-7.14-2.64l-.34.14q-3,3.82-6.18,7.46c-1.61,1.8-3.27,3.56-5,5.3,2.37,2.4,1.42,6.69-3.07,7.86a17.4,17.4,0,0,1-5.72.44q-5.14,4.49-10.6,8.6a3.72,3.72,0,0,1,3.13,2c1.08,1.91.54,3.79-.72,5.52a4.25,4.25,0,0,1-1.27,2.84c2.78-.53,5.54-1.16,8.3-1.86a20.11,20.11,0,0,1,.68-8.23c1.59-5.14,6.53-6,8.41-2.66,1.54,2.71-.18,5.34-2.59,7.59a33.63,33.63,0,0,1-2.89,2.37l3-.83c2.56-.7,5-1.6,7.58-2.39.62-.18,1.23-.4,1.84-.64a20,20,0,0,1-.87-8.21c.59-5.35,5.28-7.12,7.76-4.19,2,2.38.83,5.29-1.12,7.95a39,39,0,0,1-2.78,3.28l2.6-1a134,134,0,0,0,16.77-8.41A20.22,20.22,0,0,1,400,303c.06-5.37,4.55-7.6,7.31-4.94,2.24,2.16,1.35,5.18-.32,8a41.48,41.48,0,0,1-3,4.31c3.06-1.87,6.07-3.84,9-5.91,1.85-1.26,3.6-2.65,5.38-4a20.17,20.17,0,0,1-3.2-8.55c-.64-5.34,3.52-8.13,6.6-5.85,2.51,1.86,2,5,.73,8a51.08,51.08,0,0,1-2.92,5.47c2-1.64,4-3.26,5.94-5a118.69,118.69,0,0,0,11.34-11.31,119,119,0,0,1-11,11.67c-1.78,1.71-3.65,3.31-5.51,4.93a40.72,40.72,0,0,1,5.11-1.76c3.05-.75,6-.66,7.23,2.31,1.5,3.66-1.89,7.46-6.69,5.75a18.35,18.35,0,0,1-7.23-5c-1.71,1.39-3.41,2.81-5.19,4.11q-4.2,3.15-8.6,6.05a34.17,34.17,0,0,1,4.46-.89c3.12-.35,6,.13,6.87,3.24,1,3.82-2.83,7.14-7.37,4.83a18.3,18.3,0,0,1-6.37-5.63,134.35,134.35,0,0,1-16.58,8.95l-1.76.75a29.39,29.39,0,0,1,3.11-.24c3.13,0,6,.73,6.51,3.91.62,3.9-3.54,6.83-7.82,4.07a18.23,18.23,0,0,1-5.68-6.08c-.6.25-1.2.5-1.82.7-2.55.88-5.07,1.87-7.64,2.67l-2.2.67a21.91,21.91,0,0,1,2.42.3c3.09.55,5.75,1.83,5.66,5.05-.12,3.95-4.75,6-8.44,2.53A18,18,0,0,1,364,329.6c-2.9.82-5.82,1.59-8.77,2.23-1.12.25-2.25.49-3.38.72a30.31,30.31,0,0,1,3.77.39c3.09.55,5.76,1.84,5.66,5.05-.11,4-4.75,6.05-8.44,2.53a18.17,18.17,0,0,1-4.53-7.33c-1.44.24-2.88.44-4.34.61-.23,2.89-3.31,5.08-7.19,3.5a17.49,17.49,0,0,1-5.12-3.31c-.3,0-.6-.07-.9-.13l-.16,0c-8.18,4.69-16.62,8.91-25.22,12.76q-8.16,3.63-16.51,6.78c-5.59,2.08-11.16,4-17,5.72l-1.51-5.7c5.51-1.46,11.13-3.29,16.62-5.21s11-4.06,16.35-6.32c7.16-3,14.22-6.32,21.11-9.92l0,0a10.34,10.34,0,0,1-1.06-.67,5.35,5.35,0,0,1-1.16-1.08l3.19-2.29-.05-.06,0,0,.08.08.26.21a5.15,5.15,0,0,0,.62.42,10.3,10.3,0,0,0,1.53.72l.63.23a20,20,0,0,1-1.87-6.91c-.39-5.36,3.89-8,6.86-5.55,2.42,2,1.79,5.05.37,8-.41.84-.88,1.67-1.35,2.47l2.22-1.27c2.18-1.28,4.33-2.6,6.46-3.94a20,20,0,0,1-2.1-7.4c-.4-5.36,3.88-8,6.86-5.55,2.42,2,1.78,5.05.36,8-.41.86-.89,1.7-1.37,2.52q2.3-1.51,4.55-3.07c1.11-.78,2.21-1.58,3.31-2.38q2.12-1.94,4.14-4c.73-.75,1.46-1.52,2.17-2.29a20,20,0,0,1-5.68-4.45c-3.52-4.06-1.65-8.71,2.18-8.55,3.12.13,4.45,3,5.09,6.21a38.59,38.59,0,0,1,.54,4.42A86.38,86.38,0,0,0,369.25,295a73.64,73.64,0,0,0,3.83-7,20,20,0,0,1-6.17-4.7c-3.53-4.06-1.65-8.7,2.18-8.54,3.12.13,4.45,3,5.09,6.2.22,1.16.36,2.36.46,3.51a57.72,57.72,0,0,0,2.49-7.53,51.93,51.93,0,0,0,1.52-15.81,20,20,0,0,1-8-2.1c-4.79-2.46-4.78-7.47-1.16-8.75,2.94-1,5.23,1.11,7,3.87a33.2,33.2,0,0,1,1.83,3.28.34.34,0,0,0,0-.1,80.84,80.84,0,0,0-3.62-16.27,20.28,20.28,0,0,1-8.59-.76c-5.12-1.67-5.9-6.61-2.54-8.45,2.74-1.5,5.35.26,7.56,2.7a35.4,35.4,0,0,1,2.4,3c-1.95-5.53-4.07-11.07-5.78-16.74h0l0-.13A20.13,20.13,0,0,1,359,218c-4.59-2.81-4.2-7.81-.5-8.81,3-.82,5.14,1.49,6.72,4.38a27.25,27.25,0,0,1,1.2,2.5q-1.5-5.88-2.42-11.87h-.4s0-.1.05-.14a20.1,20.1,0,0,1-8.81-2.79c-4.59-2.81-4.2-7.81-.5-8.81,3-.82,5.14,1.49,6.72,4.38a64.58,64.58,0,0,1,2.82,6.51c-.21-1.45-.39-2.9-.55-4.36a170,170,0,0,1-.89-20.18,163.39,163.39,0,0,0,1.88,23.08A39.05,39.05,0,0,1,366,197c1.3-2.85,3.21-5.12,6.3-4.23,3.8,1.08,4.68,6.09.37,8.8a18.31,18.31,0,0,1-8,2.57,112.85,112.85,0,0,0,3.53,14.4c.05.15.1.3.14.45a42.58,42.58,0,0,1,1.83-5.27c1.3-2.85,3.2-5.12,6.3-4.24,3.8,1.09,4.68,6.1.36,8.81a18.2,18.2,0,0,1-7.89,2.56c1.87,5.59,4.15,11,6.26,16.6.11.27.2.55.31.82a34.54,34.54,0,0,1,.5-4.65c.59-3.09,1.92-5.73,5.13-5.59,3.95.17,6,4.84,2.41,8.48a18.31,18.31,0,0,1-7.11,4.33,83.06,83.06,0,0,1,4.06,16.28,1.1,1.1,0,0,0,0,.18,30,30,0,0,1,1-3.29c1.09-2.94,2.81-5.35,6-4.7a4.38,4.38,0,0,1,3.17,6.12,3.93,3.93,0,0,1,1.95.06c3,.82,3.67,3.89,3.57,7.18,0,.86-.11,1.73-.21,2.58a83.59,83.59,0,0,0,5.36-14.56,20,20,0,0,1-6.78-4.44c-3.78-3.84-2.19-8.59,1.64-8.67,3.12-.07,4.62,2.69,5.46,5.88a29.7,29.7,0,0,1,.64,3.2,80.65,80.65,0,0,0,1.68-14.7,20.18,20.18,0,0,1-8.13-2.74c-4.58-2.81-4.19-7.8-.5-8.8,3-.82,5.14,1.49,6.73,4.38a38.87,38.87,0,0,1,1.92,4.26c0-2-.1-4-.21-6q-.28-3.87-.8-7.72a20.08,20.08,0,0,1-8-2.72c-4.58-2.8-4.2-7.8-.5-8.8,3-.82,5.14,1.49,6.73,4.38.37.68.7,1.38,1,2.09-.72-4.46-1.56-8.91-2.36-13.37C399.33,194.05,398.85,191.13,398.49,188.19Zm-19.08,93.94c-.2-.4-.4-.81-.58-1.24-.3,1-.62,2-1,3,.33-.41.66-.83,1-1.21ZM347.92,330c0-.32,0-.67,0-1a18,18,0,0,1-3.76-2.65l-.2.14-.41-.61q-2.37,1.56-4.78,3.07a4.86,4.86,0,0,1,4.27,1.63C344.65,330.45,346.29,330.26,347.92,330Zm23.95-33.41c-.73,1.23-1.5,2.44-2.3,3.63l.31,0q3.09-3,6-6.15c1.36-1.46,2.69-3,4-4.5a19.69,19.69,0,0,1-4.13-.41A73.43,73.43,0,0,1,371.87,296.63Zm16.66-33.29a6.91,6.91,0,0,1-.83-4.74,18.41,18.41,0,0,1-6.76,2.59,53.89,53.89,0,0,1-.31,11.35,3.78,3.78,0,0,1,3,.11c2.85,1.28,3,4.41,2.42,7.65a.8.8,0,0,1,0,.15l.17.1c.17.12.33.24.48.37.1-.13.2-.26.29-.4a103,103,0,0,0,6.84-11A20.06,20.06,0,0,1,388.53,263.34Z" style="fill: rgb(255, 193, 0); transform-origin: 353.61px 251.89px;" id="ellaqgrk1f3u" class="animable"></path><path d="M403.5,144.65a67.08,67.08,0,0,0-4.36,17.06,95,95,0,0,0-.59,17.6c0,.22,0,.44,0,.66a45.09,45.09,0,0,1,2-5.74c1.3-2.85,3.2-5.12,6.29-4.24,3.81,1.09,4.69,6.1.37,8.81a18.32,18.32,0,0,1-8.55,2.6,121.12,121.12,0,0,0,2.08,14.43,44.33,44.33,0,0,1,1.89-5.49c1.3-2.86,3.21-5.12,6.3-4.24,3.8,1.09,4.68,6.1.37,8.81a18.37,18.37,0,0,1-8.23,2.58c1.09,5.48,2.31,10.95,3.16,16.5a45.25,45.25,0,0,1,1.92-5.58c1.3-2.85,3.2-5.12,6.3-4.24,3.8,1.09,4.68,6.1.37,8.81a18.33,18.33,0,0,1-8.36,2.59c.36,2.46.67,4.92.91,7.4.14,1.83.26,3.66.33,5.5A30.5,30.5,0,0,1,407,225c1.3-2.86,3.21-5.12,6.3-4.24,3.8,1.09,4.68,6.1.37,8.81a18.1,18.1,0,0,1-7.9,2.55,82.33,82.33,0,0,1-1.61,16,32,32,0,0,1,2.24-3.3c1.95-2.46,4.35-4.2,7.13-2.59,3.43,2,3.07,7-1.77,8.63a18.28,18.28,0,0,1-8.35.56,86,86,0,0,1-5.67,16,31.09,31.09,0,0,1,2.6-2.11c2.57-1.8,5.36-2.79,7.58-.46,2.73,2.86.95,7.63-4.15,7.78A18.18,18.18,0,0,1,396,271a110,110,0,0,1-6.64,11.18c-.39.57-.79,1.12-1.18,1.68a3.62,3.62,0,0,1,0,.57c.51-.3,1-.6,1.58-.86,2.81-1.39,5.72-1.94,7.55.71,2.26,3.25-.23,7.68-5.29,7a17.86,17.86,0,0,1-7.14-2.64l-.34.14q-3,3.82-6.18,7.46c-1.61,1.8-3.27,3.56-5,5.3,2.37,2.4,1.42,6.69-3.07,7.86a17.4,17.4,0,0,1-5.72.44q-5.14,4.49-10.6,8.6a3.72,3.72,0,0,1,3.13,2c1.08,1.91.54,3.79-.72,5.52a4.25,4.25,0,0,1-1.27,2.84c2.78-.53,5.54-1.16,8.3-1.86a20.11,20.11,0,0,1,.68-8.23c1.59-5.14,6.53-6,8.41-2.66,1.54,2.71-.18,5.34-2.59,7.59a33.63,33.63,0,0,1-2.89,2.37l3-.83c2.56-.7,5-1.6,7.58-2.39.62-.18,1.23-.4,1.84-.64a20,20,0,0,1-.87-8.21c.59-5.35,5.28-7.12,7.76-4.19,2,2.38.83,5.29-1.12,7.95a39,39,0,0,1-2.78,3.28l2.6-1a134,134,0,0,0,16.77-8.41A20.22,20.22,0,0,1,400,303c.06-5.37,4.55-7.6,7.31-4.94,2.24,2.16,1.35,5.18-.32,8a41.48,41.48,0,0,1-3,4.31c3.06-1.87,6.07-3.84,9-5.91,1.85-1.26,3.6-2.65,5.38-4a20.17,20.17,0,0,1-3.2-8.55c-.64-5.34,3.52-8.13,6.6-5.85,2.51,1.86,2,5,.73,8a51.08,51.08,0,0,1-2.92,5.47c2-1.64,4-3.26,5.94-5a118.69,118.69,0,0,0,11.34-11.31,119,119,0,0,1-11,11.67c-1.78,1.71-3.65,3.31-5.51,4.93a40.72,40.72,0,0,1,5.11-1.76c3.05-.75,6-.66,7.23,2.31,1.5,3.66-1.89,7.46-6.69,5.75a18.35,18.35,0,0,1-7.23-5c-1.71,1.39-3.41,2.81-5.19,4.11q-4.2,3.15-8.6,6.05a34.17,34.17,0,0,1,4.46-.89c3.12-.35,6,.13,6.87,3.24,1,3.82-2.83,7.14-7.37,4.83a18.3,18.3,0,0,1-6.37-5.63,134.35,134.35,0,0,1-16.58,8.95l-1.76.75a29.39,29.39,0,0,1,3.11-.24c3.13,0,6,.73,6.51,3.91.62,3.9-3.54,6.83-7.82,4.07a18.23,18.23,0,0,1-5.68-6.08c-.6.25-1.2.5-1.82.7-2.55.88-5.07,1.87-7.64,2.67l-2.2.67a21.91,21.91,0,0,1,2.42.3c3.09.55,5.75,1.83,5.66,5.05-.12,3.95-4.75,6-8.44,2.53A18,18,0,0,1,364,329.6c-2.9.82-5.82,1.59-8.77,2.23-1.12.25-2.25.49-3.38.72a30.31,30.31,0,0,1,3.77.39c3.09.55,5.76,1.84,5.66,5.05-.11,4-4.75,6.05-8.44,2.53a18.17,18.17,0,0,1-4.53-7.33c-1.44.24-2.88.44-4.34.61-.23,2.89-3.31,5.08-7.19,3.5a17.49,17.49,0,0,1-5.12-3.31c-.3,0-.6-.07-.9-.13l-.16,0c-8.18,4.69-16.62,8.91-25.22,12.76q-8.16,3.63-16.51,6.78c-5.59,2.08-11.16,4-17,5.72l-1.51-5.7c5.51-1.46,11.13-3.29,16.62-5.21s11-4.06,16.35-6.32c7.16-3,14.22-6.32,21.11-9.92l0,0a10.34,10.34,0,0,1-1.06-.67,5.35,5.35,0,0,1-1.16-1.08l3.19-2.29-.05-.06,0,0,.08.08.26.21a5.15,5.15,0,0,0,.62.42,10.3,10.3,0,0,0,1.53.72l.63.23a20,20,0,0,1-1.87-6.91c-.39-5.36,3.89-8,6.86-5.55,2.42,2,1.79,5.05.37,8-.41.84-.88,1.67-1.35,2.47l2.22-1.27c2.18-1.28,4.33-2.6,6.46-3.94a20,20,0,0,1-2.1-7.4c-.4-5.36,3.88-8,6.86-5.55,2.42,2,1.78,5.05.36,8-.41.86-.89,1.7-1.37,2.52q2.3-1.51,4.55-3.07c1.11-.78,2.21-1.58,3.31-2.38q2.12-1.94,4.14-4c.73-.75,1.46-1.52,2.17-2.29a20,20,0,0,1-5.68-4.45c-3.52-4.06-1.65-8.71,2.18-8.55,3.12.13,4.45,3,5.09,6.21a38.59,38.59,0,0,1,.54,4.42A86.38,86.38,0,0,0,369.25,295a73.64,73.64,0,0,0,3.83-7,20,20,0,0,1-6.17-4.7c-3.53-4.06-1.65-8.7,2.18-8.54,3.12.13,4.45,3,5.09,6.2.22,1.16.36,2.36.46,3.51a57.72,57.72,0,0,0,2.49-7.53,51.93,51.93,0,0,0,1.52-15.81,20,20,0,0,1-8-2.1c-4.79-2.46-4.78-7.47-1.16-8.75,2.94-1,5.23,1.11,7,3.87a33.2,33.2,0,0,1,1.83,3.28.34.34,0,0,0,0-.1,80.84,80.84,0,0,0-3.62-16.27,20.28,20.28,0,0,1-8.59-.76c-5.12-1.67-5.9-6.61-2.54-8.45,2.74-1.5,5.35.26,7.56,2.7a35.4,35.4,0,0,1,2.4,3c-1.95-5.53-4.07-11.07-5.78-16.74h0l0-.13A20.13,20.13,0,0,1,359,218c-4.59-2.81-4.2-7.81-.5-8.81,3-.82,5.14,1.49,6.72,4.38a27.25,27.25,0,0,1,1.2,2.5q-1.5-5.88-2.42-11.87h-.4s0-.1.05-.14a20.1,20.1,0,0,1-8.81-2.79c-4.59-2.81-4.2-7.81-.5-8.81,3-.82,5.14,1.49,6.72,4.38a64.58,64.58,0,0,1,2.82,6.51c-.21-1.45-.39-2.9-.55-4.36a170,170,0,0,1-.89-20.18,163.39,163.39,0,0,0,1.88,23.08A39.05,39.05,0,0,1,366,197c1.3-2.85,3.21-5.12,6.3-4.23,3.8,1.08,4.68,6.09.37,8.8a18.31,18.31,0,0,1-8,2.57,112.85,112.85,0,0,0,3.53,14.4c.05.15.1.3.14.45a42.58,42.58,0,0,1,1.83-5.27c1.3-2.85,3.2-5.12,6.3-4.24,3.8,1.09,4.68,6.1.36,8.81a18.2,18.2,0,0,1-7.89,2.56c1.87,5.59,4.15,11,6.26,16.6.11.27.2.55.31.82a34.54,34.54,0,0,1,.5-4.65c.59-3.09,1.92-5.73,5.13-5.59,3.95.17,6,4.84,2.41,8.48a18.31,18.31,0,0,1-7.11,4.33,83.06,83.06,0,0,1,4.06,16.28,1.1,1.1,0,0,0,0,.18,30,30,0,0,1,1-3.29c1.09-2.94,2.81-5.35,6-4.7a4.38,4.38,0,0,1,3.17,6.12,3.93,3.93,0,0,1,1.95.06c3,.82,3.67,3.89,3.57,7.18,0,.86-.11,1.73-.21,2.58a83.59,83.59,0,0,0,5.36-14.56,20,20,0,0,1-6.78-4.44c-3.78-3.84-2.19-8.59,1.64-8.67,3.12-.07,4.62,2.69,5.46,5.88a29.7,29.7,0,0,1,.64,3.2,80.65,80.65,0,0,0,1.68-14.7,20.18,20.18,0,0,1-8.13-2.74c-4.58-2.81-4.19-7.8-.5-8.8,3-.82,5.14,1.49,6.73,4.38a38.87,38.87,0,0,1,1.92,4.26c0-2-.1-4-.21-6q-.28-3.87-.8-7.72a20.08,20.08,0,0,1-8-2.72c-4.58-2.8-4.2-7.8-.5-8.8,3-.82,5.14,1.49,6.73,4.38.37.68.7,1.38,1,2.09-.69-4.33-1.51-8.64-2.29-13a20.09,20.09,0,0,1-8.47-2.77c-4.59-2.81-4.2-7.8-.51-8.81,3-.81,5.14,1.5,6.73,4.39a33.51,33.51,0,0,1,1.62,3.51c-.29-1.82-.57-3.65-.8-5.49-.2-1.46-.28-2.94-.42-4.42-.09-.83-.14-1.67-.17-2.51a20.3,20.3,0,0,1-8.54-2.77c-4.59-2.81-4.2-7.81-.5-8.81,3-.82,5.14,1.49,6.72,4.38a43.07,43.07,0,0,1,2.23,5,95.76,95.76,0,0,1,1-17.42A67.18,67.18,0,0,1,403.5,144.65ZM338.74,329a4.86,4.86,0,0,1,4.27,1.63c1.64-.13,3.28-.32,4.91-.54,0-.32,0-.67,0-1a18,18,0,0,1-3.76-2.65l-.2.14-.41-.61Q341.15,327.44,338.74,329Zm33.13-32.32c-.73,1.23-1.5,2.44-2.3,3.63l.31,0q3.09-3,6-6.15c1.36-1.46,2.69-3,4-4.5a19.69,19.69,0,0,1-4.13-.41A73.43,73.43,0,0,1,371.87,296.63Zm6-12.72c.33-.41.66-.83,1-1.21l.54-.57c-.2-.4-.4-.81-.58-1.24C378.53,281.91,378.21,282.91,377.86,283.91Zm10.67-20.57a6.91,6.91,0,0,1-.83-4.74,18.41,18.41,0,0,1-6.76,2.59,53.89,53.89,0,0,1-.31,11.35,3.78,3.78,0,0,1,3,.11c2.85,1.28,3,4.41,2.42,7.65a.8.8,0,0,1,0,.15l.17.1c.17.12.33.24.48.37.1-.13.2-.26.29-.4a103,103,0,0,0,6.84-11A20.06,20.06,0,0,1,388.53,263.34Z" style="fill: rgb(255, 193, 0); transform-origin: 353.61px 251.885px;" id="elg7qipjc1eo" class="animable"></path><g id="elczcbgyyfer"><g style="opacity: 0.7; transform-origin: 269.821px 222.09px;" class="animable"><path d="M282.55,85.06a75.81,75.81,0,0,1-14.72,13.5,107.73,107.73,0,0,1-17.28,10l-.68.32a52,52,0,0,0,4.69-5c2.16-2.82,3.4-5.94.86-8.56-3.12-3.22-8.6-1.42-9,4.35a20.76,20.76,0,0,0,2,9.94,137.24,137.24,0,0,1-15.54,5.65,49.46,49.46,0,0,0,4.48-4.83c2.16-2.83,3.4-6,.86-8.57-3.12-3.22-8.6-1.41-9,4.35a20.71,20.71,0,0,0,1.83,9.61c-6.06,1.84-12.19,3.56-18.19,5.67a48.7,48.7,0,0,0,4.54-4.9c2.16-2.83,3.41-6,.87-8.57-3.12-3.21-8.61-1.41-9,4.35a20.89,20.89,0,0,0,1.88,9.74c-2.65,1-5.28,2-7.88,3.06-1.91.84-3.8,1.7-5.67,2.62a33.86,33.86,0,0,0,2.79-3.16c2.16-2.83,3.41-5.94.87-8.56-3.12-3.22-8.6-1.42-9,4.35a20.57,20.57,0,0,0,1.67,9.26,94.07,94.07,0,0,0-15.17,10.2,38.1,38.1,0,0,0,2.11-4c1.41-3.27,1.87-6.59-1.23-8.52-3.81-2.37-8.7.71-7.69,6.4a20.71,20.71,0,0,0,3.91,8.64,99,99,0,0,0-13,14.25,33.17,33.17,0,0,0,.71-3.73c.43-3.53-.08-6.85-3.6-7.82-4.32-1.19-8.13,3.14-5.55,8.31a20.48,20.48,0,0,0,5.81,6.89,123.77,123.77,0,0,0-7.62,12.63c-.36.69-.7,1.38-1.05,2.07a4.63,4.63,0,0,0-.58.31c0-.69,0-1.37,0-2-.12-3.56-1.13-6.76-4.75-7.17-4.46-.51-7.56,4.35-4.21,9.06a20.33,20.33,0,0,0,6.46,5.73c0,.13,0,.27.05.41q-2.25,5-4.15,10.18c-.94,2.57-1.81,5.17-2.64,7.79-3.67-1.08-7.45,2.16-6.21,7.28a19.34,19.34,0,0,0,2.62,6q-1.74,7.55-2.92,15.2a4.23,4.23,0,0,0-3.66-2.07c-2.49-.05-4.08,1.49-5.13,3.67a4.82,4.82,0,0,0-2.16,2.8c-1-3.06-1.81-6.17-2.59-9.29a22.9,22.9,0,0,0,7.87-5.1c4.29-4.34,2.5-9.73-1.85-9.83-3.53-.08-5.25,3-6.2,6.66a36.38,36.38,0,0,0-.82,4.16c-.27-1.16-.54-2.32-.8-3.48-.67-2.94-1.11-5.91-1.67-8.86a20,20,0,0,1-.34-2.19,22.75,22.75,0,0,0,8.67-3.52c5-3.46,4.28-9.1,0-10-3.46-.74-5.73,2-7.34,5.38a39.92,39.92,0,0,0-1.79,4.54l-.38-3.15a151,151,0,0,1-.58-21.27,22.9,22.9,0,0,0,9.64-2.68c5.35-2.94,5.17-8.62,1-10-3.36-1.08-5.9,1.43-7.84,4.62a46,46,0,0,0-2.69,5.33q.34-6.09,1.09-12.15c.27-2.53.71-5,1.12-7.53a22.78,22.78,0,0,0,10.26-1.38c5.68-2.22,6.24-7.88,2.31-9.74-3.19-1.51-6,.65-8.38,3.56a59,59,0,0,0-3.91,5.85c.57-2.88,1.11-5.77,1.82-8.61a133.85,133.85,0,0,1,5.22-17.4,135.42,135.42,0,0,0-5.76,17.26c-.76,2.69-1.36,5.42-2,8.15a45,45,0,0,0-1-6c-.89-3.45-2.56-6.36-6.19-6-4.46.46-6.45,5.88-2.17,9.76A20.83,20.83,0,0,0,118,153.7c-.48,2.45-1,4.91-1.33,7.39q-.91,5.88-1.44,11.83A40.72,40.72,0,0,0,113.7,168c-1.32-3.3-3.36-6-6.91-5.13-4.36,1-5.63,6.66-.88,10a20.77,20.77,0,0,0,9,3.34,151,151,0,0,0-.07,21.38l.19,2.15a33.05,33.05,0,0,0-1.43-3.23c-1.64-3.15-3.94-5.6-7.39-4.41-4.24,1.46-4.93,7.19.12,10a20.55,20.55,0,0,0,9.12,2.42c.07.74.15,1.47.28,2.2.48,3,.84,6.07,1.42,9.06.16.86.34,1.71.51,2.57a26.21,26.21,0,0,0-1.6-2.26c-2.2-2.79-4.92-4.77-8.08-3-3.89,2.24-3.5,8,2,9.8a20.47,20.47,0,0,0,8.8.75c.73,3.34,1.53,6.66,2.47,10,.35,1.26.71,2.51,1.09,3.76a34.25,34.25,0,0,0-2.41-3.56c-2.2-2.79-4.92-4.77-8.08-2.95-3.89,2.23-3.5,8,2,9.8a20.76,20.76,0,0,0,9.76.6q.8,2.34,1.71,4.66c-2.77,1.78-3.3,6,.36,9.07a19.9,19.9,0,0,0,6,3.34c.2.28.4.56.62.84l.1.14a320.26,320.26,0,0,0,.76,32.05q.74,10.1,2.06,20.13c.91,6.71,1.94,13.32,3.39,20.07l6.5-1.55c-1.49-6.3-2.67-12.89-3.69-19.41s-1.81-13.13-2.44-19.72c-.81-8.79-1.3-17.6-1.39-26.42l0,0c.42.23.77.49,1.24.7a6.07,6.07,0,0,0,1.7.58l.59-4.42.08,0-.05,0-.12,0-.35-.14c-.23-.08-.5-.28-.75-.4a11.4,11.4,0,0,1-1.54-1.15l-.57-.51a22.35,22.35,0,0,0,7.91-1.83c5.58-2.48,5.88-8.15,1.87-9.83-3.26-1.36-6,.92-8.21,3.93-.62.86-1.2,1.77-1.75,2.68,0-1,0-1.94.09-2.91q.16-4.29.48-8.57a22.57,22.57,0,0,0,8.52-1.86c5.57-2.48,5.88-8.15,1.87-9.83-3.26-1.36-6,.92-8.21,3.93-.64.87-1.23,1.8-1.78,2.73.19-2.07.39-4.14.63-6.2.18-1.53.39-3.06.61-4.58q.8-3.15,1.75-6.27c.36-1.14.73-2.27,1.12-3.4a22.76,22.76,0,0,0,7.49,3.3c5.95,1.35,9.59-3,7.38-6.76-1.79-3.05-5.35-2.85-8.93-1.76a43.87,43.87,0,0,0-4.71,1.83,98.09,98.09,0,0,1,6.5-13.84,82.16,82.16,0,0,1,4.91-7.56,22.78,22.78,0,0,0,8,3.65c5.95,1.35,9.59-3,7.38-6.76-1.8-3-5.36-2.85-8.93-1.76a38.11,38.11,0,0,0-3.75,1.41,65.79,65.79,0,0,1,6.19-6.52,59,59,0,0,1,15-10,22.87,22.87,0,0,0,6.4,6.89c5,3.47,10,.77,9.37-3.52-.54-3.5-3.92-4.65-7.64-5a37.86,37.86,0,0,0-4.25-.08l.1,0a92.29,92.29,0,0,1,18.21-5.1,22.93,22.93,0,0,0,5.36,8.19c4.4,4.22,9.77,2.36,9.81-2,0-3.54-3.13-5.21-6.75-6.11a39.2,39.2,0,0,0-4.32-.77c6.58-1,13.25-1.86,19.83-3.19h0l0,0,.14,0a22.86,22.86,0,0,0,7.47,7.24c5.26,3.09,10,0,9.07-4.21-.79-3.45-4.25-4.34-8-4.38-1.05,0-2.11.06-3.14.14a133.57,133.57,0,0,0,13.16-3.94l.21.41.11-.12a22.83,22.83,0,0,0,7.51,7.31c5.27,3.09,10,0,9.08-4.21-.8-3.45-4.25-4.34-8-4.38a71.72,71.72,0,0,0-8,.67c1.56-.57,3.12-1.16,4.65-1.79a190.27,190.27,0,0,0,20.66-9.92,182.06,182.06,0,0,1-24.08,10.48,44,44,0,0,0,4-4.32c2.16-2.83,3.4-6,.86-8.56-3.12-3.22-8.6-1.42-9,4.35a20.69,20.69,0,0,0,1.72,9.36,127.21,127.21,0,0,1-16.29,4.19l-.53.1a46.58,46.58,0,0,0,4.29-4.65c2.16-2.83,3.41-5.95.87-8.56-3.13-3.22-8.61-1.42-9,4.35a20.52,20.52,0,0,0,1.67,9.25c-6.6,1.13-13.27,1.78-20,2.64l-1,.13a38.31,38.31,0,0,0,4.39-3c2.76-2.25,4.7-5,2.83-8.13-2.28-3.85-8-3.38-9.76,2.14a20.7,20.7,0,0,0-.53,9.43,93,93,0,0,0-18.44,4.66l-.2.08a35.64,35.64,0,0,0,2.78-2.72c2.36-2.66,3.84-5.68,1.5-8.48a5,5,0,0,0-7.81.1,4.54,4.54,0,0,0-1.1-1.91c-2.44-2.57-5.86-1.59-9.1.27-.84.49-1.67,1-2.46,1.59a94.7,94.7,0,0,1,11.68-13.15,22.75,22.75,0,0,0,8.08,4.4c5.85,1.72,9.76-2.41,7.78-6.28-1.6-3.16-5.17-3.19-8.8-2.32a34.54,34.54,0,0,0-3.54,1.08,89.94,89.94,0,0,1,13.8-9.55,22.73,22.73,0,0,0,7.08,6.65c5.27,3.09,10,0,9.07-4.21-.79-3.45-4.24-4.34-8-4.37a43,43,0,0,0-5.29.35c2-1.05,4-2,6.08-3q4-1.78,8.15-3.34a22.75,22.75,0,0,0,7,6.51c5.27,3.08,10.05,0,9.07-4.22-.79-3.44-4.24-4.33-8-4.37-.87,0-1.76,0-2.63.1,4.69-1.63,9.44-3.12,14.19-4.66a22.89,22.89,0,0,0,7.3,7c5.27,3.08,10,0,9.08-4.22-.8-3.44-4.25-4.33-8-4.37a42.07,42.07,0,0,0-4.38.25c2-.67,4-1.37,5.92-2.13,1.57-.58,3.09-1.3,4.64-2,.88-.36,1.75-.76,2.61-1.17a22.91,22.91,0,0,0,7.34,7c5.27,3.08,10.05,0,9.08-4.22-.8-3.45-4.25-4.34-8-4.37a50,50,0,0,0-6.21.46,108.37,108.37,0,0,0,16.9-10.3A75.88,75.88,0,0,0,282.55,85.06ZM133,248.51a5.51,5.51,0,0,0-3.91-3.39c-.76-1.71-1.45-3.45-2.11-5.2l1.06-.53a20.77,20.77,0,0,0,4.67,2.34c0,.09,0,.18,0,.28l.84.07Q133.2,245.3,133,248.51Zm14.56-50.43c-.84,1.39-1.63,2.81-2.39,4.24L145,202c.88-3.13,1.86-6.23,2.91-9.31.74-2.15,1.54-4.28,2.37-6.4a22,22,0,0,0,2.62,3.91A83.88,83.88,0,0,0,147.55,198.08Zm9.51-12.8c.24-.55.47-1.1.68-1.66.1-.28.19-.57.28-.85.5,0,1,0,1.54-.08C158.7,183.53,157.87,184.4,157.06,185.28Zm14.85-21.68a7.8,7.8,0,0,0,5.18-1.71,20.91,20.91,0,0,0,1,8.14A62.19,62.19,0,0,0,167,176.41a4.26,4.26,0,0,0-1.7-2.89c-2.8-2.16-6-.66-8.95,1.67l-.13.12-.19-.12a5.78,5.78,0,0,0-.63-.28c.09-.17.16-.34.25-.5a119.34,119.34,0,0,1,7.33-12.74A22.59,22.59,0,0,0,171.91,163.6Z" style="fill: rgb(255, 255, 255); transform-origin: 192.666px 208.325px;" id="el7byuvd1sr7x" class="animable"></path><path d="M398.49,188.19c-.2-1.46-.28-2.94-.42-4.42s-.19-3-.25-4.43a95.88,95.88,0,0,1,.95-17.68,67.18,67.18,0,0,1,4.73-17,67.08,67.08,0,0,0-4.36,17.06,95,95,0,0,0-.59,17.6c.51,11.72,3.9,23,5.69,34.68a45.25,45.25,0,0,1,1.92-5.58c1.3-2.85,3.2-5.12,6.3-4.24,3.8,1.09,4.68,6.1.37,8.81a18.33,18.33,0,0,1-8.36,2.59c.36,2.46.67,4.92.91,7.4.14,1.83.26,3.66.33,5.5A30.5,30.5,0,0,1,407,225c1.3-2.86,3.21-5.12,6.3-4.24,3.8,1.09,4.68,6.1.37,8.81a18.1,18.1,0,0,1-7.9,2.55,82.33,82.33,0,0,1-1.61,16,32,32,0,0,1,2.24-3.3c1.95-2.46,4.35-4.2,7.13-2.59,3.43,2,3.07,7-1.77,8.63a18.28,18.28,0,0,1-8.35.56,86,86,0,0,1-5.67,16,31.09,31.09,0,0,1,2.6-2.11c2.57-1.8,5.36-2.79,7.58-.46,2.73,2.86.95,7.63-4.15,7.78A18.18,18.18,0,0,1,396,271a110,110,0,0,1-6.64,11.18c-.39.57-.79,1.12-1.18,1.68a3.62,3.62,0,0,1,0,.57c.51-.3,1-.6,1.58-.86,2.81-1.39,5.72-1.94,7.55.71,2.26,3.25-.23,7.68-5.29,7a17.86,17.86,0,0,1-7.14-2.64l-.34.14q-3,3.82-6.18,7.46c-1.61,1.8-3.27,3.56-5,5.3,2.37,2.4,1.42,6.69-3.07,7.86a17.4,17.4,0,0,1-5.72.44q-5.14,4.49-10.6,8.6a3.72,3.72,0,0,1,3.13,2c1.08,1.91.54,3.79-.72,5.52a4.25,4.25,0,0,1-1.27,2.84c2.78-.53,5.54-1.16,8.3-1.86a20.11,20.11,0,0,1,.68-8.23c1.59-5.14,6.53-6,8.41-2.66,1.54,2.71-.18,5.34-2.59,7.59a33.63,33.63,0,0,1-2.89,2.37l3-.83c2.56-.7,5-1.6,7.58-2.39.62-.18,1.23-.4,1.84-.64a20,20,0,0,1-.87-8.21c.59-5.35,5.28-7.12,7.76-4.19,2,2.38.83,5.29-1.12,7.95a39,39,0,0,1-2.78,3.28l2.6-1a134,134,0,0,0,16.77-8.41A20.22,20.22,0,0,1,400,303c.06-5.37,4.55-7.6,7.31-4.94,2.24,2.16,1.35,5.18-.32,8a41.48,41.48,0,0,1-3,4.31c3.06-1.87,6.07-3.84,9-5.91,1.85-1.26,3.6-2.65,5.38-4a20.17,20.17,0,0,1-3.2-8.55c-.64-5.34,3.52-8.13,6.6-5.85,2.51,1.86,2,5,.73,8a51.08,51.08,0,0,1-2.92,5.47c2-1.64,4-3.26,5.94-5a118.69,118.69,0,0,0,11.34-11.31,119,119,0,0,1-11,11.67c-1.78,1.71-3.65,3.31-5.51,4.93a40.72,40.72,0,0,1,5.11-1.76c3.05-.75,6-.66,7.23,2.31,1.5,3.66-1.89,7.46-6.69,5.75a18.35,18.35,0,0,1-7.23-5c-1.71,1.39-3.41,2.81-5.19,4.11q-4.2,3.15-8.6,6.05a34.17,34.17,0,0,1,4.46-.89c3.12-.35,6,.13,6.87,3.24,1,3.82-2.83,7.14-7.37,4.83a18.3,18.3,0,0,1-6.37-5.63,134.35,134.35,0,0,1-16.58,8.95l-1.76.75a29.39,29.39,0,0,1,3.11-.24c3.13,0,6,.73,6.51,3.91.62,3.9-3.54,6.83-7.82,4.07a18.23,18.23,0,0,1-5.68-6.08c-.6.25-1.2.5-1.82.7-2.55.88-5.07,1.87-7.64,2.67l-2.2.67a21.91,21.91,0,0,1,2.42.3c3.09.55,5.75,1.83,5.66,5.05-.12,3.95-4.75,6-8.44,2.53A18,18,0,0,1,364,329.6c-2.9.82-5.82,1.59-8.77,2.23-1.12.25-2.25.49-3.38.72a30.31,30.31,0,0,1,3.77.39c3.09.55,5.76,1.84,5.66,5.05-.11,4-4.75,6.05-8.44,2.53a18.17,18.17,0,0,1-4.53-7.33c-1.44.24-2.88.44-4.34.61-.23,2.89-3.31,5.08-7.19,3.5a17.49,17.49,0,0,1-5.12-3.31c-.3,0-.6-.07-.9-.13l-.16,0c-8.18,4.69-16.62,8.91-25.22,12.76q-8.16,3.63-16.51,6.78c-5.59,2.08-11.16,4-17,5.72l-1.51-5.7c5.51-1.46,11.13-3.29,16.62-5.21s11-4.06,16.35-6.32c7.16-3,14.22-6.32,21.11-9.92l0,0a10.34,10.34,0,0,1-1.06-.67,5.35,5.35,0,0,1-1.16-1.08l3.19-2.29-.05-.06,0,0,.08.08.26.21a5.15,5.15,0,0,0,.62.42,10.3,10.3,0,0,0,1.53.72l.63.23a20,20,0,0,1-1.87-6.91c-.39-5.36,3.89-8,6.86-5.55,2.42,2,1.79,5.05.37,8-.41.84-.88,1.67-1.35,2.47l2.22-1.27c2.18-1.28,4.33-2.6,6.46-3.94a20,20,0,0,1-2.1-7.4c-.4-5.36,3.88-8,6.86-5.55,2.42,2,1.78,5.05.36,8-.41.86-.89,1.7-1.37,2.52q2.3-1.51,4.55-3.07c1.11-.78,2.21-1.58,3.31-2.38q2.12-1.94,4.14-4c.73-.75,1.46-1.52,2.17-2.29a20,20,0,0,1-5.68-4.45c-3.52-4.06-1.65-8.71,2.18-8.55,3.12.13,4.45,3,5.09,6.21a38.59,38.59,0,0,1,.54,4.42A86.38,86.38,0,0,0,369.25,295a73.64,73.64,0,0,0,3.83-7,20,20,0,0,1-6.17-4.7c-3.53-4.06-1.65-8.7,2.18-8.54,3.12.13,4.45,3,5.09,6.2.22,1.16.36,2.36.46,3.51a57.72,57.72,0,0,0,2.49-7.53,51.93,51.93,0,0,0,1.52-15.81,20,20,0,0,1-8-2.1c-4.79-2.46-4.78-7.47-1.16-8.75,2.94-1,5.23,1.11,7,3.87a33.2,33.2,0,0,1,1.83,3.28.34.34,0,0,0,0-.1,80.84,80.84,0,0,0-3.62-16.27,20.28,20.28,0,0,1-8.59-.76c-5.12-1.67-5.9-6.61-2.54-8.45,2.74-1.5,5.35.26,7.56,2.7a35.4,35.4,0,0,1,2.4,3c-1.95-5.53-4.07-11.07-5.78-16.74h0l0-.13A20.13,20.13,0,0,1,359,218c-4.59-2.81-4.2-7.81-.5-8.81,3-.82,5.14,1.49,6.72,4.38a27.25,27.25,0,0,1,1.2,2.5q-1.5-5.88-2.42-11.87h-.4s0-.1.05-.14a20.1,20.1,0,0,1-8.81-2.79c-4.59-2.81-4.2-7.81-.5-8.81,3-.82,5.14,1.49,6.72,4.38a64.58,64.58,0,0,1,2.82,6.51c-.21-1.45-.39-2.9-.55-4.36a170,170,0,0,1-.89-20.18,163.39,163.39,0,0,0,1.88,23.08A39.05,39.05,0,0,1,366,197c1.3-2.85,3.21-5.12,6.3-4.23,3.8,1.08,4.68,6.09.37,8.8a18.31,18.31,0,0,1-8,2.57,112.85,112.85,0,0,0,3.53,14.4c.05.15.1.3.14.45a42.58,42.58,0,0,1,1.83-5.27c1.3-2.85,3.2-5.12,6.3-4.24,3.8,1.09,4.68,6.1.36,8.81a18.2,18.2,0,0,1-7.89,2.56c1.87,5.59,4.15,11,6.26,16.6.11.27.2.55.31.82a34.54,34.54,0,0,1,.5-4.65c.59-3.09,1.92-5.73,5.13-5.59,3.95.17,6,4.84,2.41,8.48a18.31,18.31,0,0,1-7.11,4.33,83.06,83.06,0,0,1,4.06,16.28,1.1,1.1,0,0,0,0,.18,30,30,0,0,1,1-3.29c1.09-2.94,2.81-5.35,6-4.7a4.38,4.38,0,0,1,3.17,6.12,3.93,3.93,0,0,1,1.95.06c3,.82,3.67,3.89,3.57,7.18,0,.86-.11,1.73-.21,2.58a83.59,83.59,0,0,0,5.36-14.56,20,20,0,0,1-6.78-4.44c-3.78-3.84-2.19-8.59,1.64-8.67,3.12-.07,4.62,2.69,5.46,5.88a29.7,29.7,0,0,1,.64,3.2,80.65,80.65,0,0,0,1.68-14.7,20.18,20.18,0,0,1-8.13-2.74c-4.58-2.81-4.19-7.8-.5-8.8,3-.82,5.14,1.49,6.73,4.38a38.87,38.87,0,0,1,1.92,4.26c0-2-.1-4-.21-6q-.28-3.87-.8-7.72a20.08,20.08,0,0,1-8-2.72c-4.58-2.8-4.2-7.8-.5-8.8,3-.82,5.14,1.49,6.73,4.38.37.68.7,1.38,1,2.09-.72-4.46-1.56-8.91-2.36-13.37C399.33,194.05,398.85,191.13,398.49,188.19Zm-19.08,93.94c-.2-.4-.4-.81-.58-1.24-.3,1-.62,2-1,3,.33-.41.66-.83,1-1.21ZM347.92,330c0-.32,0-.67,0-1a18,18,0,0,1-3.76-2.65l-.2.14-.41-.61q-2.37,1.56-4.78,3.07a4.86,4.86,0,0,1,4.27,1.63C344.65,330.45,346.29,330.26,347.92,330Zm23.95-33.41c-.73,1.23-1.5,2.44-2.3,3.63l.31,0q3.09-3,6-6.15c1.36-1.46,2.69-3,4-4.5a19.69,19.69,0,0,1-4.13-.41A73.43,73.43,0,0,1,371.87,296.63Zm16.66-33.29a6.91,6.91,0,0,1-.83-4.74,18.41,18.41,0,0,1-6.76,2.59,53.89,53.89,0,0,1-.31,11.35,3.78,3.78,0,0,1,3,.11c2.85,1.28,3,4.41,2.42,7.65a.8.8,0,0,1,0,.15l.17.1c.17.12.33.24.48.37.1-.13.2-.26.29-.4a103,103,0,0,0,6.84-11A20.06,20.06,0,0,1,388.53,263.34Z" style="fill: rgb(255, 255, 255); transform-origin: 353.61px 251.89px;" id="el3c7p0piigc" class="animable"></path><path d="M403.5,144.65a67.08,67.08,0,0,0-4.36,17.06,95,95,0,0,0-.59,17.6c0,.22,0,.44,0,.66a45.09,45.09,0,0,1,2-5.74c1.3-2.85,3.2-5.12,6.29-4.24,3.81,1.09,4.69,6.1.37,8.81a18.32,18.32,0,0,1-8.55,2.6,121.12,121.12,0,0,0,2.08,14.43,44.33,44.33,0,0,1,1.89-5.49c1.3-2.86,3.21-5.12,6.3-4.24,3.8,1.09,4.68,6.1.37,8.81a18.37,18.37,0,0,1-8.23,2.58c1.09,5.48,2.31,10.95,3.16,16.5a45.25,45.25,0,0,1,1.92-5.58c1.3-2.85,3.2-5.12,6.3-4.24,3.8,1.09,4.68,6.1.37,8.81a18.33,18.33,0,0,1-8.36,2.59c.36,2.46.67,4.92.91,7.4.14,1.83.26,3.66.33,5.5A30.5,30.5,0,0,1,407,225c1.3-2.86,3.21-5.12,6.3-4.24,3.8,1.09,4.68,6.1.37,8.81a18.1,18.1,0,0,1-7.9,2.55,82.33,82.33,0,0,1-1.61,16,32,32,0,0,1,2.24-3.3c1.95-2.46,4.35-4.2,7.13-2.59,3.43,2,3.07,7-1.77,8.63a18.28,18.28,0,0,1-8.35.56,86,86,0,0,1-5.67,16,31.09,31.09,0,0,1,2.6-2.11c2.57-1.8,5.36-2.79,7.58-.46,2.73,2.86.95,7.63-4.15,7.78A18.18,18.18,0,0,1,396,271a110,110,0,0,1-6.64,11.18c-.39.57-.79,1.12-1.18,1.68a3.62,3.62,0,0,1,0,.57c.51-.3,1-.6,1.58-.86,2.81-1.39,5.72-1.94,7.55.71,2.26,3.25-.23,7.68-5.29,7a17.86,17.86,0,0,1-7.14-2.64l-.34.14q-3,3.82-6.18,7.46c-1.61,1.8-3.27,3.56-5,5.3,2.37,2.4,1.42,6.69-3.07,7.86a17.4,17.4,0,0,1-5.72.44q-5.14,4.49-10.6,8.6a3.72,3.72,0,0,1,3.13,2c1.08,1.91.54,3.79-.72,5.52a4.25,4.25,0,0,1-1.27,2.84c2.78-.53,5.54-1.16,8.3-1.86a20.11,20.11,0,0,1,.68-8.23c1.59-5.14,6.53-6,8.41-2.66,1.54,2.71-.18,5.34-2.59,7.59a33.63,33.63,0,0,1-2.89,2.37l3-.83c2.56-.7,5-1.6,7.58-2.39.62-.18,1.23-.4,1.84-.64a20,20,0,0,1-.87-8.21c.59-5.35,5.28-7.12,7.76-4.19,2,2.38.83,5.29-1.12,7.95a39,39,0,0,1-2.78,3.28l2.6-1a134,134,0,0,0,16.77-8.41A20.22,20.22,0,0,1,400,303c.06-5.37,4.55-7.6,7.31-4.94,2.24,2.16,1.35,5.18-.32,8a41.48,41.48,0,0,1-3,4.31c3.06-1.87,6.07-3.84,9-5.91,1.85-1.26,3.6-2.65,5.38-4a20.17,20.17,0,0,1-3.2-8.55c-.64-5.34,3.52-8.13,6.6-5.85,2.51,1.86,2,5,.73,8a51.08,51.08,0,0,1-2.92,5.47c2-1.64,4-3.26,5.94-5a118.69,118.69,0,0,0,11.34-11.31,119,119,0,0,1-11,11.67c-1.78,1.71-3.65,3.31-5.51,4.93a40.72,40.72,0,0,1,5.11-1.76c3.05-.75,6-.66,7.23,2.31,1.5,3.66-1.89,7.46-6.69,5.75a18.35,18.35,0,0,1-7.23-5c-1.71,1.39-3.41,2.81-5.19,4.11q-4.2,3.15-8.6,6.05a34.17,34.17,0,0,1,4.46-.89c3.12-.35,6,.13,6.87,3.24,1,3.82-2.83,7.14-7.37,4.83a18.3,18.3,0,0,1-6.37-5.63,134.35,134.35,0,0,1-16.58,8.95l-1.76.75a29.39,29.39,0,0,1,3.11-.24c3.13,0,6,.73,6.51,3.91.62,3.9-3.54,6.83-7.82,4.07a18.23,18.23,0,0,1-5.68-6.08c-.6.25-1.2.5-1.82.7-2.55.88-5.07,1.87-7.64,2.67l-2.2.67a21.91,21.91,0,0,1,2.42.3c3.09.55,5.75,1.83,5.66,5.05-.12,3.95-4.75,6-8.44,2.53A18,18,0,0,1,364,329.6c-2.9.82-5.82,1.59-8.77,2.23-1.12.25-2.25.49-3.38.72a30.31,30.31,0,0,1,3.77.39c3.09.55,5.76,1.84,5.66,5.05-.11,4-4.75,6.05-8.44,2.53a18.17,18.17,0,0,1-4.53-7.33c-1.44.24-2.88.44-4.34.61-.23,2.89-3.31,5.08-7.19,3.5a17.49,17.49,0,0,1-5.12-3.31c-.3,0-.6-.07-.9-.13l-.16,0c-8.18,4.69-16.62,8.91-25.22,12.76q-8.16,3.63-16.51,6.78c-5.59,2.08-11.16,4-17,5.72l-1.51-5.7c5.51-1.46,11.13-3.29,16.62-5.21s11-4.06,16.35-6.32c7.16-3,14.22-6.32,21.11-9.92l0,0a10.34,10.34,0,0,1-1.06-.67,5.35,5.35,0,0,1-1.16-1.08l3.19-2.29-.05-.06,0,0,.08.08.26.21a5.15,5.15,0,0,0,.62.42,10.3,10.3,0,0,0,1.53.72l.63.23a20,20,0,0,1-1.87-6.91c-.39-5.36,3.89-8,6.86-5.55,2.42,2,1.79,5.05.37,8-.41.84-.88,1.67-1.35,2.47l2.22-1.27c2.18-1.28,4.33-2.6,6.46-3.94a20,20,0,0,1-2.1-7.4c-.4-5.36,3.88-8,6.86-5.55,2.42,2,1.78,5.05.36,8-.41.86-.89,1.7-1.37,2.52q2.3-1.51,4.55-3.07c1.11-.78,2.21-1.58,3.31-2.38q2.12-1.94,4.14-4c.73-.75,1.46-1.52,2.17-2.29a20,20,0,0,1-5.68-4.45c-3.52-4.06-1.65-8.71,2.18-8.55,3.12.13,4.45,3,5.09,6.21a38.59,38.59,0,0,1,.54,4.42A86.38,86.38,0,0,0,369.25,295a73.64,73.64,0,0,0,3.83-7,20,20,0,0,1-6.17-4.7c-3.53-4.06-1.65-8.7,2.18-8.54,3.12.13,4.45,3,5.09,6.2.22,1.16.36,2.36.46,3.51a57.72,57.72,0,0,0,2.49-7.53,51.93,51.93,0,0,0,1.52-15.81,20,20,0,0,1-8-2.1c-4.79-2.46-4.78-7.47-1.16-8.75,2.94-1,5.23,1.11,7,3.87a33.2,33.2,0,0,1,1.83,3.28.34.34,0,0,0,0-.1,80.84,80.84,0,0,0-3.62-16.27,20.28,20.28,0,0,1-8.59-.76c-5.12-1.67-5.9-6.61-2.54-8.45,2.74-1.5,5.35.26,7.56,2.7a35.4,35.4,0,0,1,2.4,3c-1.95-5.53-4.07-11.07-5.78-16.74h0l0-.13A20.13,20.13,0,0,1,359,218c-4.59-2.81-4.2-7.81-.5-8.81,3-.82,5.14,1.49,6.72,4.38a27.25,27.25,0,0,1,1.2,2.5q-1.5-5.88-2.42-11.87h-.4s0-.1.05-.14a20.1,20.1,0,0,1-8.81-2.79c-4.59-2.81-4.2-7.81-.5-8.81,3-.82,5.14,1.49,6.72,4.38a64.58,64.58,0,0,1,2.82,6.51c-.21-1.45-.39-2.9-.55-4.36a170,170,0,0,1-.89-20.18,163.39,163.39,0,0,0,1.88,23.08A39.05,39.05,0,0,1,366,197c1.3-2.85,3.21-5.12,6.3-4.23,3.8,1.08,4.68,6.09.37,8.8a18.31,18.31,0,0,1-8,2.57,112.85,112.85,0,0,0,3.53,14.4c.05.15.1.3.14.45a42.58,42.58,0,0,1,1.83-5.27c1.3-2.85,3.2-5.12,6.3-4.24,3.8,1.09,4.68,6.1.36,8.81a18.2,18.2,0,0,1-7.89,2.56c1.87,5.59,4.15,11,6.26,16.6.11.27.2.55.31.82a34.54,34.54,0,0,1,.5-4.65c.59-3.09,1.92-5.73,5.13-5.59,3.95.17,6,4.84,2.41,8.48a18.31,18.31,0,0,1-7.11,4.33,83.06,83.06,0,0,1,4.06,16.28,1.1,1.1,0,0,0,0,.18,30,30,0,0,1,1-3.29c1.09-2.94,2.81-5.35,6-4.7a4.38,4.38,0,0,1,3.17,6.12,3.93,3.93,0,0,1,1.95.06c3,.82,3.67,3.89,3.57,7.18,0,.86-.11,1.73-.21,2.58a83.59,83.59,0,0,0,5.36-14.56,20,20,0,0,1-6.78-4.44c-3.78-3.84-2.19-8.59,1.64-8.67,3.12-.07,4.62,2.69,5.46,5.88a29.7,29.7,0,0,1,.64,3.2,80.65,80.65,0,0,0,1.68-14.7,20.18,20.18,0,0,1-8.13-2.74c-4.58-2.81-4.19-7.8-.5-8.8,3-.82,5.14,1.49,6.73,4.38a38.87,38.87,0,0,1,1.92,4.26c0-2-.1-4-.21-6q-.28-3.87-.8-7.72a20.08,20.08,0,0,1-8-2.72c-4.58-2.8-4.2-7.8-.5-8.8,3-.82,5.14,1.49,6.73,4.38.37.68.7,1.38,1,2.09-.69-4.33-1.51-8.64-2.29-13a20.09,20.09,0,0,1-8.47-2.77c-4.59-2.81-4.2-7.8-.51-8.81,3-.81,5.14,1.5,6.73,4.39a33.51,33.51,0,0,1,1.62,3.51c-.29-1.82-.57-3.65-.8-5.49-.2-1.46-.28-2.94-.42-4.42-.09-.83-.14-1.67-.17-2.51a20.3,20.3,0,0,1-8.54-2.77c-4.59-2.81-4.2-7.81-.5-8.81,3-.82,5.14,1.49,6.72,4.38a43.07,43.07,0,0,1,2.23,5,95.76,95.76,0,0,1,1-17.42A67.18,67.18,0,0,1,403.5,144.65ZM338.74,329a4.86,4.86,0,0,1,4.27,1.63c1.64-.13,3.28-.32,4.91-.54,0-.32,0-.67,0-1a18,18,0,0,1-3.76-2.65l-.2.14-.41-.61Q341.15,327.44,338.74,329Zm33.13-32.32c-.73,1.23-1.5,2.44-2.3,3.63l.31,0q3.09-3,6-6.15c1.36-1.46,2.69-3,4-4.5a19.69,19.69,0,0,1-4.13-.41A73.43,73.43,0,0,1,371.87,296.63Zm6-12.72c.33-.41.66-.83,1-1.21l.54-.57c-.2-.4-.4-.81-.58-1.24C378.53,281.91,378.21,282.91,377.86,283.91Zm10.67-20.57a6.91,6.91,0,0,1-.83-4.74,18.41,18.41,0,0,1-6.76,2.59,53.89,53.89,0,0,1-.31,11.35,3.78,3.78,0,0,1,3,.11c2.85,1.28,3,4.41,2.42,7.65a.8.8,0,0,1,0,.15l.17.1c.17.12.33.24.48.37.1-.13.2-.26.29-.4a103,103,0,0,0,6.84-11A20.06,20.06,0,0,1,388.53,263.34Z" style="fill: rgb(255, 255, 255); transform-origin: 353.61px 251.885px;" id="elcab50zma5nn" class="animable"></path></g></g></g><g id="credit-card--inject-1--inject-117" class="animable animator-active" style="transform-origin: 216.954px 255.375px;"><path d="M281.88,319.12,133.66,292a8.12,8.12,0,0,1-6.53-9.45l15.43-84.39a8.13,8.13,0,0,1,9.46-6.53l148.22,27.12a8.13,8.13,0,0,1,6.54,9.45l-15.44,84.39A8.13,8.13,0,0,1,281.88,319.12Z" style="fill: rgb(46, 53, 58); stroke: rgb(46, 53, 58); stroke-linecap: round; stroke-linejoin: round; transform-origin: 216.954px 255.375px;" id="elq81vjkgtwl" class="animable"></path><path d="M279.53,215c-10.56,5.85-23,10.7-35.89,11.51-35.51,2.23-50.59-13.81-90.13-8.69A99,99,0,0,0,138.4,221l-6.62,36.18a91.77,91.77,0,0,1,36.3-16.48c34.91-7.32,49.55,5.63,81.08,1.13,18.71-2.67,35.44-14.66,46-24Z" style="fill: rgb(255, 193, 0); stroke: rgb(46, 53, 58); stroke-linecap: round; stroke-linejoin: round; transform-origin: 213.47px 236.09px;" id="elprvdd76l76" class="animable"></path><path d="M140.17,211.26c1.39-.36,2.8-.71,4.26-1,34.91-7.32,49.55,5.63,81.08,1.12a64.42,64.42,0,0,0,14-3.73l-86.6-15.85a9.06,9.06,0,0,0-10.53,7.28Z" style="fill: rgb(255, 193, 0); stroke: rgb(46, 53, 58); stroke-linecap: round; stroke-linejoin: round; transform-origin: 189.84px 202.007px;" id="el70c5wak8njk" class="animable"></path><g id="el1dpqs5cjb27"><rect x="152.68" y="218.82" width="17.86" height="17.26" rx="3.07" style="fill: rgb(255, 255, 255); stroke: rgb(46, 53, 58); stroke-linecap: round; stroke-linejoin: round; transform-origin: 161.61px 227.45px; transform: rotate(10.4077deg);" class="animable"></rect></g><g id="elxfrly3rbhwj"><rect x="158.84" y="224.77" width="5.54" height="5.35" rx="1.5" style="fill: rgb(255, 255, 255); stroke: rgb(46, 53, 58); stroke-linecap: round; stroke-linejoin: round; transform-origin: 161.61px 227.445px; transform: rotate(10.37deg);" class="animable"></rect></g><path d="M154,219.25l5.15.95a1.83,1.83,0,0,1,1.48,2.14l-.39,2.14" style="fill: none; stroke: rgb(46, 53, 58); stroke-linecap: round; stroke-linejoin: round; transform-origin: 157.331px 221.865px;" id="elcgd34scn88r" class="animable"></path><path d="M171.6,222.47l-5.08-.93a1.84,1.84,0,0,0-2.15,1.48l-.39,2.14" style="fill: none; stroke: rgb(46, 53, 58); stroke-linecap: round; stroke-linejoin: round; transform-origin: 167.79px 223.334px;" id="el6leujy7qet5" class="animable"></path><path d="M151.6,232.58l5.14.94a1.85,1.85,0,0,0,2.15-1.49l.39-2.14" style="fill: none; stroke: rgb(46, 53, 58); stroke-linecap: round; stroke-linejoin: round; transform-origin: 155.44px 231.72px;" id="elaiflewi18ub" class="animable"></path><path d="M169.16,235.79l-5.08-.93a1.84,1.84,0,0,1-1.48-2.15l.39-2.14" style="fill: none; stroke: rgb(46, 53, 58); stroke-linecap: round; stroke-linejoin: round; transform-origin: 165.864px 233.18px;" id="el0727sud6tb12" class="animable"></path><line x1="152.78" y1="226.26" x2="158.81" y2="227.36" style="fill: none; stroke: rgb(46, 53, 58); stroke-linecap: round; stroke-linejoin: round; transform-origin: 155.795px 226.81px;" id="elz8toexrg1q8" class="animable"></line><line x1="164.11" y1="228.33" x2="170.14" y2="229.43" style="fill: none; stroke: rgb(46, 53, 58); stroke-linecap: round; stroke-linejoin: round; transform-origin: 167.125px 228.88px;" id="el3nmmdq6zl5i" class="animable"></line><path d="M267.05,299.25a8.36,8.36,0,1,1-6.72-9.72A8.36,8.36,0,0,1,267.05,299.25Z" style="fill: rgb(255, 255, 255); stroke: rgb(46, 53, 58); stroke-linecap: round; stroke-linejoin: round; transform-origin: 258.825px 297.753px;" id="el0kxrs8ikqfb" class="animable"></path><path d="M278.21,301.3a8.35,8.35,0,1,1-6.71-9.72A8.36,8.36,0,0,1,278.21,301.3Z" style="fill: rgb(255, 193, 0); stroke: rgb(46, 53, 58); stroke-linecap: round; stroke-linejoin: round; transform-origin: 269.996px 299.794px;" id="el7hmok5i95n3" class="animable"></path></g><g id="Character--inject-1--inject-117" class="animable" style="transform-origin: 334.873px 274.204px;"><path d="M266,207s29.8-4.89,33.74-4.66S337,211.09,337,211.09a19.77,19.77,0,0,1,.7,6.1c-.18,3.16-3.64,8.23-3.64,8.23L299.83,210l-31.41,1.46Z" style="fill: rgb(255, 255, 255); stroke: rgb(46, 53, 58); stroke-linecap: round; stroke-linejoin: round; transform-origin: 301.859px 213.876px;" id="elsdhjqbz5kw" class="animable"></path><g id="elp3d6xrs0v6"><path d="M323.55,207.72l9.07,10-5.7-2.28,4.11,4.33-4.34-1.83-2.05,1.6-12.53-8.21,3.19,3.42s-15.27-8-16-8-29.86,4.33-29.86,4.33l2.57.21L299.83,210,334,225.42s3.46-5.07,3.64-8.23a20.13,20.13,0,0,0-.7-6.1S330.84,209.52,323.55,207.72Z" style="fill: rgb(255, 193, 0); opacity: 0.5; mix-blend-mode: multiply; transform-origin: 303.548px 216.085px;" class="animable"></path></g><path d="M268.42,211.46s-7.36,2.55-8.51,2.44c-.85-.08-4.88-.27-7-.36-.71,0-1.4,0-1.44-.72h0a1.37,1.37,0,0,1,1.13-1.41l2.7-.47s-9.37-1.34-10.08-2.45,3.76-.61,4.9-.81c1.76-.3,10.65-.19,10.65-.19L266,207Z" style="fill: rgb(255, 255, 255); stroke: rgb(46, 53, 58); stroke-linecap: round; stroke-linejoin: round; transform-origin: 256.782px 210.452px;" id="el0tpkq6n8ibi" class="animable"></path><path d="M311.27,185.76l-.62,10.64,3.42.54s3.1,11.89,4.09,12.63S327,206,327,206l4.83,5.79,6.46-4.45-3.48-5.36s2.2-20.2,1.43-24.72-3.46-5.71-9.64-6.07a27.22,27.22,0,0,0-11.12,1.77s1.93-3.68-4.63-3.37-9,7.4-7.86,10.91S311.27,185.76,311.27,185.76Z" style="fill: rgb(255, 255, 255); stroke: rgb(46, 53, 58); stroke-linecap: round; stroke-linejoin: round; transform-origin: 320.505px 190.681px;" id="elahvfquiexdu" class="animable"></path><g id="el8jbbi0wpg1u"><path d="M334.79,201.93s2.2-20.2,1.43-24.72-3.46-5.71-9.64-6.07a27.22,27.22,0,0,0-11.12,1.77,2.17,2.17,0,0,0-.24-2.38,29.9,29.9,0,0,0-4.48,1.12c-2.12.74-4.67,1.58-6.8,2.26a9.14,9.14,0,0,0-1.13,6L305,183a21,21,0,0,0,6.26,2.81l-.12,2.05a25.19,25.19,0,0,0,3.92.48c2.28,0,5.7-1.82,5.7-1.82s-2,3.19.45,5a8.92,8.92,0,0,0,4.79,1.83s1.6,5.47,1.6,7.29c0,1.42-6.53,6.74-9.39,9,1.17.59,8.76-3.64,8.76-3.64l4.83,5.79,6.46-4.45Z" style="fill: rgb(255, 193, 0); opacity: 0.5; mix-blend-mode: multiply; transform-origin: 320.481px 191.16px;" class="animable"></path></g><path d="M336.22,177.21c-.78-4.52-3.46-5.71-9.64-6.07a27.22,27.22,0,0,0-11.12,1.77s1.93-3.68-4.63-3.37-9,7.4-7.86,10.91,8.3,5.31,8.3,5.31,8.62-.19,12.92-3c0,0-3,4-2.44,6.41a2.45,2.45,0,0,0,3,1.89l.83,3.49s2,1.15,2.41.14.33-5.83,3-4,2.79,5.33,1.36,6.28-2.42.2-1.51,2.32,4,2.65,4,2.65S337,181.73,336.22,177.21Z" style="fill: rgb(46, 53, 58); stroke: rgb(46, 53, 58); stroke-linecap: round; stroke-linejoin: round; transform-origin: 319.545px 185.731px;" id="elrk9354vsw5r" class="animable"></path><path d="M317,176.18s-3-3-4.68.82,1.65,6.05,9.08,4.95,12.38-3.3,13.21-3.3" style="fill: none; stroke: rgb(255, 255, 255); stroke-linecap: round; stroke-linejoin: round; stroke-width: 0.5px; transform-origin: 323.252px 178.645px;" id="elfv5os8n5i7r" class="animable"></path><path d="M322.22,185a33.22,33.22,0,0,0,13.75-1.1" style="fill: none; stroke: rgb(255, 255, 255); stroke-linecap: round; stroke-linejoin: round; stroke-width: 0.5px; transform-origin: 329.095px 184.589px;" id="elhlpuojbsz47" class="animable"></path><path d="M316.6,191.16c.1.67-.07,1.26-.38,1.3s-.66-.46-.76-1.13.07-1.26.39-1.31S316.5,190.48,316.6,191.16Z" style="fill: rgb(46, 53, 58); transform-origin: 316.03px 191.239px;" id="ela3u537kc50v" class="animable"></path><path d="M318,202.42s2.8,0,3.92-2.09" style="fill: none; stroke: rgb(46, 53, 58); stroke-linecap: round; stroke-linejoin: round; transform-origin: 319.96px 201.375px;" id="eliquym0zy0zm" class="animable"></path><path d="M314.39,186.85a2.56,2.56,0,0,1,2.78.33" style="fill: none; stroke: rgb(46, 53, 58); stroke-linecap: round; stroke-linejoin: round; transform-origin: 315.78px 186.882px;" id="el6o9pe7la5u4" class="animable"></path><path d="M350.58,272l1.37,4s-23.66,15.83-29.9,22.13S310,310.35,310.58,313.52s7.79,48.23,7.79,48.23l9-.65s.58-43.83,1.82-44.93,37.08-24.89,37.08-24.89,3.17-.6,4.68.28,9.89,32.29,12.14,34S414,361.92,414,361.92L421.5,360s-25.2-45.45-25.14-46.62c0-.67-5.39-25.18-10.94-41-4.17-11.85-8.86-16.18-8.86-16.18Z" style="fill: rgb(46, 53, 58); stroke: rgb(46, 53, 58); stroke-linecap: round; stroke-linejoin: round; transform-origin: 366.02px 309.06px;" id="eluf9bns27eoh" class="animable"></path><path d="M375.42,260.68s4.71,8.45,6.77,11.54,2.36,10.55,2.36,10.55,10.23,28.86,11.07,33.74,24.26,43.43,24.26,43.43" style="fill: none; stroke: rgb(255, 255, 255); stroke-linecap: round; stroke-linejoin: round; stroke-width: 0.5px; transform-origin: 397.65px 310.31px;" id="ele4nltxsnbum" class="animable"></path><polyline points="353.16 285.42 366.31 291.29 356.98 290.11" style="fill: none; stroke: rgb(255, 255, 255); stroke-linecap: round; stroke-linejoin: round; stroke-width: 0.5px; transform-origin: 359.735px 288.355px;" id="el4v5yyvqctr4" class="animable"></polyline><path d="M335.24,306l-9.5,9.86s-8.18-.1-5.65,1.16a32.94,32.94,0,0,1,5.37,3.66l0,39.05" style="fill: none; stroke: rgb(255, 255, 255); stroke-linecap: round; stroke-linejoin: round; stroke-width: 0.5px; transform-origin: 327.422px 332.865px;" id="elep2hsi7nih5" class="animable"></path><path d="M353.47,273.54a35,35,0,0,0,23.19-15" style="fill: none; stroke: rgb(255, 255, 255); stroke-linecap: round; stroke-linejoin: round; stroke-width: 0.5px; transform-origin: 365.065px 266.04px;" id="elms6bnldi9f" class="animable"></path><line x1="360.82" y1="268.76" x2="362.13" y2="271.81" style="fill: none; stroke: rgb(255, 255, 255); stroke-linecap: round; stroke-linejoin: round; stroke-width: 0.5px; transform-origin: 361.475px 270.285px;" id="elpune1zcwn9a" class="animable"></line><line x1="368.94" y1="263.28" x2="370.65" y2="265.98" style="fill: none; stroke: rgb(255, 255, 255); stroke-linecap: round; stroke-linejoin: round; stroke-width: 0.5px; transform-origin: 369.795px 264.63px;" id="eln9viomqo03b" class="animable"></line><path d="M330.48,213.23s-1.19,7,1.28,18.48S350.58,272,350.58,272l2.62-.56a36.92,36.92,0,0,0,19.25-10.81l4.11-4.36s-14.84-27.89-20.5-38.4a20.34,20.34,0,0,0-17.76-11.21C335.57,206.48,330.18,211.65,330.48,213.23Z" style="fill: rgb(255, 255, 255); stroke: rgb(46, 53, 58); stroke-linecap: round; stroke-linejoin: round; transform-origin: 353.377px 239.328px;" id="elillhvwr2ta" class="animable"></path><g id="elvwnmz5godfm"><g style="opacity: 0.5; mix-blend-mode: multiply; transform-origin: 359.255px 236.83px;" class="animable"><path d="M356.06,217.84A20.06,20.06,0,0,0,342,207.09c1.79.88,7.3,3.93,9.76,9.24,3,6.38-.91,15.95-.91,15.95l-.05-1.36c-2,7.31-5.36,18.35-7.75,25.45l3-7.67,1.37-5,10,3.88-5.25-5.25s10.95,6.61,13.91,9.35a8.4,8.4,0,0,1,2.28,10,21,21,0,0,1-3.29,4.89,37.11,37.11,0,0,0,7.33-6l4.11-4.36S361.72,228.35,356.06,217.84Z" style="fill: rgb(255, 193, 0); transform-origin: 359.255px 236.83px;" id="elwz4gyobgaga" class="animable"></path></g></g><path d="M348.23,236.49s6.14-5.81,9.2-8.53" style="fill: none; stroke: rgb(46, 53, 58); stroke-linecap: round; stroke-linejoin: round; stroke-width: 0.5px; transform-origin: 352.83px 232.225px;" id="ellyq6qtcymsi" class="animable"></path><path d="M357.72,235.88c.63-.16,1.24-.34,1.82-.55" style="fill: none; stroke: rgb(46, 53, 58); stroke-linecap: round; stroke-linejoin: round; stroke-width: 0.5px; transform-origin: 358.63px 235.605px;" id="elqs7qkrj3o5n" class="animable"></path><path d="M346.4,236.75a49.6,49.6,0,0,0,9-.41" style="fill: none; stroke: rgb(46, 53, 58); stroke-linecap: round; stroke-linejoin: round; stroke-width: 0.5px; transform-origin: 350.9px 236.571px;" id="eltvs4w5my9q" class="animable"></path><polygon points="338.88 203.53 327.04 211.86 330.32 215.96 341.43 206.81 338.88 203.53" style="fill: rgb(255, 255, 255); stroke: rgb(46, 53, 58); stroke-linecap: round; stroke-linejoin: round; transform-origin: 334.235px 209.745px;" id="elsqamdzr2v3a" class="animable"></polygon><path d="M352.53,223.84c-.42,4-10.81,38.34-12.15,39.36s-44.13,12.36-44.13,12.36l-2.32-3.44,36.75-18.26,7.92-35.76" style="fill: rgb(255, 255, 255); stroke: rgb(46, 53, 58); stroke-linecap: round; stroke-linejoin: round; transform-origin: 323.23px 246.83px;" id="elz6uzs7y595" class="animable"></path><g id="elfdn9r2hbjuc"><path d="M350.81,230.92c-.1-2.7-.39-8.35-1.09-7.3-.91,1.37-2.74,12.31-5.7,20.29s-8.66,11.4-7.52,11.62,2.05,3.88,2.05,3.88l-41.35,15.9c2.31-.61,8.62-2.29,15.74-4.22l27.44-7.89,2.68-6.83C345.45,249.27,348.8,238.23,350.81,230.92Z" style="fill: rgb(255, 193, 0); opacity: 0.5; mix-blend-mode: multiply; transform-origin: 324.005px 249.401px;" class="animable"></path></g><path d="M296.45,275.8l-2.52-3.68-12.28-2.42a.78.78,0,0,0-.88.73.77.77,0,0,0,.48.76l4.5,1.87-3.24,2.65c-.93.72-4.94,3.13-5.24,4.05-.59,1.8,1.83.32,2.42.11,1.31-.48,2.14-1.07,4.34-1.93.43.59-4.55,3.37-5.12,3.82-.24.19-.63.42-.64.78-.08,1.38,2.23,0,2.77-.27,1.55-.65,3.08-1.36,4.63-2-1.08.81-2.9,1.72-4,2.53a11.7,11.7,0,0,0-1.44,1c-.56.57-.09,1.2.73.95a16.23,16.23,0,0,0,2.55-1.32c1.25-.67,1.94-1.28,3.18-2-.9.7-1.34,1.22-2.25,1.92-.35.27-1.15.74-1.31,1.17-.58,1.5,2.7-.57,3.07-.84,1.29-.92,2.8-1.68,4-2.66.17-.14,2-1.95,2-1.93Z" style="fill: rgb(255, 255, 255); stroke: rgb(46, 53, 58); stroke-linecap: round; stroke-linejoin: round; stroke-width: 0.5px; transform-origin: 286.814px 277.377px;" id="el05zw3022oggc" class="animable"></path><line x1="330.11" y1="223.47" x2="323.44" y2="213.67" style="fill: none; stroke: rgb(46, 53, 58); stroke-linecap: round; stroke-linejoin: round; stroke-width: 0.5px; transform-origin: 326.775px 218.57px;" id="eln33llkahhii" class="animable"></line><line x1="329.42" y1="223.15" x2="321.99" y2="216.91" style="fill: none; stroke: rgb(46, 53, 58); stroke-linecap: round; stroke-linejoin: round; stroke-width: 0.5px; transform-origin: 325.705px 220.03px;" id="el21ak9ooxc42" class="animable"></line><path d="M318.37,361.75l-.67.72-4.71,5s-10.6,3.83-10.68,5.31,11.32.66,14.8.36,7.61-3.51,7.61-3.51,4.4.75,5.1-2.67-2.41-5.88-2.41-5.88Z" style="fill: rgb(255, 255, 255); stroke: rgb(46, 53, 58); stroke-linecap: round; stroke-linejoin: round; transform-origin: 316.116px 367.359px;" id="elw5zdx214nn" class="animable"></path><path d="M414,361.92a81.55,81.55,0,0,0-3.53,8.78c-1.21,3.88-5.24,5.13-3.38,7.21s6.37.86,10.1-3.86,7.3-6.5,7.41-8.47S421.5,360,421.5,360Z" style="fill: rgb(255, 255, 255); stroke: rgb(46, 53, 58); stroke-linecap: round; stroke-linejoin: round; transform-origin: 415.605px 369.444px;" id="elv63z2ase5f" class="animable"></path><path d="M407,377.91a12.35,12.35,0,0,0,7.22-2.59c3.15-2.63,5.78-7.88,7.62-9.2l1.84-1.31" style="fill: none; stroke: rgb(46, 53, 58); stroke-linecap: round; stroke-linejoin: round; stroke-width: 0.5px; transform-origin: 415.34px 371.36px;" id="elp7z7bp9k0kq" class="animable"></path><path d="M303.42,372.43s10.25-1.05,14.45-1.58,5.51-3.41,6.83-3.68a43.18,43.18,0,0,0,4.2-1.31" style="fill: none; stroke: rgb(46, 53, 58); stroke-linecap: round; stroke-linejoin: round; stroke-width: 0.5px; transform-origin: 316.16px 369.145px;" id="el6oyiv8jnan8" class="animable"></path></g><g id="Device--inject-1--inject-117" class="animable" style="transform-origin: 215.649px 348.06px;"><path d="M71.6,319.93s-10.07,11.55-8.14,27.57,18.91,24.38,18.91,24.38l20.78-40.69s-10.47-10.33-3.1-23.51C100.05,307.68,82.6,309.85,71.6,319.93Z" style="fill: rgb(255, 255, 255); stroke: rgb(46, 53, 58); stroke-linecap: round; stroke-linejoin: round; transform-origin: 83.1821px 339.78px;" id="eln48l5fnipe" class="animable"></path><g id="elzuawribhi1"><path d="M71.6,319.93s-10.07,11.55-8.14,27.57,18.91,24.38,18.91,24.38l20.78-40.69s-10.47-10.33-3.1-23.51C100.05,307.68,82.6,309.85,71.6,319.93Z" style="fill: rgb(255, 193, 0); opacity: 0.5; mix-blend-mode: multiply; transform-origin: 83.1821px 339.78px;" class="animable"></path></g><path d="M161.36,289.88s-13.08.4-17.47,2.52-32.79,22.34-49,45.9c-5.52,8-7.52,12.42-8.25,14.57-.49,1.42-1,2.8-1.67,4.16-1.81,3.93-4.81,12-3.7,20.4,1.55,11.76,8.42,23.22,34.83,28.09s36.41-14.8,37.06-23.21c0,0,64.16,4.63,104,9.14s53.07,2,66.41,7.27,16.6,8.7,22.24,8.78,21.85-18,22.25-23.3-5-12.73-6.72-13.21-22.6-31.37-22.6-31.37-.94-6.07-10.07-11-54.6-18.7-79.45-25.56S174.06,289.81,161.36,289.88Z" style="fill: rgb(255, 255, 255); stroke: rgb(46, 53, 58); stroke-linecap: round; stroke-linejoin: round; transform-origin: 224.556px 348.69px;" id="el1fpkndp6whg" class="animable"></path><g id="el5d3eezkpw1w"><path d="M365.47,375.83A87.17,87.17,0,0,0,348,369.24l-75.18-20.6-99.13-17.27s-41.22-6.68-59.6,2.23c-13.07,6.34-26.42,27-33,38.47a29.32,29.32,0,0,0,.19,5.36c1.55,11.76,8.42,23.22,34.83,28.09s36.41-14.8,37.06-23.21c0,0,64.16,4.63,104,9.14s53.07,2,66.41,7.27,16.6,8.7,22.24,8.78,21.85-18,22.25-23.3C368.23,381.58,367,378.41,365.47,375.83Z" style="fill: rgb(255, 193, 0); opacity: 0.5; mix-blend-mode: multiply; transform-origin: 224.564px 368.233px;" class="animable"></path></g><path d="M87.07,361.32S106,331.06,124.83,329s78.79,6.82,78.79,6.82" style="fill: none; stroke: rgb(46, 53, 58); stroke-linecap: round; stroke-linejoin: round; transform-origin: 145.345px 345.005px;" id="elczbidrhhvx6" class="animable"></path><path d="M209.87,337s37,5.34,85.37,17.56,68,19,70.61,21.35" style="fill: none; stroke: rgb(46, 53, 58); stroke-linecap: round; stroke-linejoin: round; transform-origin: 287.86px 356.455px;" id="eljputlxsfgr" class="animable"></path><path d="M245.94,310.75S325,331.26,330,333.31a18.17,18.17,0,0,1,7.49,5.55" style="fill: rgb(255, 255, 255); stroke: rgb(46, 53, 58); stroke-linecap: round; stroke-linejoin: round; transform-origin: 291.715px 324.805px;" id="el6tcqca6ymnw" class="animable"></path><path d="M146.93,294.05,126.67,323.5s28.6-.6,104.15,11.61l1.75-27S196.08,296.81,181,295.64,146.93,294.05,146.93,294.05Z" style="fill: rgb(46, 53, 58); stroke: rgb(46, 53, 58); stroke-linecap: round; stroke-linejoin: round; transform-origin: 179.62px 314.58px;" id="el2f9y5xwh3cl" class="animable"></path><path d="M127,323.49c1.54,0,8.31,0,21.65,1.09L134.58,312l-.92,1.34Z" style="fill: rgb(255, 255, 255); stroke: rgb(46, 53, 58); stroke-linecap: round; stroke-linejoin: round; transform-origin: 137.825px 318.29px;" id="elte033mv7s3c" class="animable"></path><path d="M146.93,294.05l-3.85,5.61,33.51,27.75c8.54,1,18.3,2.28,29.37,3.89,3.92.44,8,.92,12.24,1.44L171.93,295C159.26,294.32,146.93,294.05,146.93,294.05Z" style="fill: rgb(255, 255, 255); stroke: rgb(46, 53, 58); stroke-linecap: round; stroke-linejoin: round; transform-origin: 180.64px 313.395px;" id="el9o9jkmil3hm" class="animable"></path><path d="M233.92,313.78l-.27,16c3.94-.21,10.09-.07,14.53,2.2a36.12,36.12,0,0,0-2.43-16Z" style="fill: rgb(255, 255, 255); stroke: rgb(46, 53, 58); stroke-miterlimit: 10; transform-origin: 240.966px 322.88px;" id="el83vddekkat" class="animable"></path><path d="M245,314.22a31.54,31.54,0,0,0-3-5l-8-1.68-.08,5Z" style="fill: rgb(255, 255, 255); stroke: rgb(46, 53, 58); stroke-miterlimit: 10; transform-origin: 239.46px 310.88px;" id="el5hgrifbra3m" class="animable"></path><path d="M233.62,331.94l-.08,4.44,13.59,2.12a30.77,30.77,0,0,0,.9-4.87C245.57,332.55,240.93,331.27,233.62,331.94Z" style="fill: rgb(255, 255, 255); stroke: rgb(46, 53, 58); stroke-miterlimit: 10; transform-origin: 240.785px 335.127px;" id="elul5y5rhaloj" class="animable"></path><path d="M264.57,315.15s-7.59-1.88-8.89-1.8-1.65,2.27-1.65,2.27l2.72,5.37s-.44.88,3.52,2.11,7.43,1.5,7.84,1,.34-2,.62-3.27S266.4,315.29,264.57,315.15Z" style="fill: rgb(255, 255, 255); stroke: rgb(46, 53, 58); stroke-linecap: round; stroke-linejoin: round; transform-origin: 261.39px 318.842px;" id="el0pd29q1u3dt" class="animable"></path><path d="M269.55,324.56s-7.55-2.43-8.85-2.35-2.6,2.75-2.6,2.75.95,6.7,1.81,7.51,9.18,2.74,10.46,2.84,1.78-1.52,1.9-3.17S271,325,269.55,324.56Z" style="fill: rgb(255, 255, 255); stroke: rgb(46, 53, 58); stroke-linecap: round; stroke-linejoin: round; transform-origin: 265.189px 328.761px;" id="el5v7gpwa7fkb" class="animable"></path><path d="M272.41,335.1s-9.56-2.59-10.47-2.66-2.22,2.41-2.08,3-.06,5.52-.06,5.52l14.87,3-1.12-6.9S273.58,336.66,272.41,335.1Z" style="fill: rgb(255, 255, 255); stroke: rgb(46, 53, 58); stroke-linecap: round; stroke-linejoin: round; transform-origin: 267.235px 338.199px;" id="eljxdwy7blx8" class="animable"></path><path d="M271.78,317.18l-1.07,1.94,3.22,6s.09,1.12,3.16,1.91,8.69,2,8.69,2,1.61-1.72,1.3-2.48-3.74-6.37-5.15-7.21S272.21,316.29,271.78,317.18Z" style="fill: rgb(255, 255, 255); stroke: rgb(46, 53, 58); stroke-linecap: round; stroke-linejoin: round; transform-origin: 278.915px 323.001px;" id="elki1qgujxgcd" class="animable"></path><path d="M277.09,327a9.9,9.9,0,0,0-1.11,2.49c-.06.73.95,6.7,2.5,8.11s10.49,2.48,11.77,2.58,1.62-1.9,1.74-3.37-1.88-6.59-3.29-7.44-9.55-2.77-9.55-2.77S277.73,325.93,277.09,327Z" style="fill: rgb(255, 255, 255); stroke: rgb(46, 53, 58); stroke-linecap: round; stroke-linejoin: round; transform-origin: 283.986px 333.288px;" id="elutml4nzmad" class="animable"></path><path d="M292.7,340.3a2.84,2.84,0,0,0-.91-.52c-2.06-.7-9.74-3.26-11.07-2.56-1.54.8-2.06,2.78-2,4.44a22.56,22.56,0,0,0,.46,3.54l15.87,4.36L293.69,342a2.88,2.88,0,0,0-1-1.7Z" style="fill: rgb(255, 255, 255); stroke: rgb(46, 53, 58); stroke-linecap: round; stroke-linejoin: round; transform-origin: 286.883px 343.33px;" id="elbgp7h67quj" class="animable"></path><path d="M288.21,321.4l-.42,3.1s1.67,4.55,3.46,5.24,10.11,2.63,10.66,2.67,1.8-1.88,1.7-3-3.22-6-5-6.66-9.05-2-9.05-2S287.92,320.46,288.21,321.4Z" style="fill: rgb(255, 255, 255); stroke: rgb(46, 53, 58); stroke-linecap: round; stroke-linejoin: round; transform-origin: 295.703px 326.559px;" id="elx0hoiyg0eg" class="animable"></path><path d="M295.08,330.23l-1.6,3.92s2.08,6.43,2.38,7.37,11.9,3.32,12.47,3,1.91-.78,1.74-3.37-3.74-8.76-5.19-9.06-7.59-1.88-8.14-1.92S295.32,329.51,295.08,330.23Z" style="fill: rgb(255, 255, 255); stroke: rgb(46, 53, 58); stroke-linecap: round; stroke-linejoin: round; transform-origin: 301.782px 337.217px;" id="elnn2z9lzudyn" class="animable"></path><path d="M299.48,342.36s-2,3.9-1.56,5.77a20.13,20.13,0,0,0,1.2,3.59l15.71,4s-1.87-6.78-2.24-9-4.35-3.28-7.59-4.27S299.2,341.23,299.48,342.36Z" style="fill: rgb(255, 255, 255); stroke: rgb(46, 53, 58); stroke-linecap: round; stroke-linejoin: round; transform-origin: 306.343px 348.663px;" id="els7lr1mzidm9" class="animable"></path><path d="M304.7,324.9l-.24,3.11s3.83,5.27,4.85,6.27,9.38,2.57,10.13,2.44,1.07-1.94.79-3.07-4.33-5.86-5.94-6.54-8.26-2.66-8.26-2.66S304.24,323.75,304.7,324.9Z" style="fill: rgb(255, 255, 255); stroke: rgb(46, 53, 58); stroke-linecap: round; stroke-linejoin: round; transform-origin: 312.395px 330.483px;" id="elpru6teb1orr" class="animable"></path><path d="M311.86,334.66s-1.06,4.16-.54,4.56,2.82,6.49,4.05,7.13,10.3,2.65,11.43,2.36,1.29-2.47.7-4.36-4.26-6.78-6.4-7.68c-1.53-.65-7.58-2.06-7.58-2.06S312.3,333.77,311.86,334.66Z" style="fill: rgb(255, 255, 255); stroke: rgb(46, 53, 58); stroke-linecap: round; stroke-linejoin: round; transform-origin: 319.506px 341.495px;" id="el204rbrcq2ehi" class="animable"></path><path d="M325.56,348.07s-5.55-2.09-6.5-1.8-2.1,3.34-2.14,3.89,2,7.15,2,7.15l14.78,4.28s0-.36,0-2.76-3.56-8.75-4.25-9.35S325.56,348.07,325.56,348.07Z" style="fill: rgb(255, 255, 255); stroke: rgb(46, 53, 58); stroke-linecap: round; stroke-linejoin: round; transform-origin: 325.31px 353.916px;" id="elqn1v2qxgw8" class="animable"></path><path d="M321.81,329.91a19.16,19.16,0,0,0-.59,2.9c-.09,1.1,3.13,4.66,4.71,5.71s9.34,3.12,9.88,3.16,2-1.69,1-3.42a21.85,21.85,0,0,0-5.82-5.8A28.48,28.48,0,0,0,321.81,329.91Z" style="fill: rgb(255, 193, 0); stroke: rgb(46, 53, 58); stroke-linecap: round; stroke-linejoin: round; transform-origin: 329.185px 335.795px;" id="eljornvjsp52" class="animable"></path><path d="M329.7,339.73a11.94,11.94,0,0,0-.73,2.34c-.06.73,3.54,6.54,4.39,7.52s8.81,2.71,9.73,2.78,3-.13,2.24-2.77-3-6.86-5.12-7.58-6.11-1.95-7.91-2.46A2.9,2.9,0,0,0,329.7,339.73Z" style="fill: rgb(255, 193, 0); stroke: rgb(46, 53, 58); stroke-linecap: round; stroke-linejoin: round; transform-origin: 337.232px 345.856px;" id="elhq7or8wwcwe" class="animable"></path><path d="M337.5,350.84a11.32,11.32,0,0,0-1.63,4.29c-.15,2,1.49,6.93,3.05,8.16s12.21,4.08,12.21,4.08,1-3.24,1.33-5.24-5.06-8.32-5.56-9.09S338.79,350.75,337.5,350.84Z" style="fill: rgb(255, 193, 0); stroke: rgb(46, 53, 58); stroke-linecap: round; stroke-linejoin: round; transform-origin: 344.167px 359.103px;" id="elpet1gchj20i" class="animable"></path><path d="M357.8,393.28c-3.8-1-9.73-1.82-11.94-5.16s-4.68-7.77-27.11-9.51-173.78-23-189.22-23.87-27.46,17.61-27.46,17.61-9.43-1.08-15.28-3a14,14,0,0,1-5-2.88,32.47,32.47,0,0,0-.54,10.91c1.55,11.76,8.42,23.22,34.83,28.09s36.41-14.8,37.06-23.21c0,0,64.16,4.63,104,9.14s53.07,2,66.41,7.27,16.6,8.7,22.24,8.78c3.41.05,10.69-6.57,16-13C360.26,394,358.84,393.55,357.8,393.28Z" style="fill: rgb(46, 53, 58); stroke: rgb(46, 53, 58); stroke-linecap: round; stroke-linejoin: round; transform-origin: 221.404px 381.08px;" id="eloioawrint7h" class="animable"></path><path d="M99.62,376.75S94.94,387,93.11,392.46" style="fill: none; stroke: rgb(255, 255, 255); stroke-linecap: round; stroke-linejoin: round; stroke-width: 0.75px; transform-origin: 96.365px 384.605px;" id="elzjtucbf9hg" class="animable"></path><path d="M105.87,373.35s27,6.33,43.77,8.34" style="fill: none; stroke: rgb(255, 255, 255); stroke-linecap: round; stroke-linejoin: round; stroke-width: 0.75px; transform-origin: 127.755px 377.52px;" id="elwv3wbum0fi" class="animable"></path><path d="M126.67,323.5s-16.76-11.17-30.43-12.24-24.64,8.67-24.64,8.67,33.66-29.47,42.91-30.51,21.32-2.23,32.42,4.63Z" style="fill: rgb(255, 255, 255); stroke: rgb(46, 53, 58); stroke-linecap: round; stroke-linejoin: round; transform-origin: 109.265px 306.06px;" id="elwn6sek7024h" class="animable"></path></g><defs>     <filter id="active" height="200%">         <feMorphology in="SourceAlpha" result="DILATED" operator="dilate" radius="2"></feMorphology>                <feFlood flood-color="#32DFEC" flood-opacity="1" result="PINK"></feFlood>        <feComposite in="PINK" in2="DILATED" operator="in" result="OUTLINE"></feComposite>        <feMerge>            <feMergeNode in="OUTLINE"></feMergeNode>            <feMergeNode in="SourceGraphic"></feMergeNode>        </feMerge>    </filter>    <filter id="hover" height="200%">        <feMorphology in="SourceAlpha" result="DILATED" operator="dilate" radius="2"></feMorphology>                <feFlood flood-color="#ff0000" flood-opacity="0.5" result="PINK"></feFlood>        <feComposite in="PINK" in2="DILATED" operator="in" result="OUTLINE"></feComposite>        <feMerge>            <feMergeNode in="OUTLINE"></feMergeNode>            <feMergeNode in="SourceGraphic"></feMergeNode>        </feMerge>            <feColorMatrix type="matrix" values="0   0   0   0   0                0   1   0   0   0                0   0   0   0   0                0   0   0   1   0 "></feColorMatrix>    </filter></defs></svg>